<svg width="193" height="102" viewBox="0 0 193 102" fill="none" xmlns="http://www.w3.org/2000/svg">
<path fill-rule="evenodd" clip-rule="evenodd" d="M0 0.701172L12.1637 0.840929C16.8233 0.894466 21.4689 1.36149 26.0459 2.2365L27.2289 2.46266C31.8289 3.34207 36.3244 4.69957 40.6423 6.51308C43.6521 7.77723 46.5659 9.25886 49.3606 10.9462L52.0659 12.5796C55.235 14.4931 58.1455 16.8052 60.726 19.4595C63.2651 22.0711 65.4644 24.9929 67.2716 28.1555L67.5639 28.667C69.657 32.3301 71.2374 36.2633 72.2606 40.3563L69.8372 40.3563L66.9877 35.9346C64.6342 32.2824 61.9195 28.8761 58.8845 25.7671C55.9127 22.7228 52.6484 19.9785 49.1388 17.5738L48.0584 16.8335C44.3725 14.308 40.4767 12.1035 36.4138 10.2442L36.0668 10.0854C31.7114 8.09223 27.1907 6.482 22.556 5.27294L14.3201 3.12446L0 0.701172ZM12.1168 4.40422L5.72796 2.64177L7.2701 3.523L9.47317 4.62453L12.7778 6.16667L15.8621 7.48851L20.2682 10.1322C21.076 10.5728 22.7797 11.5422 23.1322 11.8946L25.1074 13.8699C25.2535 14.016 25.3352 14.2138 25.3352 14.4203V14.9789C25.3352 15.1006 25.2366 15.1992 25.1149 15.1992H24.2337H22.4713C21.5985 15.1992 20.7774 14.7969 19.9921 14.4121L19.9453 14.3892L10.3544 9.69158C13.0715 11.7478 18.5057 15.9042 18.5057 16.0805C18.5057 16.2482 20.3679 18.0253 21.434 19.0196C21.5375 19.1161 21.6224 19.2296 21.6857 19.3562C21.7677 19.5201 21.8103 19.7007 21.8103 19.884V20.2663V20.7069C21.8103 20.9502 21.6131 21.1475 21.3697 21.1475H20.7088H19.7726C19.2244 21.1475 18.679 21.0711 18.1519 20.9205C17.6556 20.7787 17.18 20.5724 16.7374 20.3068L13.7537 18.5166C13.2593 18.2199 12.6935 18.0632 12.1168 18.0632C12.2628 18.3551 12.4548 18.6215 12.6855 18.8522L15.5033 21.67C15.5954 21.7621 15.6781 21.863 15.7503 21.9713L15.838 22.1027C15.9973 22.3418 16.0824 22.6227 16.0824 22.91V23.5709V24.2318C16.0824 24.342 16.0273 24.4521 15.9722 24.5623C15.9171 24.6724 15.8621 24.7826 15.8621 24.8927C15.8621 25.069 15.2746 25.4068 14.9808 25.5536L13.8793 25.9943L13.5913 26.0766C12.7563 26.3151 11.9051 26.4925 11.0443 26.6073L10.8983 26.6267C9.65847 26.792 8.44131 27.0972 7.2701 27.5364H9.47317H12.5575H13.659C14.3199 27.5364 16.0824 27.5364 17.4042 26.8755L21.1494 25.113L21.8354 24.8558C22.5498 24.5879 23.2969 24.4171 24.0568 24.348C24.8669 24.2744 25.6678 24.5644 26.243 25.1396L26.4368 25.3333L27.318 26.2146L27.7752 26.7632C28.2013 27.2746 28.7155 27.7055 29.2934 28.0357C29.7368 28.2891 30.2129 28.4804 30.7084 28.6043L30.893 28.6505C31.445 28.7885 32.0118 28.8582 32.5808 28.8582H33.9272L36.7912 28.6379L35.0287 28.1973L33.4103 27.7927C32.7305 27.6228 32.0797 27.3532 31.4789 26.9927C30.6239 26.4797 29.8865 25.7924 29.3147 24.9756L29.1503 24.7407C28.8111 24.2562 28.5289 23.7342 28.3092 23.185L28.2026 22.9185C27.9093 22.1852 27.7586 21.4026 27.7586 20.6128V20.4568C27.7586 19.8929 27.8495 19.3326 28.0279 18.7976L28.2834 18.0311C28.3729 17.7625 28.5238 17.5184 28.724 17.3182C29.2125 16.8297 29.9351 16.6591 30.5905 16.8775L31.0095 17.0172C31.3356 17.1259 31.6363 17.2998 31.8933 17.5282L32.8615 18.3888C33.2773 18.7584 33.6573 19.1664 33.9965 19.6074L35.6896 21.8084C35.6896 20.7987 35.4197 19.8074 34.9077 18.9371L34.2324 17.7889C33.7376 16.9478 33.1285 16.1793 32.4226 15.5055L31.0882 14.2317C29.4641 12.6815 27.6288 11.3689 25.6368 10.3331L23.1322 9.03066L16.9636 6.38698L12.1168 4.40422ZM55.5307 40.8022L56.4738 39.0943C56.8254 38.4576 57.0098 37.7432 57.0098 37.017C57.0098 36.6575 56.9646 36.2994 56.8753 35.9511L56.7274 35.3744C56.6349 35.0135 56.4698 34.6749 56.2422 34.379C56.051 34.1304 55.8186 33.9159 55.555 33.7445L54.6855 33.1793L53.4177 32.5612L52.6349 32.1033C52.4547 31.9978 52.3003 31.854 52.1828 31.6822C52.0237 31.4495 51.9415 31.1721 52.0262 30.9036C52.0774 30.7412 52.1423 30.5781 52.1962 30.4731C52.4075 30.061 52.5725 29.8829 52.7838 29.6769L52.7905 29.6703C53.3258 29.1484 53.5629 28.9173 54.2629 28.6468C54.9465 28.3826 55.5373 28.4138 55.7416 28.4246C55.7684 28.4261 55.7886 28.4271 55.8014 28.4271L55.8497 28.4278C56.4704 28.4363 57.077 28.6129 57.604 28.9386L57.8913 29.1526C58.3829 29.5188 58.8083 29.9653 59.1491 30.4731L59.4052 30.919C59.6389 31.3261 59.8524 31.8114 60.0042 32.2552C60.1207 32.596 60.2214 33.0199 60.2807 33.375C60.3841 33.9941 60.3913 34.6253 60.3019 35.2466C60.2205 35.8123 60.0247 36.4421 59.7896 36.9637C59.6271 37.3244 59.4329 37.6702 59.2094 37.9971L58.7001 38.7419L58.083 39.4639C57.7913 39.8053 57.1772 40.3029 56.8081 40.56C56.3828 40.8562 55.9057 41.0713 55.4013 41.1942C55.3692 41.2021 55.3426 41.1688 55.3576 41.1396L55.5307 40.8022ZM36.1303 96.4923L36.6683 100.976C36.6827 101.096 36.8584 101.092 36.8673 100.972L37.2318 96.0517L37.6724 92.3065L38.3333 89.2222L38.6706 88.2946C39.0279 87.3122 39.6187 86.4314 40.3922 85.7283C41.209 84.9857 42.2028 84.4654 43.2783 84.2172L43.7479 84.1089C44.2479 83.9935 44.7282 83.8055 45.1737 83.551C45.7488 83.2224 46.2565 82.7881 46.6702 82.2709L46.9253 81.9521L47.236 81.5378C48.3435 80.0612 49.2056 78.4158 49.7893 76.6648L50.9501 72.6019C50.981 72.4937 50.8374 72.4248 50.7723 72.5166L47.3659 77.3257L46.0647 79.0606C45.6165 79.6582 45.0353 80.1433 44.3671 80.4773L44.2511 80.5354C44.1247 80.5986 43.994 80.6527 43.86 80.6974L43.7369 80.7384C43.514 80.8127 43.2806 80.8506 43.0456 80.8506H42.9648C42.8153 80.8506 42.6665 80.8298 42.5228 80.7887C41.76 80.5707 41.2699 79.8293 41.3683 79.0421L41.4176 78.6475C41.5633 77.7732 41.863 76.9317 42.3028 76.1622L43.4004 74.2414L44.0345 73.1316C45.3683 70.7976 47.0072 68.6518 48.908 66.751L53.5345 62.7854L60.364 58.3793L55.9578 57.9387L49.1112 57.2866C47.5106 57.1342 45.928 56.8309 44.3845 56.3807C42.4138 55.8059 40.5196 54.9954 38.743 53.9669L37.2318 53.092L35.1863 51.6309C34.495 51.1371 33.8456 50.587 33.2448 49.9862C32.5265 49.2679 31.8809 48.4804 31.3175 47.6353L30.4023 46.2625L29.3008 44.0594L28.8922 43.1402C28.5784 42.434 28.3552 41.6909 28.2282 40.9286L28.0316 39.749C28.0012 39.5666 27.8434 39.433 27.6585 39.433C27.4649 39.433 27.3026 39.5791 27.2824 39.7716L27.133 41.1901C27.0045 42.4116 26.8655 43.6504 26.4343 44.8004C26.2917 45.1806 26.0491 45.5151 25.7321 45.7687L25.4483 45.9958C25.2325 46.1684 24.8946 46.2625 24.8946 46.2625C24.8946 46.2625 24.2337 46.4828 23.6559 45.6904L21.8103 42.7376L19.387 37.8908L17.6245 35.0268C17.037 34.2925 15.818 32.7797 15.6418 32.6035C15.4655 32.4272 14.2465 31.5019 13.659 31.0613C12.0646 30.0467 10.2559 29.4112 8.37787 29.1998C7.24811 29.0726 6.55081 28.9928 6.11324 28.9427L6.10863 28.9422L6.1084 28.9422L6.10452 28.9417L6.10289 28.9415L6.09946 28.9411L6.09833 28.941L6.09831 28.941L6.09698 28.9409L6.0968 28.9408L6.09631 28.9408L6.09626 28.9408L6.09615 28.9408L6.09593 28.9407L6.09548 28.9407C5.45379 28.8672 5.38394 28.8592 5.314 28.8584L5.28735 28.8582L8.31401 29.8671C9.81444 30.3673 11.2415 31.0652 12.5575 31.9425C13.5813 32.8201 14.4961 33.8371 15.2637 34.9458C15.8047 35.7272 16.2802 36.5636 16.6735 37.4289L19.387 43.3985L22.8189 49.5378C24.4725 52.0182 26.6948 54.0676 29.3008 55.5153C29.5412 55.6356 29.862 55.7839 30.2123 55.9406C31.9382 56.7126 33.0137 57.0948 34.8608 57.4984C36.9731 57.9599 39.8631 58.4123 42.0242 58.4778L46.0441 58.5996L53.3142 58.4895L58.8218 58.3793H60.364C59.0449 58.819 57.7687 59.3782 56.5512 60.0499L54.9945 60.9087C52.9963 62.0112 51.0907 63.2736 49.2962 64.6836L48.908 64.9885L44.9425 68.7337L44.4417 69.3014C42.579 71.4123 40.9724 73.7361 39.6552 76.2241L38.5963 78.7269C37.6895 80.8703 37.0253 83.1085 36.6162 85.3996C36.2929 87.2101 36.1303 89.0457 36.1303 90.8848V91.6456V96.4923ZM61.4245 66.1673L61.5796 65.9886C61.9403 65.573 62.3824 65.2358 62.8785 64.9976C63.256 64.8164 63.6595 64.6952 64.0744 64.6383L64.9904 64.5127H67.4114C67.4121 64.5127 67.4123 64.5118 67.4117 64.5115C66.6875 64.0943 65.8808 63.8405 65.0482 63.7679L64.6617 63.7341C64.1479 63.6893 63.6308 63.6977 63.1186 63.7591L62.8816 63.7876C62.3798 63.8478 61.8864 63.9646 61.4108 64.1358C60.7177 64.3853 60.0704 64.7475 59.4952 65.2077L59.4522 65.2421C59.1792 65.4605 58.9229 65.6989 58.6854 65.9554L58.5077 66.1473C57.7004 67.0192 57.1104 68.0693 56.7857 69.2123L56.7393 69.3757C56.6591 69.6581 56.6018 69.9466 56.568 70.2382L56.4822 70.98C56.4266 71.4607 56.4266 71.9462 56.4822 72.4269L56.5466 72.9836C56.5926 73.3807 56.8036 73.74 57.128 73.9735C57.3699 74.1477 57.6606 74.2361 57.955 74.1895L58.0035 74.1817C58.5174 74.0981 58.9417 73.7423 59.1419 73.2617L59.1899 73.1464C59.2381 73.0307 59.2742 72.9104 59.2975 72.7872L59.6907 70.7111C59.6989 70.6677 59.7069 70.6249 59.7148 70.5814C59.7477 70.4004 59.8453 69.8661 59.9464 69.3301C60.073 68.6588 60.3037 68.0123 60.6193 67.4063L60.7433 67.1683C60.9304 66.8091 61.159 66.4731 61.4245 66.1673ZM57.8102 81.5505L60.3367 79.024C60.3669 78.9938 60.4162 79.0287 60.3979 79.0672L58.64 82.7589C58.4071 83.2479 58.2236 83.759 58.0922 84.2845L57.9463 84.8681C57.8818 85.1262 57.8492 85.3913 57.8492 85.6573V86.2037C57.8492 86.589 57.9803 86.9628 58.221 87.2636L58.2994 87.3617C58.5718 87.7022 58.9842 87.9004 59.4203 87.9004C59.6893 87.9004 59.9529 87.8248 60.181 87.6822L60.9813 87.182C61.3877 86.9281 61.753 86.6138 62.0648 86.25L62.2292 86.0583C62.6841 85.5275 63.0487 84.9256 63.3083 84.2765L63.7974 83.0536L64.6787 80.1897C65.1187 78.4297 65.6899 76.7052 66.3877 75.0306L66.4411 74.9023C67.256 73.4084 68.8217 72.4789 70.5234 72.4789H72.1691L71.4932 72.6018C70.3854 72.8032 69.4232 73.484 68.8645 74.4617L68.6991 74.8339C68.2271 75.8958 67.9833 77.0449 67.9833 78.2069L68.4239 83.0536V83.8454C68.4239 84.9155 68.1512 85.9679 67.6315 86.9033C67.4259 87.2733 67.1835 87.6217 66.908 87.9431L66.8352 88.0282C66.2828 88.6725 65.6238 89.2172 64.887 89.6382L64.4584 89.8831L62.2553 91.205L61.1919 91.9493C60.4518 92.4674 59.898 93.2099 59.6123 94.0669C59.5502 94.2532 59.2823 94.2394 59.2397 94.0477L59.1847 93.8C59.0319 93.1124 58.6861 92.4826 58.188 91.9845C57.963 91.7595 57.768 91.5065 57.6077 91.2317L56.6599 89.6069C56.4251 89.2044 56.2269 88.7816 56.0677 88.3437L55.7655 87.5127C55.5422 86.8987 55.468 86.2405 55.5491 85.5923C55.6132 85.0794 55.7732 84.5832 56.0207 84.1294L56.3975 83.4384C56.7759 82.7449 57.2516 82.1091 57.8102 81.5505ZM38.3359 96.5293L39.4617 93.1519L39.8849 92.0515C40.3342 90.8833 40.9672 89.7943 41.7598 88.8255C42.2825 88.1867 42.8709 87.6046 43.5155 87.089L43.9894 86.7099C44.4944 86.3058 45.0407 85.9563 45.6192 85.667L46.2554 85.3489C46.7169 85.1182 47.2125 84.9634 47.7232 84.8904L47.8064 84.8785C48.262 84.8135 48.7041 84.6753 49.1158 84.4695C49.5788 84.238 49.996 83.9244 50.3472 83.544L52.4598 81.2554L54.2222 78.832L55.0792 77.3322C55.0858 77.3207 55.1035 77.3254 55.1035 77.3387C55.1035 78.3278 54.944 79.3104 54.6312 80.2487L54.4385 80.8269C54.2945 81.2589 54.12 81.6801 53.9164 82.0874L53.2204 83.4793C53.01 83.9002 52.9004 84.3643 52.9004 84.8349C52.9004 85.2351 52.9796 85.6314 53.1336 86.0008L54.0019 88.0849L54.8832 90.2879L55.5007 91.9346C55.5097 91.9587 55.4787 91.9774 55.4616 91.9583L52.2462 88.3645C51.9558 88.04 51.5681 87.8184 51.1411 87.733L51.0964 87.7241C50.8336 87.6715 50.5625 87.678 50.3025 87.743C49.9842 87.8225 49.6936 87.9871 49.4616 88.2191L49.2653 88.4153C48.9049 88.7757 48.6493 89.2273 48.5257 89.7217L48.3777 90.3135C48.3352 90.4836 48.1162 90.5314 48.0067 90.3945L46.8342 88.9289C46.6227 88.6645 46.3463 88.4594 46.0319 88.3336C45.6287 88.1724 45.1834 88.1496 44.7659 88.2689L44.4087 88.371C44.0511 88.4731 43.7153 88.6399 43.4178 88.863L43.2315 89.0027C43.0684 89.125 42.9143 89.2587 42.7701 89.4029L42.4777 89.6953C42.0833 90.0897 41.7221 90.516 41.3979 90.9699L41.3196 91.0796C40.9628 91.5791 40.6456 92.1059 40.3711 92.655L38.4171 96.5629C38.3927 96.6118 38.3186 96.5812 38.3359 96.5293ZM51.9923 6.82759L52.6386 7.01225C54.2616 7.47596 55.8471 8.06198 57.3816 8.76527C59.3651 9.67437 61.2548 10.7755 63.0236 12.053L64.3295 12.9962L65.5144 14.0965C66.7781 15.2699 67.9342 16.5541 68.9689 17.9337L69.3158 18.3962C70.2485 19.6398 71.0536 20.9741 71.7191 22.3789C72.0732 23.1264 72.332 23.867 72.6 24.6343L72.6001 24.6344L72.6002 24.6345L72.6002 24.6346L72.6003 24.6348C72.8266 25.2826 73.0595 25.9493 73.3621 26.6552L73.5824 27.3161C73.7258 28.0334 73.7361 28.8762 73.1614 29.3287C72.9877 29.4655 72.7902 29.5343 72.5844 29.4428C72.3774 29.3508 72.2168 29.1786 72.1394 28.9658L71.159 26.8755L68.5153 21.3678L66.7529 18.7241L66.7209 18.6779C65.423 16.8032 63.959 15.0491 62.3467 13.4368C60.736 11.9725 58.9698 10.6888 57.0798 9.60882L56.8391 9.47127L54.8563 8.36974L51.9923 6.82759ZM38.5536 16.0805L40.0958 18.0632L40.799 19.1883C41.064 19.6124 41.2907 20.0592 41.4764 20.5235C41.8742 21.5179 42.0785 22.5795 42.0785 23.6504V24.0115V25.0858C42.0785 25.5226 41.986 25.8636 41.6385 26.1282C41.4227 26.2924 41.0541 26.4349 40.7829 26.4349H40.5974C40.1288 26.4349 39.6728 26.2829 39.2979 26.0017L38.9942 25.774L38.0998 25.0584C38.0609 25.0273 38.0083 25.0744 38.0351 25.1164L39.4349 27.3161L40.0541 28.3998C40.2283 28.7047 40.372 29.026 40.4831 29.3592L40.558 29.5841C40.6896 29.9788 40.7567 30.3922 40.7567 30.8083V31.3138C40.7567 31.5824 40.6942 31.8473 40.574 32.0876C40.4066 32.4224 40.1351 32.694 39.8002 32.8614L39.627 32.948C39.4992 33.0119 39.3657 33.0638 39.2283 33.1031L37.8927 33.4847L36.3176 33.8347C36.0476 33.8947 35.789 33.9978 35.5518 34.1402L35.4557 34.1978C35.0358 34.4498 34.7099 34.8324 34.5281 35.2871C34.4222 35.5518 34.3678 35.8342 34.3678 36.1193V36.2557C34.3678 36.2932 34.4111 36.314 34.4404 36.2906L34.8129 35.9926C35.2433 35.6482 35.7548 35.4199 36.2985 35.3292C36.625 35.2748 36.9579 35.271 37.2856 35.3178L37.6034 35.3632C38.0877 35.4324 38.5601 35.5682 39.0071 35.7669L39.202 35.8535C39.9384 36.1808 40.6083 36.6409 41.1782 37.2108C41.4839 37.5165 41.7587 37.8517 41.9986 38.2115L42.9598 39.6533L43.9717 40.9182C44.4712 41.5426 45.0209 42.1251 45.6152 42.66C46.4855 43.4433 47.4463 44.1196 48.4771 44.6747L49.7893 45.3812L53.7548 47.1437L58.6015 48.6858L62.7873 49.7874L65.9409 50.1816C65.9928 50.188 66.0108 50.1149 65.9619 50.0966L59.2624 47.5843L54.636 45.3812L51.9923 43.8391L51.2222 43.2615C49.9766 42.3273 48.8318 41.2656 47.8065 40.0939L46.8139 38.8176C46.4484 38.3478 46.1303 37.843 45.8641 37.3106C45.5446 36.6716 45.302 35.9969 45.1413 35.3008L45.0094 34.7293C44.8183 33.9013 44.7032 33.0576 44.6655 32.2086L44.3463 25.0273C44.3032 24.058 44.1794 23.0941 43.9761 22.1454L43.7386 21.0369C43.6602 20.6709 43.5464 20.3134 43.399 19.9693C43.1088 19.2923 42.6922 18.6769 42.1713 18.156L42.0352 18.0199C41.7708 17.7555 41.485 17.5134 41.1807 17.296L41.1382 17.2657C40.4484 16.7729 39.6791 16.402 38.864 16.1691L38.5536 16.0805ZM15.1589 29.3334L13.2632 28.8595C13.2224 28.8493 13.2003 28.9053 13.237 28.9257L16.9645 30.9965C18.4169 31.8679 19.6696 33.0355 20.6409 34.4231L20.7097 34.5214L21.0392 35.0391C21.8377 36.2939 22.3475 37.7103 22.532 39.1861L22.6605 40.2138C22.6817 40.3837 22.7246 40.5501 22.7882 40.7091L22.844 40.8484C23.0273 41.3068 23.4032 41.6613 23.8716 41.8174C24.2483 41.9429 24.6587 41.9303 25.0273 41.7829C25.3697 41.6459 25.6592 41.4 25.8489 41.0838L25.9697 40.8825C26.1332 40.61 26.2405 40.3076 26.2855 39.9931L26.3157 39.7812C26.3958 39.2207 26.3365 38.6492 26.143 38.1171L25.9306 37.533C25.6833 36.8529 25.3134 36.2238 24.8395 35.6769L23.8407 34.5244C23.0781 33.6445 22.2101 32.8619 21.2562 32.1942L20.9273 31.9639C19.1815 30.7418 17.2263 29.8503 15.1589 29.3334ZM131.09 66.1673L130.935 65.9886C130.574 65.573 130.132 65.2358 129.636 64.9976C129.258 64.8164 128.855 64.6952 128.44 64.6383L127.524 64.5127H125.103C125.103 64.5127 125.103 64.5125 125.103 64.5124C125.102 64.5121 125.102 64.5117 125.103 64.5115C125.827 64.0943 126.634 63.8405 127.466 63.7679L127.853 63.7341C128.367 63.6893 128.884 63.6977 129.396 63.7591L129.633 63.7876C130.135 63.8478 130.628 63.9646 131.104 64.1358C131.797 64.3853 132.444 64.7475 133.019 65.2077L133.062 65.2421C133.335 65.4605 133.592 65.6989 133.829 65.9554L134.007 66.1473C134.814 67.0192 135.404 68.0693 135.729 69.2123L135.775 69.3757C135.855 69.6581 135.913 69.9466 135.946 70.2382L136.032 70.98C136.088 71.4607 136.088 71.9462 136.032 72.4269L135.968 72.9836C135.922 73.3807 135.711 73.74 135.387 73.9735C135.145 74.1477 134.854 74.2361 134.56 74.1895L134.511 74.1817C133.997 74.0981 133.573 73.7423 133.373 73.2617L133.325 73.1464C133.276 73.0307 133.24 72.9104 133.217 72.7872L132.824 70.7111C132.816 70.6677 132.808 70.6249 132.8 70.5814C132.767 70.4004 132.669 69.8661 132.568 69.3301C132.442 68.6588 132.211 68.0123 131.895 67.4063L131.771 67.1683C131.584 66.8091 131.356 66.4731 131.09 66.1673ZM132.178 79.024L134.704 81.5505C135.263 82.1091 135.739 82.7449 136.117 83.4384L136.494 84.1294C136.741 84.5832 136.901 85.0794 136.965 85.5923C137.046 86.2405 136.972 86.8987 136.749 87.5127L136.447 88.3437C136.288 88.7816 136.089 89.2044 135.855 89.6069L134.907 91.2317C134.747 91.5065 134.551 91.7595 134.327 91.9845C133.828 92.4826 133.483 93.1124 133.33 93.8L133.275 94.0477C133.232 94.2394 132.964 94.2532 132.902 94.0669C132.617 93.2099 132.063 92.4674 131.323 91.9493L130.259 91.205L128.056 89.8831L127.628 89.6382C126.891 89.2172 126.232 88.6725 125.679 88.0282L125.606 87.9431C125.331 87.6217 125.089 87.2733 124.883 86.9033C124.363 85.9679 124.091 84.9155 124.091 83.8454V83.0536L124.531 78.2069C124.531 77.0449 124.287 75.8958 123.815 74.8339L123.65 74.4617C123.091 73.484 122.129 72.8032 121.021 72.6018L120.345 72.4789H121.991C123.693 72.4789 125.259 73.4084 126.073 74.9023L126.127 75.0306C126.825 76.7052 127.396 78.4297 127.836 80.1897L128.717 83.0536L129.206 84.2765C129.466 84.9256 129.83 85.5275 130.285 86.0583L130.45 86.25C130.762 86.6138 131.127 86.9281 131.533 87.182L132.334 87.6822C132.562 87.8248 132.825 87.9004 133.094 87.9004C133.53 87.9004 133.943 87.7022 134.215 87.3617L134.294 87.2636C134.534 86.9628 134.665 86.589 134.665 86.2037V85.6573C134.665 85.3913 134.633 85.1262 134.568 84.8681L134.422 84.2845C134.291 83.759 134.107 83.2479 133.875 82.7589L132.117 79.0672C132.098 79.0287 132.148 78.9938 132.178 79.024ZM153.053 93.1519L154.179 96.5293C154.196 96.5812 154.122 96.6118 154.097 96.5629L152.143 92.655C151.869 92.1059 151.552 91.5791 151.195 91.0796L151.117 90.9699C150.792 90.516 150.431 90.0897 150.037 89.6953L149.744 89.4029C149.6 89.2587 149.446 89.125 149.283 89.0027L149.097 88.863C148.799 88.6399 148.463 88.4731 148.106 88.371L147.749 88.2689C147.331 88.1496 146.886 88.1724 146.483 88.3336C146.168 88.4594 145.892 88.6645 145.68 88.9289L144.508 90.3945C144.398 90.5314 144.179 90.4836 144.137 90.3135L143.989 89.7217C143.865 89.2273 143.61 88.7757 143.249 88.4153L143.053 88.2191C142.821 87.9871 142.53 87.8225 142.212 87.743C141.952 87.678 141.681 87.6715 141.418 87.7241L141.373 87.733C140.946 87.8184 140.559 88.04 140.268 88.3645L137.053 91.9583C137.036 91.9774 137.005 91.9587 137.014 91.9346L137.631 90.2879L138.513 88.0849L139.381 86.0008C139.535 85.6314 139.614 85.2351 139.614 84.8349C139.614 84.3643 139.505 83.9002 139.294 83.4793L138.598 82.0874C138.395 81.6801 138.22 81.2589 138.076 80.8269L137.883 80.2487C137.571 79.3104 137.411 78.3278 137.411 77.3387C137.411 77.3254 137.429 77.3207 137.435 77.3322L138.292 78.832L140.055 81.2554L142.167 83.544C142.518 83.9244 142.936 84.238 143.399 84.4695C143.81 84.6753 144.253 84.8135 144.708 84.8785L144.791 84.8904C145.302 84.9634 145.798 85.1182 146.259 85.3489L146.895 85.667C147.474 85.9563 148.02 86.3058 148.525 86.7099L148.999 87.089C149.644 87.6046 150.232 88.1867 150.755 88.8255C151.547 89.7943 152.18 90.8833 152.63 92.0515L153.053 93.1519ZM155.846 100.976L156.384 96.4923V91.6456V90.8848C156.384 89.0457 156.222 87.2101 155.898 85.3996C155.489 83.1085 154.825 80.8703 153.918 78.7269L152.859 76.2241C151.542 73.7361 149.936 71.4123 148.073 69.3014L147.572 68.7337L143.606 64.9885L143.218 64.6836C141.424 63.2736 139.518 62.0112 137.52 60.9087L135.963 60.0499C134.746 59.3782 133.47 58.819 132.151 58.3793H133.693L139.2 58.4895L146.47 58.5996L150.49 58.4778C152.651 58.4123 155.541 57.9599 157.654 57.4984C159.501 57.0948 160.576 56.7126 162.302 55.9406C162.653 55.7839 162.973 55.6356 163.214 55.5153C165.82 54.0676 168.042 52.0182 169.696 49.5378L173.128 43.3985L175.841 37.4289C176.234 36.5636 176.71 35.7272 177.251 34.9458C178.018 33.8371 178.933 32.8201 179.957 31.9425C181.273 31.0652 182.7 30.3673 184.201 29.8671L187.227 28.8582L187.201 28.8584C187.131 28.8592 187.061 28.8672 186.417 28.9409C185.981 28.9908 185.28 29.0711 184.137 29.1998C182.259 29.4112 180.45 30.0467 178.856 31.0613C178.268 31.5019 177.049 32.4272 176.873 32.6035C176.697 32.7797 175.477 34.2925 174.89 35.0268L173.128 37.8908L170.704 42.7376L168.859 45.6904C168.281 46.4828 167.62 46.2625 167.62 46.2625C167.62 46.2625 167.282 46.1684 167.066 45.9958L166.782 45.7687C166.465 45.5151 166.223 45.1806 166.08 44.8004C165.649 43.6504 165.51 42.4116 165.382 41.1901L165.232 39.7716C165.212 39.5791 165.05 39.433 164.856 39.433C164.671 39.433 164.513 39.5666 164.483 39.749L164.286 40.9286C164.159 41.6909 163.936 42.434 163.622 43.1402L163.214 44.0594L162.112 46.2625L161.197 47.6353C160.634 48.4804 159.988 49.2679 159.27 49.9862C158.669 50.587 158.02 51.1371 157.328 51.6309L155.283 53.092L153.772 53.9669C151.995 54.9954 150.101 55.8059 148.13 56.3807C146.586 56.8309 145.004 57.1342 143.403 57.2866L136.557 57.9387L132.151 58.3793L138.98 62.7854L143.606 66.751C145.507 68.6518 147.146 70.7976 148.48 73.1316L149.114 74.2414L150.212 76.1622C150.651 76.9317 150.951 77.7732 151.097 78.6475L151.146 79.0421C151.245 79.8293 150.755 80.5707 149.992 80.7887C149.848 80.8298 149.699 80.8506 149.55 80.8506H149.469C149.234 80.8506 149.001 80.8127 148.778 80.7384L148.655 80.6974C148.521 80.6527 148.39 80.5986 148.263 80.5354L148.147 80.4773C147.479 80.1433 146.898 79.6582 146.45 79.0606L145.149 77.3257L141.742 72.5166C141.677 72.4248 141.534 72.4937 141.564 72.6019L142.725 76.6648C143.309 78.4158 144.171 80.0612 145.279 81.5378L145.589 81.9521L145.844 82.2709C146.258 82.7881 146.766 83.2224 147.341 83.551C147.786 83.8055 148.267 83.9935 148.767 84.1089L149.236 84.2172C150.312 84.4654 151.306 84.9857 152.122 85.7283C152.896 86.4314 153.487 87.3122 153.844 88.2946L154.181 89.2222L154.842 92.3065L155.283 96.0517L155.647 100.972C155.656 101.092 155.832 101.096 155.846 100.976ZM136.041 39.0943L136.984 40.8022L137.157 41.1396C137.172 41.1688 137.145 41.2021 137.113 41.1942C136.609 41.0713 136.132 40.8562 135.706 40.56C135.337 40.3029 134.723 39.8053 134.431 39.4639L133.814 38.7419L133.305 37.9971C133.082 37.6702 132.887 37.3244 132.725 36.9637C132.49 36.4421 132.294 35.8123 132.213 35.2466C132.123 34.6253 132.13 33.9941 132.234 33.375C132.293 33.0199 132.394 32.596 132.51 32.2552C132.662 31.8114 132.876 31.3261 133.109 30.919L133.365 30.4731C133.706 29.9653 134.132 29.5188 134.623 29.1526L134.91 28.9386C135.438 28.6129 136.044 28.4363 136.665 28.4278L136.713 28.4271C136.72 28.4271 136.728 28.4269 136.738 28.4264L136.773 28.4246C136.977 28.4138 137.568 28.3826 138.252 28.6468C138.952 28.9173 139.189 29.1484 139.724 29.6703L139.731 29.6769C139.942 29.8829 140.107 30.061 140.318 30.4731C140.372 30.5781 140.437 30.7412 140.488 30.9036C140.573 31.1721 140.491 31.4495 140.332 31.6822C140.214 31.854 140.06 31.9978 139.88 32.1033L139.097 32.5612L137.829 33.1793L136.959 33.7445C136.696 33.9159 136.464 34.1304 136.272 34.379C136.045 34.6749 135.88 35.0135 135.787 35.3744L135.639 35.9511C135.55 36.2994 135.505 36.6575 135.505 37.017C135.505 37.7432 135.689 38.4576 136.041 39.0943ZM186.787 2.64177L180.398 4.40422L175.551 6.38698L169.382 9.03066L166.878 10.3331C164.886 11.3689 163.05 12.6815 161.426 14.2317L160.092 15.5055C159.386 16.1793 158.777 16.9478 158.282 17.7889L157.607 18.9371C157.095 19.8074 156.825 20.7987 156.825 21.8084L158.518 19.6074C158.857 19.1664 159.237 18.7584 159.653 18.3888L160.621 17.5282C160.878 17.2998 161.179 17.1259 161.505 17.0172L161.924 16.8775C162.579 16.6591 163.302 16.8297 163.791 17.3182C163.991 17.5184 164.142 17.7625 164.231 18.0311L164.487 18.7976C164.665 19.3326 164.756 19.8929 164.756 20.4568V20.6128C164.756 21.4026 164.605 22.1852 164.312 22.9185L164.205 23.185C163.986 23.7342 163.703 24.2562 163.364 24.7407L163.2 24.9756C162.628 25.7924 161.891 26.4797 161.036 26.9927C160.435 27.3532 159.784 27.6228 159.104 27.7927L157.486 28.1973L155.723 28.6379L158.587 28.8582H159.934C160.503 28.8582 161.07 28.7885 161.622 28.6505L161.806 28.6043C162.302 28.4804 162.778 28.2891 163.221 28.0357C163.799 27.7055 164.313 27.2746 164.739 26.7632L165.197 26.2146L166.078 25.3333L166.272 25.1396C166.847 24.5644 167.648 24.2744 168.458 24.348C169.218 24.4171 169.965 24.5879 170.679 24.8558L171.365 25.113L175.11 26.8755C176.432 27.5364 178.195 27.5364 178.856 27.5364H179.957H183.041H185.244C184.073 27.0972 182.856 26.792 181.616 26.6267L181.47 26.6073C180.609 26.4925 179.758 26.3151 178.923 26.0766L178.635 25.9943L177.534 25.5536C177.24 25.4068 176.652 25.069 176.652 24.8927C176.652 24.7826 176.597 24.6724 176.542 24.5623C176.487 24.4521 176.432 24.342 176.432 24.2318V23.5709V22.91C176.432 22.6227 176.517 22.3418 176.677 22.1027L176.764 21.9713C176.836 21.863 176.919 21.7621 177.011 21.67L179.829 18.8522C180.06 18.6215 180.252 18.3551 180.398 18.0632C179.821 18.0632 179.255 18.2199 178.761 18.5166L175.777 20.3068C175.335 20.5724 174.859 20.7787 174.363 20.9205C173.836 21.0711 173.29 21.1475 172.742 21.1475H171.806H171.145C170.901 21.1475 170.704 20.9502 170.704 20.7069V20.2663V19.884C170.704 19.7007 170.747 19.5201 170.829 19.3562C170.892 19.2296 170.977 19.1161 171.081 19.0196C172.147 18.0253 174.009 16.2482 174.009 16.0805C174.009 15.9042 179.443 11.7478 182.16 9.69158L172.569 14.3892L172.522 14.4121C171.737 14.7969 170.916 15.1992 170.043 15.1992H168.281H167.4C167.278 15.1992 167.179 15.1006 167.179 14.9789V14.4203C167.179 14.2138 167.261 14.016 167.407 13.8699L169.382 11.8946C169.735 11.5422 171.439 10.5728 172.246 10.1322L176.652 7.48851L179.737 6.16667L183.041 4.62453L185.244 3.523L186.787 2.64177ZM139.876 7.01225L140.522 6.82759L137.658 8.36974L135.675 9.47127L135.435 9.60882C133.545 10.6888 131.779 11.9725 130.168 13.4368C128.555 15.0491 127.092 16.8032 125.794 18.6779L125.762 18.7241L123.999 21.3678L121.356 26.8755L120.375 28.9658C120.298 29.1786 120.137 29.3508 119.93 29.4428C119.724 29.5343 119.527 29.4655 119.353 29.3287C118.778 28.8762 118.789 28.0334 118.932 27.3161L119.152 26.6552C119.455 25.9493 119.688 25.2826 119.914 24.6348C120.182 23.8674 120.441 23.1266 120.795 22.3789C121.461 20.9741 122.266 19.6398 123.199 18.3962L123.546 17.9337C124.58 16.5541 125.736 15.2699 127 14.0965L128.185 12.9962L129.491 12.053C131.26 10.7755 133.149 9.67437 135.133 8.76527C136.667 8.06198 138.253 7.47596 139.876 7.01225ZM180.351 0.840929L192.515 0.701172L178.194 3.12446L169.959 5.27294C165.324 6.482 160.803 8.09223 156.448 10.0854L156.101 10.2442C152.038 12.1035 148.142 14.308 144.456 16.8335L143.376 17.5738C139.866 19.9785 136.602 22.7228 133.63 25.7671C130.595 28.8761 127.88 32.2824 125.527 35.9346L122.677 40.3563L120.254 40.3563C121.277 36.2633 122.857 32.3301 124.951 28.667L125.243 28.1555C127.05 24.9929 129.249 22.0711 131.789 19.4595C134.369 16.8052 137.28 14.4931 140.449 12.5796L143.154 10.9462C145.949 9.25886 148.862 7.77723 151.872 6.51308C156.19 4.69957 160.686 3.34207 165.286 2.46266L166.469 2.2365C171.046 1.36149 175.691 0.894466 180.351 0.840929ZM152.419 18.0632L153.961 16.0805L153.651 16.1691C152.835 16.402 152.066 16.7729 151.376 17.2657L151.334 17.296C151.03 17.5134 150.744 17.7555 150.479 18.0199L150.343 18.156C149.822 18.6769 149.406 19.2923 149.116 19.9693C148.968 20.3134 148.854 20.6709 148.776 21.0369L148.538 22.1454C148.335 23.0941 148.211 24.058 148.168 25.0273L147.849 32.2086C147.811 33.0576 147.696 33.9013 147.505 34.7293L147.373 35.3008C147.213 35.9969 146.97 36.6716 146.65 37.3106C146.384 37.843 146.066 38.3478 145.701 38.8176L144.708 40.0939C143.683 41.2656 142.538 42.3273 141.292 43.2615L140.522 43.8391L137.879 45.3812L133.252 47.5843L126.553 50.0966C126.504 50.1149 126.522 50.188 126.574 50.1816L129.727 49.7874L133.913 48.6858L138.76 47.1437L142.725 45.3812L144.037 44.6747C145.068 44.1196 146.029 43.4433 146.899 42.66C147.494 42.1251 148.043 41.5426 148.543 40.9182L149.555 39.6533L150.516 38.2115C150.756 37.8517 151.031 37.5165 151.336 37.2108C151.906 36.6409 152.576 36.1808 153.313 35.8535L153.507 35.7669C153.954 35.5682 154.427 35.4324 154.911 35.3632L155.229 35.3178C155.557 35.271 155.89 35.2748 156.216 35.3292C156.76 35.4199 157.271 35.6482 157.702 35.9926L158.074 36.2906C158.103 36.314 158.147 36.2932 158.147 36.2557V36.1193C158.147 35.8342 158.092 35.5518 157.986 35.2871C157.805 34.8324 157.479 34.4498 157.059 34.1978L156.963 34.1402C156.725 33.9978 156.467 33.8947 156.197 33.8347L154.622 33.4847L153.286 33.1031C153.149 33.0638 153.015 33.0119 152.888 32.948L152.714 32.8614C152.379 32.694 152.108 32.4224 151.941 32.0876C151.82 31.8473 151.758 31.5824 151.758 31.3138V30.8083C151.758 30.3922 151.825 29.9788 151.956 29.5841L152.031 29.3592C152.143 29.026 152.286 28.7047 152.46 28.3998L153.08 27.3161L154.479 25.1164C154.506 25.0744 154.454 25.0273 154.415 25.0584L153.52 25.774L153.217 26.0017C152.842 26.2829 152.386 26.4349 151.917 26.4349H151.732C151.46 26.4349 151.092 26.2924 150.876 26.1282C150.529 25.8636 150.436 25.5226 150.436 25.0858V24.0115V23.6504C150.436 22.5795 150.64 21.5179 151.038 20.5235C151.224 20.0592 151.451 19.6124 151.716 19.1883L152.419 18.0632ZM179.251 28.8595L177.356 29.3334C175.288 29.8503 173.333 30.7418 171.587 31.9639L171.258 32.1942C170.304 32.8619 169.436 33.6445 168.674 34.5244L167.675 35.6769C167.201 36.2238 166.831 36.8529 166.584 37.533L166.372 38.1171C166.178 38.6492 166.119 39.2207 166.199 39.7812L166.229 39.9931C166.274 40.3076 166.381 40.61 166.545 40.8825L166.666 41.0838C166.855 41.4 167.145 41.6459 167.487 41.7829C167.856 41.9303 168.266 41.9429 168.643 41.8174C169.111 41.6613 169.487 41.3068 169.671 40.8484L169.726 40.7091C169.79 40.5501 169.833 40.3837 169.854 40.2138L169.983 39.1861C170.167 37.7103 170.677 36.2939 171.475 35.0391L171.805 34.5214L171.874 34.4231C172.845 33.0355 174.098 31.8679 175.55 30.9965L179.278 28.9257C179.314 28.9053 179.292 28.8493 179.251 28.8595ZM99.4822 73.3602V74.2891L100.674 74.494V83.6449L99.4822 83.8497V84.7713H103.308V83.8497L102.116 83.6449V73.3602H99.4822ZM72.131 83.067L71.159 83.4495V84.3307H74.7644V83.4495L73.572 83.067V79.3876H74.8156L78.2088 83.0536L77.3276 83.4943V84.3307H81.0728V83.4943L79.9713 83.0536L75.9786 78.6927L79.2337 74.6549L80.2359 74.472V73.543H76.8564V74.472L77.6537 74.5744L74.6766 78.2538H73.572V74.6768L74.7644 74.472V73.543H70.9387V74.472L72.131 74.6768V83.067ZM87.4931 84.1935C87.5175 84.3642 87.5516 84.5568 87.5955 84.7713H89.4827V83.8497L88.8975 83.7692C88.8878 83.6717 88.8805 83.5742 88.8756 83.4766V83.1767V79.3657C88.8756 78.5123 88.5976 77.8564 88.0417 77.398C87.4858 76.9396 86.7592 76.7104 85.8619 76.7104C85.2621 76.7104 84.7061 76.7981 84.1941 76.9737C83.682 77.1444 83.2456 77.3736 82.8847 77.6613V79.1974H83.9966L84.1502 78.3635C84.3209 78.2026 84.5428 78.0758 84.8158 77.9832C85.0938 77.8905 85.4132 77.8442 85.7741 77.8442C86.2959 77.8442 86.7031 77.9807 86.9957 78.2538C87.2883 78.522 87.4346 78.8878 87.4346 79.351V80.2727H85.9497C84.8914 80.2727 84.0575 80.4775 83.448 80.8872C82.8433 81.2919 82.5409 81.8698 82.5409 82.6208C82.5409 83.3523 82.7555 83.9204 83.1846 84.3251C83.6138 84.725 84.2404 84.925 85.0646 84.925C85.5376 84.925 85.9814 84.8079 86.3959 84.5739C86.8152 84.3349 87.1639 84.0374 87.4419 83.6814C87.4516 83.8521 87.4687 84.0228 87.4931 84.1935ZM86.586 83.3742C86.191 83.6034 85.7546 83.718 85.2767 83.718C84.8427 83.718 84.5184 83.6278 84.3038 83.4474C84.0892 83.262 83.982 82.9963 83.982 82.65C83.982 82.2599 84.1526 81.9283 84.494 81.6552C84.8402 81.3821 85.3084 81.2456 85.8984 81.2456H87.4346V82.5476C87.2639 82.8695 86.981 83.145 86.586 83.3742ZM90.5068 86.8853L91.6991 86.6805V77.9905L90.5068 77.7857V76.8567H92.9353L93.067 77.8222C93.3304 77.4614 93.6498 77.1858 94.0253 76.9957C94.4056 76.8055 94.8445 76.7104 95.3419 76.7104C96.3221 76.7104 97.0829 77.1005 97.6242 77.8807C98.1704 78.6561 98.4434 79.6826 98.4434 80.9603V81.1139C98.4434 82.255 98.1704 83.1767 97.6242 83.8789C97.078 84.5763 96.3246 84.925 95.3639 84.925C94.8762 84.925 94.4471 84.8445 94.0765 84.6836C93.7107 84.5178 93.3986 84.2739 93.1402 83.9521V86.6805L94.3325 86.8853V87.8143H90.5068V86.8853ZM96.9951 80.9603C96.9951 80.0581 96.8195 79.3193 96.4684 78.7439C96.1173 78.1685 95.5955 77.8807 94.903 77.8807C94.4934 77.8807 94.1423 77.9734 93.8497 78.1587C93.5571 78.344 93.3206 78.5976 93.1402 78.9195V82.7744C93.3206 83.1011 93.5547 83.3547 93.8424 83.5351C94.135 83.7107 94.4934 83.7985 94.9177 83.7985C95.6004 83.7985 96.1173 83.5498 96.4684 83.0524C96.8195 82.5549 96.9951 81.9088 96.9951 81.1139V80.9603ZM109.569 84.7713C109.525 84.5568 109.491 84.3642 109.467 84.1935C109.443 84.0228 109.425 83.8521 109.416 83.6814C109.138 84.0374 108.789 84.3349 108.37 84.5739C107.955 84.8079 107.511 84.925 107.038 84.925C106.214 84.925 105.588 84.725 105.158 84.3251C104.729 83.9204 104.515 83.3523 104.515 82.6208C104.515 81.8698 104.817 81.2919 105.422 80.8872C106.031 80.4775 106.865 80.2727 107.924 80.2727H109.408V79.351C109.408 78.8878 109.262 78.522 108.97 78.2538C108.677 77.9807 108.27 77.8442 107.748 77.8442C107.387 77.8442 107.068 77.8905 106.79 77.9832C106.517 78.0758 106.295 78.2026 106.124 78.3635L105.97 79.1974H104.859V77.6613C105.219 77.3736 105.656 77.1444 106.168 76.9737C106.68 76.7981 107.236 76.7104 107.836 76.7104C108.733 76.7104 109.46 76.9396 110.016 77.398C110.571 77.8564 110.849 78.5123 110.849 79.3657V83.1767V83.4766C110.854 83.5742 110.862 83.6717 110.871 83.7692L111.457 83.8497V84.7713H109.569ZM107.251 83.718C107.728 83.718 108.165 83.6034 108.56 83.3742C108.955 83.145 109.238 82.8695 109.408 82.5476V81.2456H107.872C107.282 81.2456 106.814 81.3821 106.468 81.6552C106.126 81.9283 105.956 82.2599 105.956 82.65C105.956 82.9963 106.063 83.262 106.278 83.4474C106.492 83.6278 106.817 83.718 107.251 83.718ZM113.636 83.6449L112.444 83.8497V84.7713H116.27V83.8497L115.077 83.6449V78.9999C115.268 78.6537 115.521 78.3806 115.838 78.1807C116.16 77.9807 116.528 77.8807 116.943 77.8807C117.508 77.8807 117.928 78.027 118.201 78.3196C118.479 78.6122 118.618 79.1072 118.618 79.8046V83.6449L117.426 83.8497V84.7713H121.251V83.8497L120.059 83.6449V79.7753C120.059 78.7317 119.825 77.9612 119.357 77.4638C118.888 76.9615 118.228 76.7104 117.374 76.7104C116.867 76.7104 116.414 76.8274 116.014 77.0615C115.619 77.2907 115.29 77.615 115.026 78.0344L114.924 76.8567H112.444V77.7857L113.636 77.9905V83.6449ZM76.7727 94.9962L77.5792 94.8577V88.6674L76.7727 88.5288V87.9004H78.554V90.9782C78.7388 90.7209 78.9648 90.5213 79.232 90.3795C79.4992 90.2376 79.7961 90.1667 80.1227 90.1667C80.6966 90.1667 81.142 90.3382 81.4587 90.6813C81.7754 91.0244 81.9337 91.5522 81.9337 92.2648V94.8577L82.7403 94.9962V95.6197H80.1523V94.9962L80.9589 94.8577V92.2549C80.9589 91.8128 80.8632 91.4863 80.6719 91.2751C80.4839 91.064 80.2018 90.9584 79.8258 90.9584C79.5585 90.9584 79.3144 91.0228 79.0934 91.1514C78.8757 91.2768 78.6959 91.4483 78.554 91.666V94.8577L79.3606 94.9962V95.6197H76.7727V94.9962ZM69.1762 94.9962L69.9828 94.8577V89.182L69.1762 89.0434V88.415H71.7642V89.0434L70.9576 89.182V91.6017H71.7048L73.7188 89.1127L73.1794 89.0434V88.415H75.4655V89.0434L74.7876 89.1672L72.5856 91.8986L74.9905 94.8725L75.6684 94.9962V95.6197H73.3031V94.9962L73.8524 94.927L71.7988 92.3687H70.9576V94.8577L71.7642 94.9962V95.6197H69.1762V94.9962ZM87.0807 95.4911C87.3479 95.336 87.5657 95.115 87.7339 94.828L87.7982 95.6197H89.2877V94.9962L88.6741 94.8577V90.2657H87.6993H86.9818V90.8941L87.6993 91.0327V94.1253C87.5838 94.3827 87.4123 94.5822 87.1847 94.7241C86.9603 94.8626 86.675 94.9319 86.3286 94.9319C85.9723 94.9319 85.7101 94.8247 85.5418 94.6103C85.3736 94.3958 85.2895 94.0033 85.2895 93.4326V90.2657H84.3146H83.7011V90.8941L84.3146 91.0327V93.4227C84.3146 94.2111 84.4779 94.7917 84.8045 95.1645C85.1311 95.5373 85.5847 95.7236 86.1653 95.7236C86.5117 95.7236 86.8168 95.6461 87.0807 95.4911ZM90.5156 90.8941V90.2657H92.1931L92.2871 91.0426C92.4389 90.7688 92.6253 90.5543 92.8463 90.3993C93.0706 90.2442 93.3263 90.1667 93.6133 90.1667C93.6891 90.1667 93.7667 90.1733 93.8458 90.1865C93.9283 90.1964 93.991 90.2079 94.0339 90.2211L93.9052 91.1267L93.351 91.097C93.0937 91.097 92.8776 91.158 92.7028 91.2801C92.5279 91.3988 92.3927 91.5671 92.297 91.7848V94.8577L93.1036 94.9962V95.6197H90.5156V94.9962L91.3222 94.8577V91.0327L90.5156 90.8941ZM98.592 95.2288C98.6085 95.3443 98.6316 95.4746 98.6613 95.6197H99.938V94.9962L99.5421 94.9418C99.5355 94.8758 99.5306 94.8099 99.5273 94.7439V94.541V91.9629C99.5273 91.3856 99.3392 90.9419 98.9632 90.6318C98.5871 90.3218 98.0956 90.1667 97.4886 90.1667C97.0828 90.1667 96.7067 90.2261 96.3604 90.3448C96.014 90.4603 95.7187 90.6154 95.4746 90.81V91.8491H96.2268L96.3307 91.285C96.4461 91.1762 96.5962 91.0904 96.781 91.0277C96.969 90.965 97.1851 90.9337 97.4292 90.9337C97.7822 90.9337 98.0576 91.0261 98.2556 91.2108C98.4535 91.3922 98.5525 91.6396 98.5525 91.953V92.5765H97.548C96.8321 92.5765 96.268 92.7151 95.8556 92.9922C95.4466 93.266 95.2421 93.6569 95.2421 94.1649C95.2421 94.6598 95.3872 95.0441 95.6775 95.3179C95.9678 95.5884 96.3917 95.7236 96.9492 95.7236C97.2692 95.7236 97.5694 95.6445 97.8498 95.4861C98.1335 95.3245 98.3694 95.1232 98.5574 94.8824C98.564 94.9979 98.5756 95.1133 98.592 95.2288ZM97.9785 94.6746C97.7113 94.8297 97.416 94.9072 97.0927 94.9072C96.7991 94.9072 96.5797 94.8461 96.4346 94.7241C96.2894 94.5987 96.2169 94.4189 96.2169 94.1847C96.2169 93.9208 96.3323 93.6965 96.5632 93.5117C96.7975 93.327 97.1142 93.2346 97.5133 93.2346H98.5525V94.1154C98.437 94.3332 98.2457 94.5196 97.9785 94.6746ZM101.013 94.9962L101.819 94.8577V91.0327L101.013 90.8941V90.2657H102.695L102.759 90.9634C102.931 90.7094 103.152 90.5131 103.422 90.3745C103.693 90.236 104.006 90.1667 104.363 90.1667C104.719 90.1667 105.024 90.2492 105.278 90.4141C105.535 90.5791 105.728 90.8265 105.857 91.1564C106.025 90.8529 106.248 90.6121 106.525 90.4339C106.802 90.2558 107.125 90.1667 107.495 90.1667C108.042 90.1667 108.475 90.3547 108.791 90.7308C109.108 91.1036 109.266 91.666 109.266 92.4182V94.8577L110.073 94.9962V95.6197H107.48V94.9962L108.287 94.8577V92.4083C108.287 91.8805 108.196 91.5077 108.014 91.29C107.833 91.0689 107.564 90.9584 107.208 90.9584C106.868 90.9584 106.594 91.0788 106.386 91.3197C106.182 91.5572 106.063 91.8574 106.03 92.2202V94.8577L106.837 94.9962V95.6197H104.249V94.9962L105.055 94.8577V92.4083C105.055 91.9069 104.961 91.5407 104.773 91.3098C104.589 91.0755 104.32 90.9584 103.967 90.9584C103.67 90.9584 103.426 91.0195 103.234 91.1415C103.043 91.2636 102.896 91.4351 102.794 91.6561V94.8577L103.601 94.9962V95.6197H101.013V94.9962ZM114.666 95.2288C114.682 95.3443 114.705 95.4746 114.735 95.6197H116.012V94.9962L115.616 94.9418C115.609 94.8758 115.604 94.8099 115.601 94.7439V94.541V91.9629C115.601 91.3856 115.413 90.9419 115.037 90.6318C114.661 90.3218 114.169 90.1667 113.562 90.1667C113.156 90.1667 112.78 90.2261 112.434 90.3448C112.088 90.4603 111.792 90.6154 111.548 90.81V91.8491H112.3L112.404 91.285C112.52 91.1762 112.67 91.0904 112.855 91.0277C113.043 90.965 113.259 90.9337 113.503 90.9337C113.856 90.9337 114.131 91.0261 114.329 91.2108C114.527 91.3922 114.626 91.6396 114.626 91.953V92.5765H113.622C112.906 92.5765 112.342 92.7151 111.929 92.9922C111.52 93.266 111.316 93.6569 111.316 94.1649C111.316 94.6598 111.461 95.0441 111.751 95.3179C112.041 95.5884 112.465 95.7236 113.023 95.7236C113.343 95.7236 113.643 95.6445 113.923 95.4861C114.207 95.3245 114.443 95.1232 114.631 94.8824C114.638 94.9979 114.649 95.1133 114.666 95.2288ZM114.052 94.6746C113.785 94.8297 113.49 94.9072 113.166 94.9072C112.873 94.9072 112.653 94.8461 112.508 94.7241C112.363 94.5987 112.29 94.4189 112.29 94.1847C112.29 93.9208 112.406 93.6965 112.637 93.5117C112.871 93.327 113.188 93.2346 113.587 93.2346H114.626V94.1154C114.511 94.3332 114.319 94.5196 114.052 94.6746ZM117.136 94.9962L117.942 94.8577V91.0327L117.136 90.8941V90.2657H118.813L118.882 91.0623C119.061 90.7786 119.283 90.5593 119.55 90.4042C119.821 90.2459 120.128 90.1667 120.471 90.1667C121.048 90.1667 121.495 90.3366 121.812 90.6764C122.128 91.0129 122.287 91.5341 122.287 92.24V94.8577L123.093 94.9962V95.6197H120.505V94.9962L121.312 94.8577V92.2598C121.312 91.7881 121.218 91.4533 121.03 91.2553C120.845 91.0574 120.562 90.9584 120.179 90.9584C119.898 90.9584 119.649 91.0261 119.432 91.1613C119.217 91.2966 119.046 91.4813 118.917 91.7155V94.8577L119.724 94.9962V95.6197H117.136V94.9962ZM109.479 101.482L108.848 101.532V101.873H110.572V101.532L109.94 101.482V97.6825H108.848V98.0272L109.479 98.0775V101.482ZM109.479 96.482H109.94V95.8314H109.479V96.482ZM75.5668 101.873C75.5359 101.731 75.5139 101.608 75.501 101.505C75.4881 101.401 75.4817 101.297 75.4817 101.191C75.3268 101.411 75.1202 101.593 74.862 101.737C74.6039 101.882 74.3134 101.954 73.9907 101.954C73.5802 101.954 73.2627 101.848 73.0381 101.636C72.8134 101.425 72.7011 101.138 72.7011 100.777C72.7011 100.389 72.8677 100.082 73.2007 99.855C73.5337 99.6278 73.9855 99.5142 74.5561 99.5142H75.4817V98.9605C75.4817 98.661 75.3848 98.426 75.1912 98.2557C75.0002 98.0853 74.7317 98.0001 74.3857 98.0001C74.1534 98.0001 73.9404 98.0323 73.7467 98.0969C73.5557 98.1588 73.3956 98.244 73.2665 98.3525L73.2278 98.914H72.8444L72.8483 98.1085C73.0419 97.9588 73.273 97.8374 73.5415 97.7445C73.8126 97.6515 74.1004 97.6051 74.4051 97.6051C74.8672 97.6051 75.239 97.7225 75.5204 97.9575C75.8018 98.1924 75.9425 98.5293 75.9425 98.9682V101.028C75.9425 101.114 75.9438 101.196 75.9464 101.276C75.9515 101.354 75.9606 101.43 75.9735 101.505L76.3917 101.532V101.873H75.5668ZM74.0411 101.543C74.3767 101.543 74.6723 101.466 74.9279 101.311C75.1835 101.156 75.3681 100.956 75.4817 100.711V99.8705H74.5484C74.1275 99.8705 73.7906 99.9583 73.5376 100.134C73.2872 100.307 73.162 100.526 73.162 100.792C73.162 101.017 73.2394 101.199 73.3943 101.338C73.5518 101.475 73.7674 101.543 74.0411 101.543ZM79.2754 101.563C79.5826 101.563 79.8537 101.475 80.0886 101.299C80.3236 101.124 80.441 100.88 80.441 100.568H80.8515L80.8593 100.591C80.8722 100.978 80.7173 101.302 80.3946 101.563C80.0744 101.824 79.7014 101.954 79.2754 101.954C78.7074 101.954 78.2672 101.759 77.9548 101.369C77.6424 100.977 77.4863 100.473 77.4863 99.8589V99.6963C77.4863 99.087 77.6424 98.5861 77.9548 98.1937C78.2672 97.8013 78.7061 97.6051 79.2715 97.6051C79.5942 97.6051 79.8898 97.6657 80.1583 97.7871C80.4268 97.9084 80.645 98.0736 80.8128 98.2828L80.8322 99.1967H80.4372L80.3636 98.4532C80.2397 98.3137 80.0847 98.204 79.8989 98.124C79.7156 98.0414 79.5064 98.0001 79.2715 98.0001C78.8223 98.0001 78.4893 98.1614 78.2724 98.4841C78.0581 98.8043 77.951 99.2083 77.951 99.6963V99.8589C77.951 100.355 78.0581 100.763 78.2724 101.083C78.4867 101.403 78.821 101.563 79.2754 101.563ZM84.7614 101.299C84.5265 101.475 84.2554 101.563 83.9482 101.563C83.4938 101.563 83.1595 101.403 82.9452 101.083C82.7309 100.763 82.6238 100.355 82.6238 99.8589V99.6963C82.6238 99.2083 82.7309 98.8043 82.9452 98.4841C83.1621 98.1614 83.4951 98.0001 83.9443 98.0001C84.1792 98.0001 84.3884 98.0414 84.5717 98.124C84.7576 98.204 84.9125 98.3137 85.0364 98.4532L85.11 99.1967H85.505L85.4856 98.2828C85.3178 98.0736 85.0996 97.9084 84.8311 97.7871C84.5626 97.6657 84.267 97.6051 83.9443 97.6051C83.3789 97.6051 82.94 97.8013 82.6276 98.1937C82.3152 98.5861 82.1591 99.087 82.1591 99.6963V99.8589C82.1591 100.473 82.3152 100.977 82.6276 101.369C82.94 101.759 83.3802 101.954 83.9482 101.954C84.3742 101.954 84.7472 101.824 85.0674 101.563C85.3901 101.302 85.545 100.978 85.5321 100.591L85.5243 100.568H85.1138C85.1138 100.88 84.9964 101.124 84.7614 101.299ZM88.6791 101.954C88.1524 101.954 87.7161 101.762 87.3701 101.377C87.0242 100.99 86.8512 100.498 86.8512 99.9015V99.6885C86.8512 99.0896 87.0229 98.5926 87.3663 98.1976C87.7122 97.8026 88.1292 97.6051 88.6171 97.6051C89.1309 97.6051 89.5349 97.7677 89.8292 98.093C90.1236 98.4183 90.2707 98.852 90.2707 99.3942V99.7892H87.3121V99.9015C87.3121 100.371 87.4373 100.766 87.6877 101.087C87.9407 101.404 88.2712 101.563 88.6791 101.563C88.9657 101.563 89.2109 101.523 89.4149 101.443C89.6188 101.363 89.7931 101.248 89.9377 101.098L90.1352 101.416C89.9777 101.581 89.7789 101.713 89.5388 101.811C89.2987 101.906 89.0121 101.954 88.6791 101.954ZM88.6171 98.0001C88.2763 98.0001 87.9885 98.1317 87.7535 98.3951C87.5212 98.6558 87.3856 98.9837 87.3469 99.3787L87.3547 99.3981H89.8099V99.2819C89.8099 98.9179 89.7027 98.6132 89.4884 98.368C89.2742 98.1227 88.9837 98.0001 88.6171 98.0001ZM94.1961 98.976H94.5756L94.5563 98.1279C94.3962 97.9678 94.1884 97.8413 93.9328 97.7484C93.6798 97.6528 93.3996 97.6051 93.0924 97.6051C92.6484 97.6051 92.2908 97.7161 92.0197 97.9381C91.7486 98.1576 91.6131 98.4273 91.6131 98.7475C91.6131 99.0702 91.7331 99.3219 91.9732 99.5026C92.2159 99.6808 92.5864 99.8241 93.0847 99.9325C93.5055 100.025 93.7959 100.145 93.956 100.293C94.1187 100.44 94.2 100.611 94.2 100.808C94.2 101.017 94.1032 101.195 93.9095 101.342C93.7159 101.489 93.4513 101.563 93.1157 101.563C92.9091 101.563 92.7103 101.536 92.5193 101.482C92.3308 101.425 92.1746 101.334 92.0507 101.21L91.9849 100.614H91.6092V101.458C91.7951 101.616 92.0146 101.738 92.2676 101.826C92.5232 101.911 92.8058 101.954 93.1157 101.954C93.5804 101.954 93.9534 101.847 94.2348 101.633C94.5188 101.416 94.6608 101.133 94.6608 100.784C94.6608 100.454 94.5369 100.193 94.289 100.002C94.0412 99.8086 93.6681 99.6562 93.1699 99.5452C92.7336 99.4497 92.4418 99.3387 92.2947 99.2122C92.1501 99.0857 92.0778 98.9256 92.0778 98.732C92.0778 98.5358 92.1617 98.3654 92.3295 98.2208C92.4999 98.0736 92.7542 98.0001 93.0924 98.0001C93.3222 98.0001 93.5249 98.0336 93.7004 98.1008C93.8786 98.1679 94.0257 98.2621 94.1419 98.3835L94.1961 98.976ZM98.9851 98.976H98.6056L98.5514 98.3835C98.4352 98.2621 98.288 98.1679 98.1099 98.1008C97.9343 98.0336 97.7317 98.0001 97.5019 98.0001C97.1637 98.0001 96.9094 98.0736 96.739 98.2208C96.5712 98.3654 96.4873 98.5358 96.4873 98.732C96.4873 98.9256 96.5596 99.0857 96.7041 99.2122C96.8513 99.3387 97.143 99.4497 97.5793 99.5452C98.0776 99.6562 98.4507 99.8086 98.6985 100.002C98.9464 100.193 99.0703 100.454 99.0703 100.784C99.0703 101.133 98.9283 101.416 98.6443 101.633C98.3629 101.847 97.9898 101.954 97.5251 101.954C97.2153 101.954 96.9326 101.911 96.677 101.826C96.424 101.738 96.2046 101.616 96.0187 101.458V100.614H96.3943L96.4602 101.21C96.5841 101.334 96.7403 101.425 96.9287 101.482C97.1198 101.536 97.3186 101.563 97.5251 101.563C97.8607 101.563 98.1254 101.489 98.319 101.342C98.5126 101.195 98.6094 101.017 98.6094 100.808C98.6094 100.611 98.5281 100.44 98.3655 100.293C98.2054 100.145 97.915 100.025 97.4941 99.9325C96.9959 99.8241 96.6254 99.6808 96.3827 99.5026C96.1426 99.3219 96.0226 99.0702 96.0226 98.7475C96.0226 98.4273 96.1581 98.1576 96.4292 97.9381C96.7003 97.7161 97.0578 97.6051 97.5019 97.6051C97.8091 97.6051 98.0892 97.6528 98.3422 97.7484C98.5978 97.8413 98.8057 97.9678 98.9657 98.1279L98.9851 98.976ZM100.862 98.1976C100.524 98.5926 100.355 99.0986 100.355 99.7156V99.8434C100.355 100.463 100.524 100.97 100.862 101.365C101.2 101.758 101.651 101.954 102.213 101.954C102.771 101.954 103.218 101.758 103.553 101.365C103.892 100.97 104.061 100.463 104.061 99.8434V99.7156C104.061 99.0986 103.892 98.5926 103.553 98.1976C103.215 97.8026 102.766 97.6051 102.206 97.6051C101.648 97.6051 101.2 97.8026 100.862 98.1976ZM101.187 101.067C100.942 100.737 100.819 100.329 100.819 99.8434V99.7156C100.819 99.238 100.942 98.8327 101.187 98.4996C101.432 98.1666 101.772 98.0001 102.206 98.0001C102.639 98.0001 102.979 98.1666 103.224 98.4996C103.472 98.8327 103.596 99.238 103.596 99.7156V99.8434C103.596 100.329 103.473 100.737 103.228 101.067C102.983 101.398 102.645 101.563 102.213 101.563C101.775 101.563 101.432 101.398 101.187 101.067ZM106.255 97.6825L106.313 98.3796V98.4299C106.432 98.1718 106.593 97.9704 106.797 97.8258C107.004 97.6786 107.248 97.6051 107.529 97.6051C107.588 97.6051 107.645 97.6102 107.699 97.6206C107.756 97.6283 107.803 97.6373 107.839 97.6477L107.777 98.0814L107.432 98.0582C107.141 98.0582 106.9 98.1408 106.712 98.306C106.526 98.4687 106.393 98.6933 106.313 98.9798V101.482L106.944 101.532V101.873H105.221V101.532L105.852 101.482V98.0775L105.221 98.0272V97.6825H105.852H106.255ZM113.633 101.954C113.107 101.954 112.67 101.762 112.324 101.377C111.978 100.99 111.805 100.498 111.805 99.9015V99.6885C111.805 99.0896 111.977 98.5926 112.321 98.1976C112.666 97.8026 113.083 97.6051 113.571 97.6051C114.085 97.6051 114.489 97.7677 114.783 98.093C115.078 98.4183 115.225 98.852 115.225 99.3942V99.7892H112.266V99.9015C112.266 100.371 112.392 100.766 112.642 101.087C112.895 101.404 113.225 101.563 113.633 101.563C113.92 101.563 114.165 101.523 114.369 101.443C114.573 101.363 114.747 101.248 114.892 101.098L115.089 101.416C114.932 101.581 114.733 101.713 114.493 101.811C114.253 101.906 113.966 101.954 113.633 101.954ZM113.571 98.0001C113.231 98.0001 112.943 98.1317 112.708 98.3951C112.475 98.6558 112.34 98.9837 112.301 99.3787L112.309 99.3981H114.764V99.2819C114.764 98.9179 114.657 98.6132 114.443 98.368C114.228 98.1227 113.938 98.0001 113.571 98.0001ZM119.15 98.976H119.53L119.511 98.1279C119.35 97.9678 119.143 97.8413 118.887 97.7484C118.634 97.6528 118.354 97.6051 118.047 97.6051C117.603 97.6051 117.245 97.7161 116.974 97.9381C116.703 98.1576 116.567 98.4273 116.567 98.7475C116.567 99.0702 116.687 99.3219 116.928 99.5026C117.17 99.6808 117.541 99.8241 118.039 99.9325C118.46 100.025 118.75 100.145 118.91 100.293C119.073 100.44 119.154 100.611 119.154 100.808C119.154 101.017 119.057 101.195 118.864 101.342C118.67 101.489 118.406 101.563 118.07 101.563C117.863 101.563 117.665 101.536 117.474 101.482C117.285 101.425 117.129 101.334 117.005 101.21L116.939 100.614H116.563V101.458C116.749 101.616 116.969 101.738 117.222 101.826C117.477 101.911 117.76 101.954 118.07 101.954C118.535 101.954 118.908 101.847 119.189 101.633C119.473 101.416 119.615 101.133 119.615 100.784C119.615 100.454 119.491 100.193 119.243 100.002C118.995 99.8086 118.622 99.6562 118.124 99.5452C117.688 99.4497 117.396 99.3387 117.249 99.2122C117.104 99.0857 117.032 98.9256 117.032 98.732C117.032 98.5358 117.116 98.3654 117.284 98.2208C117.454 98.0736 117.708 98.0001 118.047 98.0001C118.276 98.0001 118.479 98.0336 118.655 98.1008C118.833 98.1679 118.98 98.2621 119.096 98.3835L119.15 98.976ZM69.9202 71.6241C69.5024 71.5087 69.5212 70.9099 69.9454 70.821L72.0459 70.3804C72.8247 70.2171 73.3824 69.5303 73.3824 68.7345V45.1903C73.3824 43.8117 72.2648 42.6942 70.8863 42.6942H70.7236C70.3097 42.6942 69.9742 42.3587 69.9742 41.9448C69.9742 41.5309 70.3097 41.1954 70.7236 41.1954H80.1603C80.5742 41.1954 80.9097 41.5309 80.9097 41.9448C80.9097 42.3587 80.5742 42.6942 80.1603 42.6942H79.9976C78.619 42.6942 77.5015 43.8117 77.5015 45.1903V54.6609L89.9855 43.5719C90.3308 43.2652 90.1138 42.6942 89.6519 42.6942H87.639C87.2252 42.6942 86.8897 42.3587 86.8897 41.9448C86.8897 41.5309 87.2252 41.1954 87.639 41.1954H95.8003C95.8318 41.1954 95.863 41.1974 95.8935 41.2012C95.924 41.1974 95.9551 41.1954 95.9867 41.1954H104.148C104.562 41.1954 104.897 41.5309 104.897 41.9448C104.897 42.3587 104.562 42.6942 104.148 42.6942H102.135C101.673 42.6942 101.456 43.2651 101.802 43.5719L114.285 54.6609V45.1903C114.285 43.8117 113.168 42.6942 111.789 42.6942H111.627C111.213 42.6942 110.877 42.3587 110.877 41.9448C110.877 41.5309 111.213 41.1954 111.627 41.1954H121.063C121.477 41.1954 121.813 41.5309 121.813 41.9448C121.813 42.3587 121.477 42.6942 121.063 42.6942H120.901C119.522 42.6942 118.405 43.8117 118.405 45.1903V68.7345C118.405 69.5303 118.962 70.2171 119.741 70.3804L121.842 70.821C122.266 70.9099 122.285 71.5087 121.867 71.6241C121.831 71.634 121.794 71.639 121.757 71.639H110.938C110.898 71.639 110.858 71.6329 110.819 71.6208C110.428 71.4985 110.452 70.9362 110.853 70.8488L112.925 70.397C113.719 70.2237 114.285 69.5203 114.285 68.7072V56.3971L112.375 54.6609L101.198 69.0532C100.823 69.5364 101.084 70.2457 101.683 70.3705L104.377 70.9318C104.723 71.0038 104.766 71.4794 104.439 71.6126C104.397 71.63 104.351 71.639 104.305 71.639H97.3184H94.4686H87.4824C87.4362 71.639 87.3904 71.63 87.3475 71.6126C87.0209 71.4794 87.0642 71.0038 87.4095 70.9318L90.1041 70.3705C90.7031 70.2457 90.9641 69.5364 90.5888 69.0532L79.4117 54.6609L77.5015 56.3971V68.7072C77.5015 69.5203 78.0679 70.2237 78.8624 70.397L80.9339 70.8488C81.3347 70.9362 81.3594 71.4986 80.9679 71.6208C80.9293 71.6329 80.8891 71.639 80.8487 71.639H70.0303C69.9931 71.639 69.9561 71.634 69.9202 71.6241ZM95.8935 69.8208L109.592 52.3291L100.554 44.3542C99.3413 43.2845 97.7801 42.6942 96.1633 42.6942H95.9867C95.9551 42.6942 95.9241 42.6922 95.8935 42.6884C95.863 42.6922 95.8318 42.6942 95.8003 42.6942H95.6237C94.0069 42.6942 92.4457 43.2845 91.2334 44.3542L82.1952 52.3291L95.8935 69.8208Z" fill="url(#paint0_linear)"/>
<defs>
<linearGradient id="paint0_linear" x1="96" y1="102" x2="96" y2="1" gradientUnits="userSpaceOnUse">
<stop offset="0.200519" stop-color="#240F20"/>
<stop offset="0.799192" stop-color="#4F1C44"/>
<stop offset="1" stop-color="#521F47"/>
</linearGradient>
</defs>
</svg>
