<svg width="285" height="169" viewBox="0 0 285 169" fill="none" xmlns="http://www.w3.org/2000/svg">
<path d="M102.35 109.084L102.609 108.787C103.21 108.094 103.947 107.532 104.773 107.136C105.402 106.833 106.074 106.631 106.766 106.537L108.292 106.327H112.327C112.327 106.327 112.328 106.326 112.327 106.325C111.12 105.631 109.776 105.208 108.388 105.087L107.744 105.03C106.888 104.955 106.026 104.969 105.173 105.072L104.778 105.119C103.942 105.219 103.12 105.414 102.328 105.7C101.173 106.115 100.094 106.719 99.1354 107.485L99.0642 107.543C98.609 107.907 98.1817 108.304 97.786 108.731L97.4901 109.051C96.1451 110.504 95.162 112.254 94.6209 114.158L94.5439 114.43C94.4102 114.901 94.3148 115.382 94.2583 115.868L94.1151 117.104C94.0226 117.905 94.0226 118.714 94.1151 119.515L94.2223 120.442C94.2994 121.104 94.6511 121.703 95.1914 122.092C95.5945 122.382 96.079 122.529 96.5695 122.451L96.6502 122.438C97.5063 122.299 98.2133 121.706 98.5466 120.905L98.6267 120.714C98.7074 120.521 98.7676 120.32 98.8065 120.115L99.4614 116.656C99.4754 116.583 99.4886 116.512 99.5018 116.439C99.5561 116.138 99.7191 115.248 99.8872 114.355C100.099 113.236 100.483 112.159 101.009 111.149L101.215 110.752C101.527 110.154 101.908 109.594 102.35 109.084Z" fill="#F1E2EE"/>
<path d="M96.3279 134.717L100.538 130.507C100.588 130.457 100.671 130.515 100.64 130.58L97.7104 136.731C97.3227 137.546 97.0166 138.397 96.7978 139.272L96.5548 140.245C96.4476 140.675 96.3925 141.117 96.3925 141.56V142.471C96.3925 143.113 96.6113 143.736 97.0122 144.237L97.1429 144.4C97.5973 144.967 98.2845 145.298 99.0106 145.298C99.4592 145.298 99.8983 145.172 100.279 144.934L101.612 144.101C102.289 143.678 102.897 143.154 103.417 142.548L103.691 142.228C104.449 141.344 105.057 140.341 105.489 139.259L106.304 137.222L107.772 132.45C108.506 129.517 109.458 126.644 110.62 123.853L110.709 123.639C112.067 121.151 114.676 119.601 117.511 119.601H120.253L119.128 119.806C117.282 120.142 115.678 121.276 114.747 122.905L114.472 123.526C113.685 125.295 113.279 127.21 113.279 129.146L114.013 137.222V138.541C114.013 140.324 113.559 142.078 112.693 143.636C112.351 144.253 111.946 144.834 111.487 145.369L111.366 145.511C110.446 146.584 109.348 147.492 108.12 148.193L107.405 148.602L103.734 150.804L101.963 152.044C100.729 152.908 99.8065 154.145 99.3307 155.573C99.2272 155.883 98.7808 155.861 98.7096 155.541L98.6178 155.129C98.3638 153.983 97.7875 152.933 96.9579 152.103C96.5827 151.728 96.2574 151.306 95.9902 150.849L94.411 148.141C94.0204 147.471 93.69 146.766 93.4242 146.036L92.9206 144.652C92.5491 143.629 92.425 142.532 92.5601 141.452C92.6673 140.598 92.9338 139.77 93.3464 139.014L93.9741 137.863C94.6048 136.707 95.397 135.648 96.3279 134.717Z" fill="#F1E2EE"/>
<path d="M65.754 154.048L63.8782 159.676C63.8496 159.763 63.9729 159.813 64.0133 159.732L67.2694 153.22C67.7268 152.305 68.2554 151.427 68.8501 150.595L68.98 150.413C69.5204 149.656 70.1224 148.946 70.7795 148.289L71.267 147.801C71.5071 147.561 71.7641 147.338 72.0357 147.135L72.3463 146.902C72.8418 146.53 73.4013 146.252 73.9967 146.082L74.5921 145.911C75.2881 145.713 76.0297 145.751 76.7014 146.019C77.2257 146.229 77.686 146.571 78.0384 147.011L79.992 149.454C80.1749 149.682 80.5398 149.602 80.6102 149.319L80.8569 148.333C81.0632 147.508 81.4891 146.757 82.0896 146.156L82.4163 145.829C82.8032 145.442 83.2871 145.168 83.8179 145.036C84.251 144.927 84.7026 144.917 85.1409 145.004L85.215 145.019C85.9264 145.161 86.5725 145.53 87.0564 146.071L92.4144 152.06C92.4431 152.091 92.4945 152.06 92.479 152.02L91.4505 149.276L89.9821 145.605L88.535 142.133C88.2788 141.517 88.1466 140.857 88.1466 140.19C88.1466 139.406 88.3294 138.632 88.6796 137.931L89.8397 135.612C90.1788 134.933 90.4696 134.231 90.7097 133.511L91.0305 132.548C91.5518 130.984 91.8175 129.347 91.8175 127.699C91.8175 127.677 91.7882 127.669 91.7772 127.688L90.3492 130.188L87.4124 134.226L83.892 138.039C83.3069 138.672 82.6116 139.195 81.84 139.581C81.1543 139.924 80.4179 140.154 79.6587 140.263L79.52 140.283C78.6691 140.404 77.8431 140.662 77.0744 141.046L76.0142 141.576C75.0503 142.059 74.1399 142.641 73.2985 143.314L72.5085 143.945C71.4344 144.805 70.4543 145.775 69.5835 146.84C68.2627 148.453 67.2077 150.268 66.4589 152.214L65.754 154.048Z" fill="#F1E2EE"/>
<path d="M60.203 159.614L61.214 168.04C61.225 168.128 61.3535 168.125 61.3601 168.037L62.0385 158.88L62.7726 152.64L63.8739 147.5L64.4363 145.955C65.031 144.318 66.0155 142.85 67.3048 141.678C68.6652 140.441 70.3215 139.574 72.1137 139.161L72.8963 138.98C73.7289 138.788 74.5298 138.474 75.2721 138.051C76.2302 137.503 77.076 136.779 77.7654 135.918L78.1905 135.386L78.7081 134.696C80.5538 132.235 81.9899 129.494 82.9627 126.576L85.047 119.281C85.0698 119.201 84.9641 119.151 84.9163 119.218L78.9247 127.677L76.7566 130.569C76.01 131.564 75.0416 132.373 73.9278 132.929L73.7347 133.026C73.524 133.131 73.306 133.221 73.0828 133.295L72.8779 133.364C72.5064 133.488 72.1173 133.551 71.726 133.551H71.5909C71.342 133.551 71.0939 133.516 70.8545 133.448C69.5837 133.085 68.7672 131.849 68.931 130.538L69.0132 129.88C69.2562 128.423 69.7555 127.021 70.4882 125.738L72.317 122.538L73.3735 120.689C75.5959 116.8 78.327 113.224 81.4943 110.057L89.2032 103.449L100.583 96.1075C98.3849 96.8403 96.2587 97.7719 94.2302 98.8908L91.6363 100.322C88.3068 102.159 85.1315 104.263 82.1411 106.612L81.4943 107.12L74.8867 113.361L74.0519 114.306C70.9485 117.824 68.2717 121.696 66.0765 125.842L64.3122 130.012C62.8013 133.584 61.6941 137.313 61.0128 141.131C60.4739 144.147 60.203 147.206 60.203 150.27V151.538V159.614Z" fill="#F1E2EE"/>
<path d="M94.1009 63.9731L92.5297 66.8188L92.2412 67.3812C92.2162 67.4304 92.2603 67.4854 92.3139 67.4722C93.1545 67.2674 93.9489 66.9091 94.6581 66.4157C95.2726 65.9869 96.2961 65.1581 96.7821 64.5891L97.8107 63.3865L98.6594 62.145C99.0317 61.6002 99.3554 61.0239 99.6264 60.4233C100.018 59.554 100.344 58.5049 100.479 57.5622C100.629 56.527 100.617 55.4749 100.444 54.4434C100.345 53.8516 100.178 53.1454 99.9832 52.5778C99.7306 51.8378 99.3745 51.0294 98.9854 50.351L98.5588 49.6081C97.9906 48.7615 97.2821 48.0178 96.4628 47.4077L95.9841 47.0509C95.106 46.5083 94.095 46.2139 93.0613 46.2L92.9805 46.1992C92.7962 46.1992 91.7052 46.0671 90.4168 46.5649C89.2509 47.0157 88.8551 47.4011 87.9638 48.2704L87.9521 48.2814C87.6004 48.625 87.3251 48.9216 86.9734 49.6081C86.8831 49.7828 86.7752 50.0552 86.69 50.3254C86.5491 50.7725 86.6856 51.235 86.9507 51.6227C87.1467 51.909 87.4037 52.1483 87.7039 52.3245L89.0086 53.0874L91.1208 54.1174L92.5701 55.0594C93.0092 55.345 93.3961 55.7025 93.7147 56.1166C94.0943 56.6092 94.3696 57.1738 94.5238 57.7751L94.7697 58.7362C94.9188 59.3162 94.9936 59.913 94.9936 60.5121C94.9936 61.7221 94.6868 62.9122 94.1009 63.9731Z" fill="#F1E2EE"/>
<path d="M20.19 6.17013L9.54437 3.2334L12.114 4.70176L15.7849 6.53722L21.2913 9.10686L26.4306 11.3094L33.7724 15.7145C35.1184 16.4487 37.9573 18.0639 38.5446 18.6512L41.8359 21.9426C42.0793 22.1856 42.2155 22.5152 42.2155 22.8596V23.7905C42.2155 23.9932 42.0511 24.1576 41.8484 24.1576H40.3801H37.4433C35.9601 24.1576 34.5664 23.4601 33.2343 22.8075L17.2533 14.9803C21.7808 18.4068 30.8357 25.3323 30.8357 25.626C30.8357 25.9057 33.9385 28.8667 35.715 30.523C35.8874 30.6845 36.029 30.8732 36.1344 31.0839C36.271 31.357 36.3421 31.658 36.3421 31.9635V32.6007V33.3349C36.3421 33.7402 36.0134 34.0691 35.6079 34.0691H34.5066H32.9466C32.0332 34.0691 31.1244 33.9421 30.2461 33.691C29.4191 33.4546 28.6267 33.111 27.8891 32.6683L22.9175 29.6853C22.0936 29.1912 21.1509 28.9298 20.19 28.9298C20.4332 29.4158 20.7531 29.86 21.1376 30.2447L25.8328 34.9398C25.9863 35.0933 26.1241 35.2614 26.2444 35.442L26.3904 35.6608C26.656 36.0587 26.7977 36.5271 26.7977 37.0058V38.1071V39.2084C26.7977 39.5755 26.4306 39.9426 26.4306 40.3096C26.4306 40.6033 25.4517 41.1664 24.9622 41.4109L23.1268 42.1451L22.6468 42.2824C21.2555 42.6796 19.8371 42.9755 18.4028 43.1664L18.1596 43.1987C16.0937 43.4747 14.0655 43.9828 12.114 44.7147H15.7849H20.9242H22.7597C23.8609 44.7147 26.7977 44.7147 29.0002 43.6135L35.2408 40.6767L36.3839 40.248C37.5742 39.8016 38.8191 39.5175 40.0852 39.4022C41.4351 39.2796 42.7697 39.7627 43.7281 40.7208L44.051 41.0438L45.5193 42.5122L46.2812 43.4263C46.9912 44.2786 47.848 44.9967 48.8108 45.5466C49.5497 45.9687 50.3429 46.2881 51.1689 46.4944L51.4765 46.5708C52.3964 46.8013 53.3406 46.9173 54.2884 46.9173H56.5321L61.3043 46.5502L58.3675 45.816L55.6709 45.142C54.5381 44.8586 53.4537 44.4093 52.4522 43.8088C51.0279 42.9542 49.7991 41.8088 48.8464 40.4477L48.5724 40.0564C48.0073 39.2488 47.537 38.3795 47.171 37.4639L46.9934 37.0198C46.5046 35.7981 46.2535 34.4942 46.2535 33.1785V32.9179C46.2535 31.9781 46.405 31.045 46.7022 30.1537L47.1279 28.8762C47.2771 28.4284 47.5285 28.0216 47.8621 27.6883C48.6761 26.8741 49.8801 26.59 50.9721 26.9541L51.6703 27.1869C52.2136 27.3682 52.7151 27.6575 53.1431 28.0385L54.7561 29.4724C55.4492 30.0883 56.0828 30.7682 56.6474 31.5031L59.4688 35.1704C59.4688 33.4876 59.0188 31.8357 58.1656 30.3857L57.0409 28.4724C56.2164 27.0709 55.201 25.7904 54.0249 24.6679L51.8018 22.5454C49.0954 19.9625 46.0372 17.7754 42.718 16.0493L38.5446 13.8791L28.266 9.47396L20.19 6.17013Z" fill="#F1E2EE"/>
<path d="M87.7106 10.5158L86.6336 10.2081L91.4058 12.7778L94.7096 14.6132L95.1105 14.8423C98.2601 16.6418 101.203 18.7812 103.887 21.2209C106.573 23.9073 109.013 26.83 111.175 29.954L111.229 30.0311L114.165 34.4362L118.571 43.6135L120.204 47.0964C120.333 47.451 120.601 47.7381 120.946 47.8915C121.289 48.0435 121.617 47.929 121.907 47.7014C122.865 46.9474 122.848 45.5429 122.609 44.3476L122.241 43.2464C121.14 40.6767 120.592 38.4184 119.504 36.1211C118.395 33.7798 117.054 31.5567 115.499 29.4848L114.922 28.7139C113.197 26.4152 111.271 24.2751 109.165 22.3199L107.191 20.4867L105.015 18.9148C102.068 16.7864 98.9187 14.9517 95.6134 13.4371C93.057 12.2653 90.4146 11.2889 87.7106 10.5158Z" fill="#F1E2EE"/>
<path d="M0 0L20.2682 0.232737C28.0323 0.321573 35.7732 1.09981 43.3997 2.55789L45.3709 2.93527C53.0359 4.39996 60.5268 6.66197 67.7211 9.68387C72.7363 11.7902 77.5914 14.2593 82.2483 17.0712L86.7562 19.7928C92.0365 22.9807 96.8865 26.8337 101.187 31.2564C105.417 35.6079 109.082 40.4762 112.093 45.7462L112.58 46.5986C116.068 52.7026 118.701 59.2559 120.406 66.0765H116.368L111.62 58.7082C107.699 52.6226 103.175 46.9473 98.1177 41.7662C93.1656 36.6937 87.7268 32.1213 81.879 28.1141L80.0788 26.8806C73.9367 22.6723 67.4457 18.9992 60.6758 15.9009L60.0973 15.6366C52.8399 12.3152 45.3073 9.63248 37.5845 7.61788L23.8613 4.03727L0 0Z" fill="#F1E2EE"/>
<path d="M66.8107 28.9298L64.241 25.626L64.7579 25.7736C66.1161 26.1619 67.398 26.7801 68.5478 27.6009L68.6182 27.6516C69.1256 28.0135 69.602 28.4173 70.0426 28.8578L70.2694 29.0847C71.1372 29.9525 71.831 30.9774 72.3148 32.1059C72.5601 32.6793 72.7502 33.2747 72.8809 33.8848L73.2766 35.732C73.6151 37.3127 73.8214 38.9191 73.8933 40.5336L74.4249 52.5C74.488 53.9148 74.6796 55.32 74.9983 56.7003L75.2178 57.6525C75.4858 58.8125 75.8896 59.9366 76.4226 61.0011C76.866 61.888 77.3961 62.7294 78.0048 63.512L79.6589 65.639C81.3673 67.5911 83.2747 69.3605 85.3503 70.917L86.6336 71.8795L91.0387 74.4492L98.7476 78.1201L109.911 82.3064C109.992 82.3365 109.962 82.4584 109.876 82.4481L104.621 81.791L97.6464 79.9555L89.5704 77.3859L82.9627 74.4492L80.7763 73.2715C79.0583 72.3472 77.4578 71.2202 76.0078 69.9148C75.0174 69.0235 74.1011 68.053 73.2693 67.0126L71.5829 64.9048L69.9816 62.5025C69.5815 61.9027 69.1234 61.344 68.6146 60.8352C67.6645 59.8852 66.5486 59.1187 65.321 58.5732L64.9965 58.4293C64.252 58.0982 63.465 57.8713 62.6574 57.756L62.1281 57.6804C61.5818 57.6026 61.0275 57.6092 60.4835 57.6995C59.5775 57.8507 58.7251 58.231 58.0078 58.8052L57.3874 59.3015C57.3382 59.3404 57.2663 59.3059 57.2663 59.2435V59.0159C57.2663 58.5409 57.3566 58.0703 57.5335 57.6298C57.8368 56.8721 58.3793 56.2341 59.079 55.8149L59.239 55.7187C59.6348 55.4815 60.065 55.3097 60.5151 55.2092L63.1398 54.6262L65.3651 53.9904C65.5941 53.9251 65.8166 53.8384 66.0295 53.732L66.318 53.5873C66.876 53.3084 67.3283 52.8561 67.6073 52.2981C67.8077 51.898 67.912 51.4567 67.912 51.0089V50.1668C67.912 49.473 67.8004 48.7843 67.5808 48.1265L67.456 47.752C67.271 47.197 67.0317 46.6611 66.7409 46.1537L65.7094 44.3476L63.3769 40.6826C63.3321 40.6121 63.4202 40.5336 63.4848 40.5857L64.9752 41.778L65.4811 42.1576C66.1059 42.626 66.8657 42.8793 67.6462 42.8793H67.9553C68.4075 42.8793 69.022 42.6421 69.3811 42.3683C69.9603 41.927 70.1145 41.3595 70.1145 40.6312V38.8413V38.2392C70.1145 36.4552 69.7738 34.6865 69.1116 33.0295C68.8018 32.2557 68.4237 31.5112 67.9824 30.8042L66.8107 28.9298Z" fill="#F1E2EE"/>
<path d="M25.259 47.7088L22.1001 46.9195C22.0323 46.9026 21.9954 46.9959 22.0566 47.0296L28.2676 50.4803C30.6877 51.9325 32.775 53.8781 34.3935 56.19L34.5082 56.3538L35.0571 57.2164C36.3876 59.3074 37.2372 61.667 37.5446 64.1266L37.7587 65.8387C37.7941 66.1221 37.8656 66.3988 37.9715 66.6639L38.0644 66.8959C38.3699 67.6602 38.9963 68.2505 39.7767 68.5111C40.4043 68.7203 41.0883 68.699 41.7025 68.4531C42.273 68.2248 42.7553 67.8151 43.0714 67.2887L43.2727 66.9532C43.5451 66.4987 43.724 65.995 43.7989 65.4708L43.8493 65.1177C43.9827 64.1838 43.8838 63.2316 43.5614 62.3454L43.2076 61.3719C42.7954 60.2383 42.1792 59.1906 41.3894 58.2788L39.7252 56.3589C38.4545 54.8927 37.0082 53.5888 35.4188 52.4758L34.8706 52.0926C31.9616 50.0559 28.7038 48.5699 25.259 47.7088Z" fill="#F1E2EE"/>
<path d="M13.8535 48.5985L8.81021 46.9172C9.04588 46.9172 8.9033 46.9172 13.9599 47.4862C17.0892 47.8386 20.103 48.8973 22.7597 50.5882C23.7386 51.3223 25.7698 52.8641 26.0635 53.1578C26.3572 53.4515 28.3885 55.9719 29.3673 57.1958L32.3041 61.968L36.3421 70.044L39.4173 74.9645C40.3801 76.2846 41.4814 75.9175 41.4814 75.9175C41.4814 75.9175 42.0443 75.7611 42.4039 75.4733L42.8768 75.0944C43.4051 74.6723 43.8093 74.1151 44.0468 73.4815C44.7654 71.5652 44.9969 69.5007 45.2112 67.4656L45.46 65.1022C45.4937 64.7814 45.7642 64.5376 46.0867 64.5376C46.3948 64.5376 46.6578 64.7601 46.7084 65.064L47.036 67.0302C47.2477 68.3003 47.6195 69.5382 48.1425 70.715L48.8232 72.2466L50.6587 75.9175L52.1836 78.2052C53.1226 79.6133 54.1981 80.9253 55.3949 82.1221C56.3963 83.1235 57.4785 84.0397 58.6304 84.8628L62.0385 87.2973L64.5567 88.7554C67.517 90.469 70.6732 91.8191 73.9572 92.7773C76.5291 93.5276 79.1655 94.0327 81.8328 94.2867L93.2413 95.3733L100.583 96.1075H98.0135L88.8362 96.2911L76.7222 96.4746L70.0242 96.272C66.423 96.1626 61.6075 95.4086 58.0879 94.6399C55.0102 93.9674 53.218 93.3301 50.3422 92.0438C49.7583 91.7824 49.2238 91.5357 48.8232 91.3353C44.481 88.9228 40.778 85.5081 38.0226 81.3754L32.3041 71.1453L27.7827 61.1986C27.1273 59.7566 26.3349 58.3631 25.4335 57.0607C24.1545 55.2135 22.6303 53.519 20.9242 52.0565C18.7314 50.5948 16.3536 49.4318 13.8535 48.5985Z" fill="#F1E2EE"/>
<path d="M182.65 109.084L182.392 108.787C181.791 108.094 181.054 107.532 180.227 107.136C179.599 106.833 178.926 106.631 178.235 106.537L176.708 106.327H172.675C172.673 106.327 172.673 106.326 172.674 106.325C173.881 105.631 175.225 105.208 176.612 105.087L177.256 105.03C178.113 104.955 178.974 104.969 179.827 105.072L180.222 105.119C181.058 105.219 181.881 105.414 182.673 105.7C183.829 106.115 184.907 106.719 185.865 107.485L185.937 107.543C186.392 107.907 186.819 108.304 187.215 108.731L187.51 109.051C188.855 110.504 189.839 112.254 190.38 114.158L190.457 114.43C190.591 114.901 190.687 115.382 190.742 115.868L190.885 117.104C190.979 117.905 190.979 118.714 190.885 119.515L190.778 120.442C190.702 121.104 190.35 121.703 189.81 122.092C189.407 122.382 188.922 122.529 188.432 122.451L188.351 122.438C187.494 122.299 186.787 121.706 186.454 120.905L186.374 120.714C186.293 120.521 186.234 120.32 186.195 120.115L185.539 116.656C185.526 116.583 185.513 116.512 185.5 116.439C185.444 116.138 185.282 115.248 185.113 114.355C184.903 113.236 184.518 112.159 183.992 111.149L183.785 110.752C183.474 110.154 183.093 109.594 182.65 109.084Z" fill="#F1E2EE"/>
<path d="M188.672 134.717L184.462 130.507C184.413 130.457 184.33 130.515 184.36 130.58L187.29 136.731C187.678 137.546 187.984 138.397 188.202 139.272L188.445 140.245C188.553 140.675 188.608 141.117 188.608 141.56V142.471C188.608 143.113 188.389 143.736 187.988 144.237L187.857 144.4C187.404 144.967 186.716 145.298 185.99 145.298C185.542 145.298 185.102 145.172 184.722 144.934L183.388 144.101C182.711 143.678 182.103 143.154 181.583 142.548L181.309 142.228C180.551 141.344 179.944 140.341 179.511 139.259L178.696 137.222L177.228 132.45C176.494 129.517 175.543 126.644 174.38 123.853L174.291 123.639C172.934 121.151 170.324 119.601 167.489 119.601H164.747L165.873 119.806C167.719 120.142 169.322 121.276 170.253 122.905L170.528 123.526C171.315 125.295 171.721 127.21 171.721 129.146L170.987 137.222V138.541C170.987 140.324 171.442 142.078 172.307 143.636C172.65 144.253 173.054 144.834 173.513 145.369L173.635 145.511C174.555 146.584 175.653 147.492 176.881 148.193L177.595 148.602L181.266 150.804L183.037 152.044C184.271 152.908 185.194 154.145 185.669 155.573C185.773 155.883 186.219 155.861 186.291 155.541L186.382 155.129C186.637 153.983 187.213 152.933 188.043 152.103C188.418 151.728 188.743 151.306 189.01 150.849L190.589 148.141C190.981 147.471 191.311 146.766 191.576 146.036L192.08 144.652C192.452 143.629 192.575 142.532 192.44 141.452C192.334 140.598 192.066 139.77 191.655 139.014L191.026 137.863C190.396 136.707 189.603 135.648 188.672 134.717Z" fill="#F1E2EE"/>
<path d="M219.246 154.048L221.122 159.676C221.151 159.763 221.028 159.813 220.987 159.732L217.731 153.22C217.273 152.305 216.745 151.427 216.15 150.595L216.02 150.413C215.479 149.656 214.878 148.946 214.22 148.289L213.734 147.801C213.493 147.561 213.237 147.338 212.965 147.135L212.654 146.902C212.159 146.53 211.599 146.252 211.003 146.082L210.408 145.911C209.712 145.713 208.97 145.751 208.298 146.019C207.774 146.229 207.314 146.571 206.961 147.011L205.008 149.454C204.825 149.682 204.46 149.602 204.39 149.319L204.143 148.333C203.937 147.508 203.511 146.757 202.91 146.156L202.584 145.829C202.197 145.442 201.713 145.168 201.183 145.036C200.749 144.927 200.297 144.917 199.86 145.004L199.785 145.019C199.073 145.161 198.427 145.53 197.943 146.071L192.586 152.06C192.558 152.091 192.505 152.06 192.521 152.02L193.549 149.276L195.018 145.605L196.465 142.133C196.722 141.517 196.853 140.857 196.853 140.19C196.853 139.406 196.671 138.632 196.32 137.931L195.161 135.612C194.821 134.933 194.53 134.231 194.291 133.511L193.969 132.548C193.448 130.984 193.182 129.347 193.182 127.699C193.182 127.677 193.212 127.669 193.223 127.688L194.651 130.188L197.587 134.226L201.108 138.039C201.693 138.672 202.388 139.195 203.16 139.581C203.846 139.924 204.583 140.154 205.342 140.263L205.48 140.283C206.331 140.404 207.157 140.662 207.926 141.046L208.986 141.576C209.95 142.059 210.86 142.641 211.702 143.314L212.491 143.945C213.565 144.805 214.546 145.775 215.417 146.84C216.738 148.453 217.792 150.268 218.541 152.214L219.246 154.048Z" fill="#F1E2EE"/>
<path d="M224.797 159.614L223.786 168.04C223.776 168.128 223.647 168.125 223.64 168.037L222.962 158.88L222.227 152.64L221.126 147.5L220.564 145.955C219.969 144.318 218.984 142.85 217.696 141.678C216.335 140.441 214.678 139.574 212.886 139.161L212.104 138.98C211.271 138.788 210.471 138.474 209.729 138.051C208.77 137.503 207.924 136.779 207.235 135.918L206.81 135.386L206.292 134.696C204.447 132.235 203.01 129.494 202.037 126.576L199.953 119.281C199.93 119.201 200.036 119.151 200.084 119.218L206.075 127.677L208.244 130.569C208.991 131.564 209.959 132.373 211.072 132.929L211.266 133.026C211.476 133.131 211.694 133.221 211.917 133.295L212.123 133.364C212.494 133.488 212.883 133.551 213.274 133.551H213.409C213.658 133.551 213.906 133.516 214.145 133.448C215.416 133.085 216.233 131.849 216.069 130.538L215.987 129.88C215.745 128.423 215.245 127.021 214.512 125.738L212.683 122.538L211.626 120.689C209.404 116.8 206.673 113.224 203.506 110.057L195.797 103.449L184.417 96.1075C186.615 96.8403 188.741 97.7719 190.771 98.8908L193.364 100.322C196.694 102.159 199.869 104.263 202.859 106.612L203.506 107.12L210.113 113.361L210.948 114.306C214.051 117.824 216.729 121.696 218.924 125.842L220.688 130.012C222.199 133.584 223.306 137.313 223.988 141.131C224.526 144.147 224.797 147.206 224.797 150.27V151.538V159.614Z" fill="#F1E2EE"/>
<path d="M190.899 63.9731L192.471 66.8188L192.759 67.3812C192.784 67.4304 192.739 67.4854 192.687 67.4722C191.846 67.2674 191.051 66.9091 190.342 66.4157C189.727 65.9869 188.704 65.1581 188.218 64.5891L187.19 63.3865L186.341 62.145C185.968 61.6002 185.645 61.0239 185.374 60.4233C184.982 59.554 184.656 58.5049 184.52 57.5622C184.371 56.527 184.384 55.4749 184.556 54.4434C184.655 53.8516 184.823 53.1454 185.017 52.5778C185.269 51.8378 185.625 51.0294 186.014 50.351L186.441 49.6081C187.009 48.7615 187.718 48.0178 188.537 47.4077L189.016 47.0509C189.894 46.5083 190.905 46.2139 191.939 46.2L192.019 46.1992C192.204 46.1992 193.295 46.0671 194.583 46.5649C195.75 47.0157 196.145 47.4011 197.037 48.2704L197.048 48.2814C197.399 48.625 197.675 48.9216 198.027 49.6081C198.117 49.7828 198.225 50.0552 198.31 50.3254C198.451 50.7725 198.314 51.235 198.049 51.6227C197.853 51.909 197.596 52.1483 197.296 52.3245L195.991 53.0874L193.879 54.1174L192.43 55.0594C191.991 55.345 191.604 55.7025 191.285 56.1166C190.905 56.6092 190.631 57.1738 190.477 57.7751L190.23 58.7362C190.081 59.3162 190.006 59.913 190.006 60.5121C190.006 61.7221 190.313 62.9122 190.899 63.9731Z" fill="#F1E2EE"/>
<path d="M264.81 6.17013L275.456 3.2334L272.886 4.70176L269.215 6.53722L263.709 9.10686L258.569 11.3094L251.228 15.7145C249.882 16.4487 247.043 18.0639 246.455 18.6512L243.164 21.9426C242.921 22.1856 242.784 22.5152 242.784 22.8596V23.7905C242.784 23.9932 242.949 24.1576 243.152 24.1576H244.62H247.557C249.04 24.1576 250.434 23.4601 251.766 22.8075L267.747 14.9803C263.22 18.4068 254.164 25.3323 254.164 25.626C254.164 25.9057 251.062 28.8667 249.285 30.523C249.112 30.6845 248.971 30.8732 248.866 31.0839C248.729 31.357 248.658 31.658 248.658 31.9635V32.6007V33.3349C248.658 33.7402 248.987 34.0691 249.392 34.0691H250.493H252.054C252.967 34.0691 253.876 33.9421 254.754 33.691C255.581 33.4546 256.373 33.111 257.111 32.6683L262.082 29.6853C262.907 29.1912 263.85 28.9298 264.81 28.9298C264.567 29.4158 264.247 29.86 263.863 30.2447L259.167 34.9398C259.014 35.0933 258.876 35.2614 258.756 35.442L258.61 35.6608C258.344 36.0587 258.202 36.5271 258.202 37.0058V38.1071V39.2084C258.202 39.5755 258.569 39.9426 258.569 40.3096C258.569 40.6033 259.549 41.1664 260.038 41.4109L261.873 42.1451L262.353 42.2824C263.745 42.6796 265.163 42.9755 266.598 43.1664L266.841 43.1987C268.907 43.4747 270.934 43.9828 272.886 44.7147H269.215H264.076H262.24C261.139 44.7147 258.202 44.7147 256 43.6135L249.759 40.6767L248.616 40.248C247.426 39.8016 246.181 39.5175 244.915 39.4022C243.565 39.2796 242.231 39.7627 241.272 40.7208L240.949 41.0438L239.481 42.5122L238.719 43.4263C238.009 44.2786 237.153 44.9967 236.189 45.5466C235.451 45.9687 234.657 46.2881 233.832 46.4944L233.524 46.5708C232.604 46.8013 231.659 46.9173 230.712 46.9173H228.468L223.696 46.5502L226.632 45.816L229.329 45.142C230.462 44.8586 231.546 44.4093 232.548 43.8088C233.972 42.9542 235.201 41.8088 236.154 40.4477L236.428 40.0564C236.993 39.2488 237.463 38.3795 237.829 37.4639L238.007 37.0198C238.495 35.7981 238.746 34.4942 238.746 33.1785V32.9179C238.746 31.9781 238.595 31.045 238.298 30.1537L237.872 28.8762C237.723 28.4284 237.472 28.0216 237.138 27.6883C236.324 26.8741 235.12 26.59 234.028 26.9541L233.33 27.1869C232.786 27.3682 232.286 27.6575 231.857 28.0385L230.244 29.4724C229.551 30.0883 228.918 30.7682 228.353 31.5031L225.531 35.1704C225.531 33.4876 225.981 31.8357 226.834 30.3857L227.96 28.4724C228.784 27.0709 229.799 25.7904 230.975 24.6679L233.199 22.5454C235.905 19.9625 238.963 17.7754 242.282 16.0493L246.455 13.8791L256.734 9.47396L264.81 6.17013Z" fill="#F1E2EE"/>
<path d="M197.29 10.5158L198.367 10.2081L193.594 12.7778L190.29 14.6132L189.89 14.8423C186.74 16.6418 183.797 18.7812 181.113 21.2209C178.427 23.9073 175.988 26.83 173.825 29.954L173.771 30.0311L170.835 34.4362L166.43 43.6135L164.796 47.0964C164.668 47.451 164.4 47.7381 164.054 47.8915C163.712 48.0435 163.383 47.929 163.093 47.7014C162.135 46.9474 162.153 45.5429 162.392 44.3476L162.759 43.2464C163.86 40.6767 164.408 38.4184 165.496 36.1211C166.605 33.7798 167.947 31.5567 169.501 29.4848L170.079 28.7139C171.803 26.4152 173.73 24.2751 175.835 22.3199L177.809 20.4867L179.985 18.9148C182.933 16.7864 186.081 14.9517 189.387 13.4371C191.944 12.2653 194.585 11.2889 197.29 10.5158Z" fill="#F1E2EE"/>
<path d="M285 0L264.732 0.232737C256.968 0.321573 249.227 1.09981 241.6 2.55789L239.629 2.93527C231.965 4.39996 224.474 6.66197 217.279 9.68387C212.264 11.7902 207.409 14.2593 202.752 17.0712L198.244 19.7928C192.964 22.9807 188.114 26.8337 183.814 31.2564C179.583 35.6079 175.919 40.4762 172.907 45.7462L172.42 46.5986C168.932 52.7026 166.299 59.2559 164.594 66.0765H168.632L173.38 58.7082C177.302 52.6226 181.825 46.9473 186.882 41.7662C191.834 36.6937 197.273 32.1213 203.121 28.1141L204.922 26.8806C211.063 22.6723 217.555 18.9992 224.325 15.9009L224.903 15.6366C232.16 12.3152 239.693 9.63248 247.416 7.61788L261.139 4.03727L285 0Z" fill="#F1E2EE"/>
<path d="M218.189 28.9298L220.759 25.626L220.242 25.7736C218.884 26.1619 217.602 26.7801 216.452 27.6009L216.382 27.6516C215.874 28.0135 215.399 28.4173 214.958 28.8578L214.731 29.0847C213.863 29.9525 213.169 30.9774 212.685 32.1059C212.44 32.6793 212.25 33.2747 212.12 33.8848L211.724 35.732C211.385 37.3127 211.179 38.9191 211.107 40.5336L210.575 52.5C210.512 53.9148 210.32 55.32 210.002 56.7003L209.782 57.6525C209.515 58.8125 209.11 59.9366 208.578 61.0011C208.135 61.888 207.605 62.7294 206.995 63.512L205.341 65.639C203.633 67.5911 201.725 69.3605 199.65 70.917L198.366 71.8795L193.961 74.4492L186.252 78.1201L175.09 82.3064C175.008 82.3365 175.038 82.4584 175.124 82.4481L180.379 81.791L187.354 79.9555L195.43 77.3859L202.037 74.4492L204.224 73.2715C205.942 72.3472 207.543 71.2202 208.993 69.9148C209.983 69.0235 210.899 68.053 211.731 67.0126L213.417 64.9048L215.019 62.5025C215.418 61.9027 215.877 61.344 216.386 60.8352C217.335 59.8852 218.451 59.1187 219.679 58.5732L220.003 58.4293C220.749 58.0982 221.536 57.8713 222.343 57.756L222.872 57.6804C223.418 57.6026 223.972 57.6092 224.516 57.6995C225.422 57.8507 226.275 58.231 226.992 58.8052L227.613 59.3015C227.662 59.3404 227.734 59.3059 227.734 59.2435V59.0159C227.734 58.5409 227.643 58.0703 227.467 57.6298C227.164 56.8721 226.621 56.2341 225.921 55.8149L225.761 55.7187C225.366 55.4815 224.935 55.3097 224.485 55.2092L221.86 54.6262L219.635 53.9904C219.406 53.9251 219.183 53.8384 218.97 53.732L218.682 53.5873C218.124 53.3084 217.672 52.8561 217.393 52.2981C217.192 51.898 217.088 51.4567 217.088 51.0089V50.1668C217.088 49.473 217.2 48.7843 217.419 48.1265L217.544 47.752C217.729 47.197 217.968 46.6611 218.259 46.1537L219.291 44.3476L221.623 40.6826C221.668 40.6121 221.58 40.5336 221.515 40.5857L220.025 41.778L219.519 42.1576C218.894 42.626 218.134 42.8793 217.354 42.8793H217.045C216.592 42.8793 215.979 42.6421 215.619 42.3683C215.04 41.927 214.885 41.3595 214.885 40.6312V38.8413V38.2392C214.885 36.4552 215.226 34.6865 215.889 33.0295C216.198 32.2557 216.576 31.5112 217.018 30.8042L218.189 28.9298Z" fill="#F1E2EE"/>
<path d="M259.741 47.7088L262.9 46.9195C262.968 46.9026 263.005 46.9959 262.944 47.0296L256.732 50.4803C254.313 51.9325 252.225 53.8781 250.606 56.19L250.492 56.3538L249.943 57.2164C248.612 59.3074 247.763 61.667 247.455 64.1266L247.242 65.8387C247.206 66.1221 247.134 66.3988 247.029 66.6639L246.936 66.8959C246.63 67.6602 246.004 68.2505 245.223 68.5111C244.596 68.7203 243.912 68.699 243.298 68.4531C242.727 68.2248 242.245 67.8151 241.929 67.2887L241.727 66.9532C241.455 66.4987 241.276 65.995 241.202 65.4708L241.151 65.1177C241.017 64.1838 241.116 63.2316 241.439 62.3454L241.793 61.3719C242.204 60.2383 242.821 59.1906 243.61 58.2788L245.275 56.3589C246.546 54.8927 247.992 53.5888 249.582 52.4758L250.129 52.0926C253.039 50.0559 256.296 48.5699 259.741 47.7088Z" fill="#F1E2EE"/>
<path d="M271.147 48.5985L276.19 46.9172C275.954 46.9172 276.097 46.9172 271.04 47.4862C267.911 47.8386 264.897 48.8973 262.24 50.5882C261.262 51.3223 259.23 52.8641 258.937 53.1578C258.643 53.4515 256.612 55.9719 255.633 57.1958L252.696 61.968L248.658 70.044L245.583 74.9645C244.62 76.2846 243.519 75.9175 243.519 75.9175C243.519 75.9175 242.956 75.7611 242.597 75.4733L242.124 75.0944C241.595 74.6723 241.191 74.1151 240.953 73.4815C240.235 71.5652 240.003 69.5007 239.789 67.4656L239.54 65.1022C239.506 64.7814 239.236 64.5376 238.914 64.5376C238.606 64.5376 238.343 64.7601 238.292 65.064L237.965 67.0302C237.752 68.3003 237.381 69.5382 236.858 70.715L236.177 72.2466L234.341 75.9175L232.816 78.2052C231.877 79.6133 230.802 80.9253 229.605 82.1221C228.604 83.1235 227.522 84.0397 226.37 84.8628L222.962 87.2973L220.444 88.7554C217.483 90.469 214.327 91.8191 211.044 92.7773C208.472 93.5276 205.835 94.0327 203.167 94.2867L191.759 95.3733L184.417 96.1075H186.987L196.164 96.2911L208.278 96.4746L214.977 96.272C218.577 96.1626 223.393 95.4086 226.912 94.6399C229.991 93.9674 231.783 93.3301 234.658 92.0438C235.242 91.7824 235.777 91.5357 236.177 91.3353C240.52 88.9228 244.222 85.5081 246.977 81.3754L252.696 71.1453L257.218 61.1986C257.873 59.7566 258.666 58.3631 259.566 57.0607C260.845 55.2135 262.37 53.519 264.076 52.0565C266.269 50.5948 268.647 49.4318 271.147 48.5985Z" fill="#F1E2EE"/>
</svg>
