<svg width="643" height="338" viewBox="0 0 643 338" fill="none" xmlns="http://www.w3.org/2000/svg">
<path d="M205.046 218.537L205.564 217.941C206.769 216.554 208.244 215.427 209.9 214.633C211.16 214.027 212.506 213.622 213.892 213.433L216.95 213.014H225.032C225.033 213.014 225.035 213.011 225.032 213.009C222.615 211.618 219.922 210.771 217.142 210.528L215.852 210.415C214.137 210.265 212.411 210.292 210.702 210.498L209.91 210.592C208.235 210.794 206.588 211.184 205.001 211.756C202.687 212.588 200.526 213.797 198.605 215.333L198.463 215.449C197.551 216.177 196.695 216.973 195.902 217.829L195.309 218.47C192.615 221.381 190.645 224.886 189.561 228.702L189.407 229.247C189.139 230.19 188.948 231.153 188.835 232.127L188.548 234.603C188.362 236.207 188.362 237.828 188.548 239.433L188.762 241.29C188.917 242.617 189.621 243.816 190.704 244.595C191.512 245.176 192.482 245.472 193.465 245.316L193.627 245.29C195.342 245.012 196.758 243.823 197.426 242.219L197.586 241.835C197.748 241.448 197.868 241.046 197.946 240.636L199.258 233.705C199.286 233.56 199.313 233.417 199.339 233.271C199.448 232.668 199.775 230.884 200.112 229.096C200.535 226.854 201.304 224.696 202.359 222.673L202.772 221.878C203.396 220.68 204.159 219.557 205.046 218.537Z" fill="#391832"/>
<path d="M192.981 269.888L201.415 261.454C201.516 261.354 201.681 261.47 201.619 261.6L195.75 273.923C194.974 275.555 194.361 277.261 193.922 279.015L193.435 280.964C193.221 281.826 193.11 282.709 193.11 283.598V285.422C193.11 286.709 193.549 287.956 194.352 288.961L194.614 289.287C195.524 290.424 196.901 291.086 198.355 291.086C199.254 291.086 200.134 290.833 200.895 290.358L203.567 288.688C204.923 287.84 206.142 286.791 207.183 285.576L207.732 284.936C209.251 283.165 210.468 281.155 211.334 278.988L212.967 274.907L215.908 265.346C217.378 259.472 219.285 253.715 221.614 248.124L221.792 247.696C224.513 242.71 229.739 239.606 235.419 239.606H240.913L238.658 240.017C234.959 240.689 231.746 242.961 229.881 246.225L229.33 247.468C227.755 251.013 226.94 254.849 226.94 258.727L228.411 274.907V277.55C228.411 281.122 227.502 284.635 225.766 287.757C225.081 288.993 224.27 290.156 223.351 291.229L223.108 291.512C221.264 293.663 219.065 295.481 216.604 296.887L215.173 297.705L207.819 302.117L204.27 304.601C201.799 306.331 199.95 308.81 198.997 311.67C198.789 312.293 197.895 312.247 197.752 311.607L197.568 310.781C197.06 308.485 195.905 306.383 194.243 304.719C193.491 303.968 192.84 303.123 192.304 302.207L189.141 296.782C188.358 295.44 187.696 294.028 187.164 292.566L186.155 289.792C185.41 287.743 185.162 285.545 185.433 283.382C185.647 281.67 186.181 280.012 187.008 278.497L188.265 276.191C189.529 273.876 191.116 271.753 192.981 269.888Z" fill="#391832"/>
<path d="M131.73 308.617L127.972 319.891C127.915 320.064 128.162 320.166 128.243 320.003L134.766 306.958C135.682 305.125 136.741 303.366 137.933 301.698L138.193 301.333C139.275 299.817 140.482 298.394 141.798 297.078L142.775 296.101C143.256 295.62 143.77 295.173 144.315 294.766L144.937 294.3C145.93 293.554 147.05 292.998 148.243 292.657L149.436 292.315C150.83 291.918 152.316 291.993 153.662 292.532C154.712 292.952 155.634 293.636 156.34 294.519L160.254 299.412C160.62 299.868 161.351 299.709 161.493 299.142L161.987 297.166C162.4 295.515 163.253 294.008 164.456 292.805L165.111 292.149C165.886 291.376 166.855 290.825 167.919 290.561C168.786 290.343 169.691 290.322 170.569 290.497L170.718 290.527C172.143 290.812 173.437 291.552 174.407 292.635L185.141 304.632C185.198 304.696 185.301 304.634 185.27 304.553L183.21 299.056L180.268 291.702L177.369 284.745C176.855 283.511 176.591 282.189 176.591 280.853C176.591 279.282 176.957 277.732 177.659 276.327L179.983 271.681C180.662 270.322 181.244 268.916 181.725 267.473L182.368 265.543C183.413 262.41 183.945 259.13 183.945 255.828C183.945 255.784 183.886 255.769 183.864 255.808L181.003 260.814L175.12 268.904L168.067 276.544C166.895 277.813 165.502 278.86 163.956 279.632C162.582 280.321 161.107 280.781 159.586 280.999L159.308 281.038C157.604 281.281 155.949 281.799 154.409 282.568L152.285 283.63C150.354 284.596 148.53 285.763 146.844 287.112L145.262 288.376C143.11 290.099 141.146 292.042 139.402 294.175C136.756 297.407 134.642 301.043 133.142 304.943L131.73 308.617Z" fill="#391832"/>
<path d="M120.609 319.767L122.635 336.647C122.657 336.823 122.914 336.817 122.927 336.641L124.286 318.297L125.757 305.794L127.963 295.498L129.09 292.402C130.281 289.122 132.254 286.182 134.837 283.835C137.562 281.356 140.88 279.619 144.471 278.791L146.039 278.429C147.707 278.044 149.311 277.416 150.798 276.567C152.718 275.47 154.412 274.02 155.793 272.294L156.645 271.23L157.682 269.847C161.38 264.917 164.256 259.425 166.205 253.579L170.381 238.965C170.427 238.805 170.215 238.703 170.119 238.839L158.116 255.786L153.772 261.578C152.276 263.572 150.336 265.192 148.105 266.307L147.718 266.501C147.296 266.711 146.859 266.892 146.412 267.041L146.002 267.177C145.258 267.426 144.478 267.552 143.694 267.552H143.423C142.925 267.552 142.428 267.483 141.948 267.346C139.402 266.618 137.767 264.143 138.095 261.516L138.259 260.198C138.746 257.28 139.746 254.471 141.214 251.901L144.878 245.49L146.995 241.785C151.447 233.994 156.918 226.831 163.264 220.485L178.708 207.248L201.506 192.539C197.102 194.007 192.842 195.874 188.778 198.115L183.582 200.983C176.912 204.664 170.55 208.878 164.559 213.584L163.264 214.602L150.026 227.104L148.354 228.999C142.136 236.045 136.774 243.803 132.376 252.109L128.842 260.463C125.815 267.619 123.596 275.089 122.232 282.737C121.152 288.781 120.609 294.909 120.609 301.048V303.588V319.767Z" fill="#391832"/>
<path d="M188.519 128.162L185.372 133.863L184.794 134.99C184.744 135.088 184.832 135.199 184.939 135.172C186.623 134.762 188.215 134.044 189.636 133.056C190.867 132.197 192.917 130.536 193.891 129.396L195.951 126.987L197.652 124.5C198.398 123.408 199.046 122.254 199.589 121.051C200.373 119.309 201.026 117.207 201.298 115.319C201.597 113.245 201.573 111.137 201.227 109.071C201.029 107.885 200.693 106.47 200.304 105.333C199.798 103.851 199.084 102.231 198.305 100.872L197.45 99.3835C196.312 97.6877 194.892 96.1977 193.251 94.9754L192.292 94.2606C190.533 93.1737 188.508 92.5838 186.437 92.5559L186.275 92.5544C185.906 92.5544 183.72 92.2897 181.139 93.2869C178.803 94.19 178.01 94.9622 176.225 96.7037L176.201 96.7257C175.496 97.4141 174.945 98.0083 174.24 99.3835C174.059 99.7336 173.843 100.279 173.673 100.821C173.39 101.716 173.664 102.643 174.195 103.42C174.588 103.993 175.102 104.473 175.704 104.826L178.318 106.354L182.549 108.417L185.453 110.305C186.332 110.877 187.107 111.593 187.746 112.423C188.506 113.41 189.058 114.541 189.367 115.745L189.859 117.671C190.158 118.833 190.308 120.028 190.308 121.229C190.308 123.652 189.693 126.037 188.519 128.162Z" fill="#391832"/>
<path d="M40.4482 12.361L19.121 6.47763L24.2689 9.41932L31.6231 13.0964L42.6545 18.2444L52.9504 22.6569L67.6588 31.482C70.3553 32.9528 76.0426 36.1887 77.2193 37.3654L83.8129 43.9591C84.3007 44.446 84.5735 45.1064 84.5735 45.7962V47.6613C84.5735 48.0672 84.2442 48.3967 83.8381 48.3967H80.8964H75.013C72.0415 48.3967 69.2494 46.9994 66.5808 45.6918L34.5648 30.0111C43.6351 36.8756 61.7754 50.75 61.7754 51.3384C61.7754 51.8988 67.9915 57.8307 71.5505 61.1489C71.896 61.4725 72.1796 61.8505 72.3908 62.2726C72.6644 62.8198 72.8068 63.4228 72.8068 64.0347V65.3114V66.7822C72.8068 67.5941 72.1483 68.2531 71.3359 68.2531H69.1297H66.0044C64.1745 68.2531 62.3538 67.9986 60.5943 67.4956C58.9374 67.022 57.35 66.3336 55.8724 65.4467L45.9124 59.4707C44.2618 58.4808 42.3731 57.9572 40.4482 57.9572C40.9353 58.9309 41.5762 59.8207 42.3465 60.5914L51.7528 69.9975C52.0602 70.3049 52.3363 70.6417 52.5774 71.0035L52.8699 71.4419C53.4019 72.2391 53.6858 73.1775 53.6858 74.1364V76.3427V78.549C53.6858 79.2844 52.9504 80.0198 52.9504 80.7552C52.9504 81.3436 50.9893 82.4717 50.0087 82.9615L46.3316 84.4324L45.3701 84.7074C42.5828 85.5031 39.7412 86.0959 36.8677 86.4783L36.3806 86.543C32.2418 87.096 28.1786 88.1139 24.2689 89.5803H31.6231H41.919H45.5962C47.8024 89.5803 53.6858 89.5803 58.0983 87.374L70.6005 81.4907L72.8906 80.6317C75.2753 79.7374 77.7692 79.1682 80.3057 78.9373C83.01 78.6917 85.6837 79.6595 87.6038 81.5789L88.2506 82.2261L91.1923 85.1678L92.7186 86.999C94.1411 88.7066 95.8574 90.1451 97.7864 91.2468C99.2667 92.0925 100.856 92.7323 102.51 93.1456L103.127 93.2986C104.97 93.7604 106.861 93.9928 108.76 93.9928H113.255L122.815 93.2574L116.932 91.7866L111.53 90.4363C109.26 89.8686 107.088 88.9684 105.081 87.7653C102.228 86.0532 99.7663 83.7587 97.8576 81.0318L97.3088 80.2478C96.1766 78.6299 95.2345 76.8884 94.5013 75.0542L94.1455 74.1644C93.1662 71.7169 92.6632 69.1047 92.6632 66.4689V65.9468C92.6632 64.0641 92.9666 62.1947 93.562 60.4091L94.4149 57.8498C94.7138 56.9526 95.2174 56.1377 95.8858 55.47C97.5165 53.8388 99.9285 53.2696 102.116 53.9991L103.515 54.4654C104.603 54.8287 105.608 55.4082 106.466 56.1716L109.697 59.0441C111.085 60.2782 112.355 61.6402 113.486 63.1125L119.138 70.4593C119.138 67.0882 118.237 63.7788 116.528 60.8738L114.274 57.0408C112.623 54.233 110.588 51.6678 108.232 49.4189L103.778 45.1667C98.3565 39.9923 92.2299 35.6106 85.5802 32.1527L77.2193 27.8049L56.6275 18.9798L40.4482 12.361Z" fill="#391832"/>
<path d="M175.717 21.067L173.56 20.4507L183.12 25.5986L189.739 29.2757L190.542 29.7346C196.852 33.3397 202.747 37.6257 208.124 42.5133C213.506 47.8952 218.394 53.7506 222.725 60.009L222.833 60.1635L228.716 68.9885L237.541 87.3741L240.814 94.3518C241.073 95.0622 241.608 95.6373 242.299 95.9447C242.986 96.2491 243.645 96.0197 244.226 95.5637C246.144 94.0532 246.11 91.2394 245.631 88.8449L244.895 86.6386C242.689 81.4907 241.59 76.9664 239.411 72.3641C237.19 67.6736 234.503 63.2199 231.389 59.0691L230.231 57.5248C226.776 52.9195 222.917 48.632 218.698 44.7152L214.743 41.0425L210.384 37.8934C204.48 33.6294 198.171 29.9538 191.549 26.9194C186.428 24.572 181.134 22.6158 175.717 21.067Z" fill="#391832"/>
<path d="M0 0L40.6047 0.466259C56.1592 0.644231 71.6672 2.20333 86.9458 5.12442L90.8949 5.88043C106.251 8.81477 121.258 13.3464 135.671 19.4004C145.718 23.6203 155.445 28.5667 164.774 34.2001L173.805 39.6525C184.383 46.0389 194.1 53.7579 202.715 62.6182C211.19 71.3359 218.532 81.0891 224.564 91.6468L225.541 93.3544C232.527 105.583 237.803 118.712 241.218 132.376H233.129L223.617 117.615C215.761 105.423 206.698 94.0531 196.566 83.6733C186.646 73.5113 175.75 64.3509 164.034 56.323L160.428 53.852C148.123 45.4211 135.119 38.0625 121.556 31.8555L120.397 31.326C105.858 24.6719 90.7675 19.2975 75.2959 15.2615L47.8032 8.08817L0 0Z" fill="#391832"/>
<path d="M133.847 57.9572L128.699 51.3384L129.734 51.634C132.455 52.4121 135.023 53.6505 137.327 55.295L137.468 55.3964C138.484 56.1216 139.439 56.9305 140.321 57.813L140.776 58.2675C142.514 60.0061 143.904 62.0594 144.874 64.3201C145.365 65.4688 145.746 66.6616 146.008 67.8839L146.8 71.5845C147.479 74.7513 147.892 77.9695 148.036 81.2038L149.101 105.177C149.227 108.011 149.611 110.827 150.25 113.592L150.689 115.5C151.226 117.823 152.035 120.075 153.103 122.208C153.991 123.985 155.053 125.67 156.273 127.238L159.587 131.499C163.009 135.41 166.83 138.955 170.988 142.073L173.56 144.002L182.385 149.149L197.828 156.504L220.193 164.89C220.356 164.951 220.296 165.195 220.122 165.174L209.595 163.858L195.622 160.181L179.443 155.033L166.205 149.149L161.825 146.79C158.383 144.938 155.177 142.681 152.272 140.066C150.288 138.28 148.452 136.335 146.786 134.251L143.407 130.029L140.199 125.216C139.398 124.014 138.48 122.895 137.461 121.876C135.557 119.972 133.322 118.437 130.862 117.344L130.212 117.056C128.721 116.392 127.144 115.938 125.526 115.707L124.466 115.555C123.371 115.4 122.261 115.413 121.171 115.594C119.356 115.897 117.648 116.659 116.211 117.809L114.968 118.803C114.87 118.881 114.726 118.812 114.726 118.687V118.231C114.726 117.279 114.907 116.336 115.261 115.454C115.869 113.936 116.956 112.658 118.357 111.818L118.678 111.625C119.471 111.15 120.333 110.806 121.234 110.605L126.493 109.437L130.951 108.163C131.41 108.032 131.855 107.858 132.282 107.645L132.86 107.355C133.978 106.797 134.884 105.89 135.443 104.773C135.844 103.971 136.053 103.087 136.053 102.19V100.503C136.053 99.1128 135.829 97.7332 135.39 96.4153L135.14 95.6652C134.769 94.5532 134.289 93.4795 133.707 92.4632L131.64 88.8449L126.968 81.5024C126.878 81.3612 127.054 81.2039 127.184 81.3083L130.17 83.6969L131.183 84.4574C132.435 85.3958 133.957 85.9032 135.521 85.9032H136.14C137.046 85.9032 138.277 85.4281 138.996 84.8795C140.157 83.9955 140.466 82.8586 140.466 81.3995V77.8136V76.6075C140.466 73.0333 139.783 69.4901 138.456 66.1704C137.836 64.6201 137.078 63.1287 136.194 61.7122L133.847 57.9572Z" fill="#391832"/>
<path d="M50.6033 95.5785L44.2748 93.9973C44.1389 93.9635 44.0651 94.1503 44.1876 94.218L56.6307 101.131C61.479 104.04 65.6606 107.938 68.9031 112.57L69.1328 112.898L70.2326 114.626C72.8981 118.815 74.6001 123.542 75.216 128.47L75.6448 131.9C75.7157 132.467 75.859 133.022 76.0712 133.553L76.2573 134.018C76.8693 135.549 78.1243 136.731 79.6878 137.253C80.945 137.673 82.3153 137.63 83.5458 137.137C84.6886 136.68 85.655 135.859 86.2882 134.804L86.6915 134.132C87.2372 133.222 87.5956 132.213 87.7456 131.163L87.8467 130.455C88.1139 128.584 87.9158 126.677 87.27 124.901L86.561 122.951C85.7353 120.68 84.5008 118.581 82.9186 116.754L79.5845 112.908C77.0389 109.971 74.1414 107.358 70.9571 105.129L69.859 104.361C64.0312 100.281 57.5046 97.3038 50.6033 95.5785Z" fill="#391832"/>
<path d="M27.7537 97.3611L17.6501 93.9929C18.1223 93.9929 17.8366 93.9929 27.9669 95.1328C34.236 95.8388 40.2738 97.9598 45.5962 101.347C47.5573 102.818 51.6266 105.907 52.215 106.495C52.8033 107.083 56.8727 112.133 58.8338 114.585L64.7171 124.145L72.8068 140.324L78.9676 150.182C80.8964 152.827 83.1027 152.091 83.1027 152.091C83.1027 152.091 84.2305 151.778 84.951 151.201L85.8983 150.442C86.9566 149.597 87.7664 148.48 88.2423 147.211C89.6819 143.372 90.1457 139.236 90.5749 135.159L91.0733 130.424C91.141 129.781 91.6829 129.293 92.329 129.293C92.9462 129.293 93.473 129.739 93.5744 130.348L94.2308 134.287C94.6549 136.831 95.3997 139.311 96.4474 141.669L97.8111 144.737L101.488 152.091L104.543 156.674C106.424 159.495 108.579 162.124 110.977 164.521C112.983 166.528 115.151 168.363 117.459 170.012L124.286 174.889L129.331 177.81C135.262 181.243 141.585 183.948 148.164 185.868C153.316 187.371 158.598 188.383 163.942 188.892L186.797 191.069L201.506 192.539H196.358L177.972 192.907L153.703 193.275L140.285 192.869C133.07 192.65 123.423 191.139 116.372 189.599C110.206 188.252 106.616 186.975 100.854 184.398C99.6845 183.875 98.6138 183.381 97.8111 182.979C89.1121 178.146 81.6936 171.305 76.1736 163.026L64.7171 142.531L55.6591 122.604C54.3462 119.715 52.7587 116.923 50.9528 114.314C48.3905 110.613 45.3369 107.219 41.9191 104.289C37.5261 101.36 32.7623 99.0305 27.7537 97.3611Z" fill="#391832"/>
<path d="M437.602 218.537L437.084 217.941C435.881 216.554 434.404 215.427 432.748 214.633C431.489 214.027 430.141 213.622 428.756 213.433L425.698 213.014H417.617C417.614 213.014 417.614 213.011 417.616 213.009C420.034 211.618 422.725 210.771 425.505 210.528L426.795 210.415C428.512 210.265 430.237 210.292 431.946 210.498L432.737 210.592C434.413 210.794 436.06 211.184 437.647 211.756C439.962 212.588 442.123 213.797 444.042 215.333L444.187 215.449C445.097 216.177 445.953 216.973 446.746 217.829L447.339 218.47C450.033 221.381 452.003 224.886 453.087 228.702L453.243 229.247C453.51 230.19 453.701 231.153 453.813 232.127L454.1 234.603C454.287 236.207 454.287 237.828 454.1 239.433L453.885 241.29C453.732 242.617 453.028 243.816 451.945 244.595C451.138 245.176 450.167 245.472 449.184 245.316L449.023 245.29C447.306 245.012 445.89 243.823 445.222 242.219L445.062 241.835C444.9 241.448 444.781 241.046 444.703 240.636L443.389 233.705C443.363 233.56 443.336 233.417 443.31 233.271C443.2 232.668 442.875 230.884 442.536 229.096C442.114 226.854 441.343 224.696 440.29 222.673L439.875 221.878C439.252 220.68 438.488 219.557 437.602 218.537Z" fill="#391832"/>
<path d="M449.666 269.888L441.232 261.454C441.132 261.354 440.968 261.47 441.028 261.6L446.897 273.923C447.675 275.555 448.286 277.261 448.725 279.015L449.212 280.964C449.428 281.826 449.537 282.709 449.537 283.598V285.422C449.537 286.709 449.098 287.956 448.295 288.961L448.033 289.287C447.124 290.424 445.748 291.086 444.292 291.086C443.394 291.086 442.513 290.833 441.753 290.358L439.08 288.688C437.724 287.84 436.505 286.791 435.464 285.576L434.915 284.936C433.397 283.165 432.179 281.155 431.313 278.988L429.68 274.907L426.739 265.346C425.269 259.472 423.363 253.715 421.033 248.124L420.855 247.696C418.136 242.71 412.908 239.606 407.228 239.606H401.734L403.991 240.017C407.688 240.689 410.901 242.961 412.766 246.225L413.317 247.468C414.892 251.013 415.707 254.849 415.707 258.727L414.236 274.907V277.55C414.236 281.122 415.147 284.635 416.881 287.757C417.568 288.993 418.377 290.156 419.296 291.229L419.54 291.512C421.383 293.663 423.584 295.481 426.043 296.887L427.474 297.705L434.828 302.117L438.377 304.601C440.848 306.331 442.697 308.81 443.65 311.67C443.858 312.293 444.752 312.247 444.895 311.607L445.079 310.781C445.589 308.485 446.742 306.383 448.406 304.719C449.156 303.968 449.807 303.123 450.343 302.207L453.506 296.782C454.29 295.44 454.952 294.028 455.483 292.566L456.492 289.792C457.238 287.743 457.485 285.545 457.214 283.382C457.001 281.67 456.466 280.012 455.641 278.497L454.382 276.191C453.12 273.876 451.531 271.753 449.666 269.888Z" fill="#391832"/>
<path d="M510.916 308.617L514.674 319.891C514.733 320.064 514.486 320.166 514.404 320.003L507.882 306.958C506.964 305.125 505.907 303.366 504.715 301.698L504.453 301.333C503.371 299.817 502.166 298.394 500.848 297.078L499.873 296.101C499.392 295.62 498.878 295.173 498.333 294.766L497.711 294.3C496.718 293.554 495.596 292.998 494.403 292.657L493.21 292.315C491.817 291.918 490.33 291.993 488.985 292.532C487.934 292.952 487.012 293.636 486.306 294.519L482.392 299.412C482.026 299.868 481.295 299.709 481.154 299.142L480.66 297.166C480.248 295.515 479.393 294.008 478.19 292.805L477.536 292.149C476.76 291.376 475.791 290.825 474.729 290.561C473.86 290.343 472.955 290.322 472.079 290.497L471.929 290.527C470.503 290.812 469.209 291.552 468.24 292.635L457.507 304.632C457.45 304.696 457.345 304.634 457.376 304.553L459.437 299.056L462.379 291.702L465.278 284.745C465.792 283.511 466.056 282.189 466.056 280.853C466.056 279.282 465.691 277.732 464.988 276.327L462.665 271.681C461.984 270.322 461.402 268.916 460.922 267.473L460.278 265.543C459.234 262.41 458.701 259.13 458.701 255.828C458.701 255.784 458.76 255.769 458.782 255.808L461.643 260.814L467.526 268.904L474.579 276.544C475.751 277.813 477.144 278.86 478.69 279.632C480.064 280.321 481.541 280.781 483.062 280.999L483.338 281.038C485.043 281.281 486.697 281.799 488.239 282.568L490.363 283.63C492.293 284.596 494.116 285.763 495.803 287.112L497.385 288.376C499.536 290.099 501.5 292.042 503.246 294.175C505.892 297.407 508.004 301.043 509.504 304.943L510.916 308.617Z" fill="#391832"/>
<path d="M522.037 319.767L520.012 336.647C519.992 336.823 519.733 336.817 519.719 336.641L518.36 318.297L516.89 305.794L514.683 295.498L513.558 292.402C512.365 289.122 510.393 286.182 507.811 283.835C505.085 281.356 501.766 279.619 498.176 278.791L496.608 278.429C494.94 278.044 493.337 277.416 491.85 276.567C489.929 275.47 488.235 274.02 486.853 272.294L486.002 271.23L484.965 269.847C481.269 264.917 478.39 259.425 476.441 253.579L472.266 238.965C472.22 238.805 472.432 238.703 472.527 238.839L484.531 255.786L488.876 261.578C490.372 263.572 492.312 265.192 494.542 266.307L494.93 266.501C495.35 266.711 495.787 266.892 496.234 267.041L496.646 267.177C497.389 267.426 498.169 267.552 498.953 267.552H499.223C499.722 267.552 500.219 267.483 500.698 267.346C503.244 266.618 504.882 264.143 504.552 261.516L504.387 260.198C503.902 257.28 502.9 254.471 501.432 251.901L497.769 245.49L495.652 241.785C491.2 233.994 485.728 226.831 479.383 220.485L463.939 207.248L441.141 192.539C445.545 194.007 449.804 195.874 453.87 198.115L459.066 200.983C465.737 204.664 472.098 208.878 478.087 213.584L479.383 214.602L492.621 227.104L494.293 228.999C500.51 236.045 505.874 243.803 510.271 252.109L513.805 260.463C516.834 267.619 519.05 275.089 520.417 282.737C521.495 288.781 522.037 294.909 522.037 301.048V303.588V319.767Z" fill="#391832"/>
<path d="M454.127 128.162L457.276 133.863L457.854 134.99C457.904 135.088 457.814 135.199 457.708 135.172C456.024 134.762 454.431 134.044 453.012 133.056C451.779 132.197 449.729 130.536 448.755 129.396L446.696 126.987L444.996 124.5C444.249 123.408 443.601 122.254 443.059 121.051C442.273 119.309 441.62 117.207 441.348 115.319C441.05 113.245 441.075 111.137 441.419 109.071C441.617 107.885 441.954 106.47 442.342 105.333C442.848 103.851 443.562 102.231 444.341 100.872L445.196 99.3835C446.334 97.6877 447.754 96.1977 449.395 94.9754L450.354 94.2606C452.113 93.1737 454.139 92.5838 456.211 92.5559L456.371 92.5544C456.742 92.5544 458.926 92.2897 461.508 93.2869C463.845 94.19 464.636 94.9622 466.423 96.7037L466.445 96.7257C467.15 97.4141 467.701 98.0083 468.407 99.3835C468.587 99.7336 468.803 100.279 468.975 100.821C469.257 101.716 468.982 102.643 468.451 103.42C468.059 103.993 467.544 104.473 466.942 104.826L464.329 106.354L460.097 108.417L457.194 110.305C456.314 110.877 455.539 111.593 454.9 112.423C454.14 113.41 453.59 114.541 453.281 115.745L452.787 117.671C452.488 118.833 452.338 120.028 452.338 121.229C452.338 123.652 452.953 126.037 454.127 128.162Z" fill="#391832"/>
<path d="M602.198 12.361L623.526 6.47763L618.378 9.41932L611.024 13.0964L599.992 18.2444L589.696 22.6569L574.988 31.482C572.292 32.9528 566.604 36.1887 565.427 37.3654L558.834 43.9591C558.347 44.446 558.073 45.1064 558.073 45.7962V47.6613C558.073 48.0672 558.403 48.3967 558.809 48.3967H561.75H567.634C570.606 48.3967 573.398 46.9994 576.066 45.6918L608.082 30.0111C599.013 36.8756 580.871 50.75 580.871 51.3384C580.871 51.8988 574.655 57.8307 571.096 61.1489C570.75 61.4725 570.468 61.8505 570.256 62.2726C569.983 62.8198 569.84 63.4228 569.84 64.0347V65.3114V66.7822C569.84 67.5941 570.499 68.2531 571.311 68.2531H573.517H576.643C578.472 68.2531 580.293 67.9986 582.052 67.4956C583.71 67.022 585.297 66.3336 586.775 65.4467L596.734 59.4707C598.386 58.4808 600.275 57.9572 602.198 57.9572C601.712 58.9309 601.07 59.8207 600.301 60.5914L590.894 69.9975C590.588 70.3049 590.311 70.6417 590.07 71.0035L589.777 71.4419C589.245 72.2391 588.961 73.1775 588.961 74.1364V76.3427V78.549C588.961 79.2844 589.696 80.0198 589.696 80.7552C589.696 81.3436 591.658 82.4717 592.638 82.9615L596.315 84.4324L597.277 84.7074C600.064 85.5031 602.906 86.0959 605.78 86.4783L606.267 86.543C610.406 87.096 614.468 88.1139 618.378 89.5803H611.024H600.728H597.051C594.844 89.5803 588.961 89.5803 584.548 87.374L572.046 81.4907L569.756 80.6317C567.372 79.7374 564.877 79.1682 562.342 78.9373C559.637 78.6917 556.964 79.6595 555.043 81.5789L554.396 82.2261L551.454 85.1678L549.929 86.999C548.507 88.7066 546.79 90.1451 544.861 91.2468C543.381 92.0925 541.791 92.7323 540.138 93.1456L539.521 93.2986C537.678 93.7604 535.785 93.9928 533.887 93.9928H529.392L519.831 93.2574L525.715 91.7866L531.117 90.4363C533.386 89.8686 535.559 88.9684 537.565 87.7653C540.419 86.0532 542.881 83.7587 544.79 81.0318L545.339 80.2478C546.471 78.6299 547.412 76.8884 548.146 75.0542L548.502 74.1644C549.48 71.7169 549.984 69.1047 549.984 66.4689V65.9468C549.984 64.0641 549.681 62.1947 549.085 60.4091L548.232 57.8498C547.933 56.9526 547.43 56.1377 546.761 55.47C545.131 53.8388 542.719 53.2696 540.53 53.9991L539.132 54.4654C538.043 54.8287 537.04 55.4082 536.181 56.1716L532.95 59.0441C531.561 60.2782 530.293 61.6402 529.161 63.1125L523.508 70.4593C523.508 67.0882 524.41 63.7788 526.119 60.8738L528.374 57.0408C530.026 54.233 532.058 51.6678 534.415 49.4189L538.87 45.1667C544.291 39.9923 550.417 35.6106 557.067 32.1527L565.427 27.8049L586.019 18.9798L602.198 12.361Z" fill="#391832"/>
<path d="M466.931 21.067L469.087 20.4507L459.527 25.5986L452.908 29.2757L452.105 29.7346C445.795 33.3397 439.9 37.6257 434.523 42.5133C429.141 47.8952 424.255 53.7506 419.921 60.009L419.814 60.1635L413.931 68.9885L405.106 87.3741L401.833 94.3518C401.576 95.0622 401.039 95.6373 400.347 95.9447C399.661 96.2491 399.002 96.0197 398.422 95.5637C396.503 94.0532 396.538 91.2394 397.016 88.8449L397.751 86.6386C399.958 81.4907 401.056 76.9664 403.236 72.3641C405.457 67.6736 408.146 63.2199 411.26 59.0691L412.417 57.5248C415.871 52.9195 419.73 48.632 423.949 44.7152L427.904 41.0425L432.263 37.8934C438.169 33.6294 444.476 29.9538 451.097 26.9194C456.22 24.572 461.513 22.6158 466.931 21.067Z" fill="#391832"/>
<path d="M642.647 0L602.043 0.466259C586.488 0.644231 570.98 2.20333 555.701 5.12442L551.751 5.88043C536.397 8.81477 521.39 13.3464 506.976 19.4004C496.929 23.6203 487.202 28.5667 477.872 34.2001L468.841 39.6525C458.263 46.0389 448.547 53.7579 439.933 62.6182C431.457 71.3359 424.116 81.0891 418.083 91.6468L417.107 93.3544C410.12 105.583 404.844 118.712 401.428 132.376H409.518L419.03 117.615C426.887 105.423 435.949 94.0531 446.08 83.6733C456.001 73.5113 466.897 64.3509 478.612 56.323L482.22 53.852C494.524 45.4211 507.529 38.0625 521.092 31.8555L522.249 31.326C536.789 24.6719 551.879 19.2975 567.351 15.2615L594.844 8.08817L642.647 0Z" fill="#391832"/>
<path d="M508.8 57.9572L513.948 51.3384L512.912 51.634C510.191 52.4121 507.623 53.6505 505.32 55.295L505.179 55.3964C504.162 56.1216 503.209 56.9305 502.327 57.813L501.872 58.2675C500.133 60.0061 498.742 62.0594 497.773 64.3201C497.282 65.4688 496.902 66.6616 496.64 67.8839L495.847 71.5845C495.168 74.7513 494.755 77.9695 494.611 81.2038L493.546 105.177C493.419 108.011 493.035 110.827 492.397 113.592L491.957 115.5C491.422 117.823 490.611 120.075 489.545 122.208C488.657 123.985 487.595 125.67 486.374 127.238L483.06 131.499C479.637 135.41 475.816 138.955 471.658 142.073L469.087 144.002L460.262 149.149L444.818 156.504L422.455 164.89C422.292 164.951 422.351 165.195 422.524 165.174L433.051 163.858L447.024 160.181L463.204 155.033L476.441 149.149L480.821 146.79C484.263 144.938 487.471 142.681 490.376 140.066C492.359 138.28 494.194 136.335 495.862 134.251L499.239 130.029L502.449 125.216C503.249 124.014 504.167 122.895 505.187 121.876C507.089 119.972 509.325 118.437 511.784 117.344L512.434 117.056C513.927 116.392 515.504 115.938 517.12 115.707L518.181 115.555C519.275 115.4 520.386 115.413 521.475 115.594C523.29 115.897 524.998 116.659 526.435 117.809L527.679 118.803C527.777 118.881 527.921 118.812 527.921 118.687V118.231C527.921 117.279 527.74 116.336 527.387 115.454C526.779 113.936 525.691 112.658 524.289 111.818L523.969 111.625C523.177 111.15 522.314 110.806 521.412 110.605L516.154 109.437L511.696 108.163C511.237 108.032 510.791 107.858 510.365 107.645L509.787 107.355C508.669 106.797 507.763 105.89 507.204 104.773C506.802 103.971 506.593 103.087 506.593 102.19V100.503C506.593 99.1128 506.818 97.7332 507.257 96.4153L507.507 95.6652C507.878 94.5532 508.357 93.4795 508.939 92.4632L511.006 88.8449L515.679 81.5024C515.769 81.3612 515.594 81.2039 515.463 81.3083L512.477 83.6969L511.463 84.4574C510.212 85.3958 508.689 85.9032 507.126 85.9032H506.507C505.601 85.9032 504.371 85.4281 503.65 84.8795C502.49 83.9955 502.181 82.8586 502.181 81.3995V77.8136V76.6075C502.181 73.0333 502.863 69.4901 504.192 66.1704C504.811 64.6201 505.568 63.1287 506.452 61.7122L508.8 57.9572Z" fill="#391832"/>
<path d="M592.044 95.5785L598.373 93.9973C598.508 93.9635 598.582 94.1503 598.46 94.218L586.016 101.131C581.168 104.04 576.987 107.938 573.743 112.57L573.514 112.898L572.414 114.626C569.749 118.815 568.047 123.542 567.431 128.47L567.003 131.9C566.932 132.467 566.788 133.022 566.576 133.553L566.389 134.018C565.777 135.549 564.523 136.731 562.959 137.253C561.702 137.673 560.332 137.63 559.101 137.137C557.958 136.68 556.992 135.859 556.36 134.804L555.955 134.132C555.409 133.222 555.052 132.213 554.902 131.163L554.8 130.455C554.533 128.584 554.731 126.677 555.377 124.901L556.086 122.951C556.911 120.68 558.147 118.581 559.728 116.754L563.062 112.908C565.608 109.971 568.506 107.358 571.69 105.129L572.787 104.361C578.616 100.281 585.142 97.3038 592.044 95.5785Z" fill="#391832"/>
<path d="M614.893 97.3611L624.997 93.9929C624.524 93.9929 624.811 93.9929 614.68 95.1328C608.411 95.8388 602.374 97.9598 597.051 101.347C595.09 102.818 591.02 105.907 590.432 106.495C589.843 107.083 585.775 112.133 583.813 114.585L577.93 124.145L569.84 140.324L563.68 150.182C561.75 152.827 559.544 152.091 559.544 152.091C559.544 152.091 558.416 151.778 557.697 151.201L556.749 150.442C555.69 149.597 554.881 148.48 554.405 147.211C552.965 143.372 552.502 139.236 552.072 135.159L551.573 130.424C551.506 129.781 550.965 129.293 550.319 129.293C549.701 129.293 549.175 129.739 549.073 130.348L548.417 134.287C547.992 136.831 547.248 139.311 546.2 141.669L544.836 144.737L541.158 152.091L538.103 156.674C536.222 159.495 534.067 162.124 531.67 164.521C529.665 166.528 527.497 168.363 525.189 170.012L518.36 174.889L513.317 177.81C507.385 181.243 501.062 183.948 494.484 185.868C489.332 187.371 484.049 188.383 478.705 188.892L455.85 191.069L441.141 192.539H446.289L464.675 192.907L488.944 193.275L502.363 192.869C509.576 192.65 519.224 191.139 526.275 189.599C532.442 188.252 536.033 186.975 541.792 184.398C542.963 183.875 544.034 183.381 544.836 182.979C553.536 178.146 560.953 171.305 566.473 163.026L577.93 142.531L586.988 122.604C588.3 119.715 589.889 116.923 591.694 114.314C594.256 110.613 597.311 107.219 600.728 104.289C605.121 101.36 609.885 99.0305 614.893 97.3611Z" fill="#391832"/>
<path d="M237.541 276.228L240.786 274.951V246.943L236.806 246.259V243.159H249.577V246.259L245.597 246.943V258.883H249.283L259.222 246.602L256.561 246.259V243.159H267.842V246.259L264.496 246.869L253.629 260.35L266.958 274.907L270.635 276.378V279.169H258.133V276.378L261.075 274.907L249.748 262.669H245.597V274.951L249.577 276.228V279.169H237.541V276.228Z" fill="#391832"/>
<path d="M292.41 280.64C292.263 279.924 292.149 279.281 292.067 278.712C291.986 278.143 291.929 277.572 291.896 277.003C290.968 278.191 289.805 279.184 288.405 279.981C287.02 280.762 285.539 281.153 283.961 281.153C281.209 281.153 279.118 280.486 277.685 279.152C276.252 277.8 275.536 275.904 275.536 273.462C275.536 270.955 276.545 269.026 278.565 267.675C280.599 266.307 283.383 265.623 286.915 265.623H291.871V262.547C291.871 261 291.383 259.779 290.406 258.883C289.43 257.973 288.071 257.517 286.329 257.517C285.125 257.517 284.058 257.671 283.13 257.98C282.218 258.289 281.478 258.713 280.908 259.25L280.396 262.034H276.683V256.906C277.888 255.946 279.346 255.181 281.055 254.61C282.764 254.025 284.62 253.732 286.622 253.732C289.618 253.732 292.043 254.497 293.898 256.027C295.754 257.557 296.682 259.747 296.682 262.596V275.317C296.682 275.66 296.682 275.994 296.682 276.319C296.699 276.644 296.724 276.97 296.756 277.295L298.709 277.565V280.64H292.41ZM284.669 277.125C286.264 277.125 287.721 276.742 289.04 275.977C290.358 275.211 291.302 274.292 291.871 273.218V268.87H286.744C284.774 268.87 283.211 269.326 282.056 270.238C280.916 271.15 280.347 272.258 280.347 273.559C280.347 274.715 280.705 275.602 281.421 276.222C282.137 276.823 283.22 277.125 284.669 277.125Z" fill="#391832"/>
<path d="M302.128 287.697L306.108 287.013V258.005L302.128 257.321V254.221H310.235L310.675 257.443C311.553 256.239 312.619 255.319 313.872 254.684C315.143 254.049 316.608 253.732 318.269 253.732C321.54 253.732 324.08 255.034 325.886 257.639C327.71 260.228 328.622 263.653 328.622 267.919V268.432C328.622 272.242 327.71 275.317 325.886 277.662C324.064 279.99 321.549 281.153 318.342 281.153C316.714 281.153 315.281 280.884 314.044 280.347C312.824 279.794 311.781 278.981 310.919 277.906V287.013L314.899 287.697V290.799H302.128V287.697ZM323.787 267.919C323.787 264.906 323.2 262.441 322.028 260.52C320.857 258.599 319.114 257.639 316.804 257.639C315.436 257.639 314.264 257.948 313.287 258.567C312.31 259.185 311.52 260.032 310.919 261.106V273.974C311.52 275.066 312.301 275.911 313.262 276.514C314.24 277.1 315.436 277.392 316.852 277.392C319.131 277.392 320.857 276.563 322.028 274.902C323.2 273.242 323.787 271.085 323.787 268.432V267.919Z" fill="#391832"/>
<path d="M332.089 245.649V242.548H340.88V276.881L344.86 277.564V280.64H332.089V277.564L336.069 276.881V246.333L332.089 245.649Z" fill="#391832"/>
<path d="M365.762 280.64C365.615 279.924 365.502 279.281 365.419 278.712C365.339 278.143 365.281 277.572 365.249 277.003C364.321 278.191 363.157 279.184 361.757 279.981C360.373 280.762 358.892 281.153 357.314 281.153C354.562 281.153 352.47 280.486 351.038 279.152C349.605 277.8 348.889 275.904 348.889 273.462C348.889 270.955 349.898 269.026 351.917 267.675C353.951 266.307 356.736 265.623 360.267 265.623H365.225V262.547C365.225 261 364.737 259.779 363.759 258.883C362.782 257.973 361.423 257.517 359.682 257.517C358.477 257.517 357.411 257.671 356.483 257.98C355.571 258.289 354.831 258.713 354.26 259.25L353.748 262.034H350.036V256.906C351.241 255.946 352.698 255.181 354.407 254.61C356.116 254.025 357.973 253.732 359.974 253.732C362.971 253.732 365.396 254.497 367.252 256.027C369.107 257.557 370.035 259.747 370.035 262.596V275.317C370.035 275.66 370.035 275.994 370.035 276.319C370.051 276.644 370.076 276.97 370.109 277.295L372.062 277.565V280.64H365.762ZM358.021 277.125C359.617 277.125 361.073 276.742 362.393 275.977C363.71 275.211 364.655 274.292 365.225 273.218V268.87H360.097C358.127 268.87 356.565 269.326 355.409 270.238C354.269 271.15 353.7 272.258 353.7 273.559C353.7 274.715 354.057 275.602 354.774 276.222C355.49 276.823 356.572 277.125 358.021 277.125Z" fill="#391832"/>
<path d="M375.358 277.565L379.338 276.881V258.005L375.358 257.321V254.221H383.636L383.979 258.151C384.857 256.752 385.956 255.67 387.275 254.903C388.609 254.122 390.124 253.732 391.817 253.732C394.666 253.732 396.871 254.571 398.434 256.246C399.996 257.907 400.777 260.479 400.777 263.964V276.881L404.759 277.565V280.64H391.988V277.565L395.968 276.881V264.061C395.968 261.732 395.504 260.081 394.576 259.104C393.664 258.127 392.264 257.639 390.375 257.639C388.991 257.639 387.763 257.973 386.688 258.639C385.631 259.307 384.783 260.219 384.149 261.375V276.881L388.129 277.565V280.64H375.358V277.565Z" fill="#391832"/>
<path d="M230.922 314.772L233.616 314.311V295.365L230.922 294.901V292.804H239.562V294.901L236.869 295.365V303.441H239.364L246.087 295.132L244.285 294.901V292.804H251.917V294.901L249.654 295.315L242.304 304.432L250.332 314.361L252.594 314.772V316.855H244.698V314.772L246.533 314.541L239.677 306.002H236.869V314.311L239.562 314.772V316.855H230.922V314.772Z" fill="#391832"/>
<path d="M256.282 314.772L258.973 314.311V293.647L256.282 293.183V291.086H262.228V301.36C262.844 300.501 263.599 299.834 264.49 299.361C265.383 298.889 266.373 298.652 267.464 298.652C269.379 298.652 270.866 299.224 271.924 300.37C272.982 301.514 273.51 303.276 273.51 305.655V314.311L276.203 314.772V316.855H267.563V314.772L270.256 314.311V305.622C270.256 304.147 269.935 303.056 269.297 302.351C268.669 301.647 267.728 301.294 266.473 301.294C265.58 301.294 264.765 301.508 264.029 301.938C263.302 302.357 262.7 302.929 262.228 303.656V314.311L264.92 314.772V316.855H256.282V314.772Z" fill="#391832"/>
<path d="M292.871 314.212C292.309 315.17 291.583 315.908 290.69 316.426C289.809 316.942 288.791 317.201 287.635 317.201C285.696 317.201 284.183 316.579 283.092 315.334C282.002 314.09 281.457 312.153 281.457 309.52V301.542L279.409 301.079V298.981H281.457H284.711V309.554C284.711 311.459 284.992 312.769 285.554 313.485C286.116 314.2 286.991 314.558 288.179 314.558C289.337 314.558 290.288 314.327 291.037 313.865C291.798 313.391 292.37 312.725 292.755 311.866V301.542L290.361 301.079V298.981H292.755H296.01V314.311L298.057 314.772V316.855H293.086L292.871 314.212Z" fill="#391832"/>
<path d="M302.156 301.079V298.981H307.756L308.071 301.575C308.577 300.661 309.199 299.945 309.937 299.427C310.686 298.909 311.539 298.652 312.496 298.652C312.751 298.652 313.01 298.674 313.273 298.717C313.548 298.75 313.758 298.789 313.901 298.833L313.472 301.855L311.621 301.757C310.762 301.757 310.042 301.96 309.458 302.367C308.874 302.764 308.422 303.326 308.103 304.053V314.311L310.796 314.772V316.855H302.156V314.772L304.85 314.311V301.542L302.156 301.079Z" fill="#391832"/>
<path d="M329.349 316.855C329.25 316.37 329.174 315.934 329.118 315.549C329.063 315.164 329.024 314.778 329.002 314.393C328.375 315.197 327.587 315.868 326.641 316.408C325.704 316.937 324.702 317.201 323.634 317.201C321.772 317.201 320.357 316.749 319.388 315.846C318.419 314.933 317.935 313.65 317.935 311.998C317.935 310.302 318.617 308.998 319.984 308.083C321.361 307.158 323.243 306.696 325.632 306.696H328.985V304.615C328.985 303.568 328.656 302.742 327.994 302.136C327.334 301.52 326.414 301.211 325.236 301.211C324.421 301.211 323.699 301.316 323.073 301.526C322.455 301.735 321.955 302.022 321.569 302.385L321.222 304.268H318.712V300.799C319.526 300.149 320.512 299.632 321.668 299.246C322.824 298.849 324.08 298.652 325.435 298.652C327.46 298.652 329.102 299.168 330.356 300.204C331.612 301.239 332.24 302.72 332.24 304.647V313.253C332.24 313.485 332.24 313.71 332.24 313.931C332.251 314.15 332.267 314.371 332.289 314.591L333.611 314.772V316.855H329.349ZM324.112 314.475C325.192 314.475 326.178 314.216 327.07 313.7C327.962 313.182 328.6 312.56 328.985 311.832V308.892H325.517C324.185 308.892 323.127 309.201 322.346 309.817C321.575 310.435 321.188 311.184 321.188 312.065C321.188 312.846 321.431 313.446 321.917 313.865C322.4 314.272 323.133 314.475 324.112 314.475Z" fill="#391832"/>
<path d="M337.198 314.772L339.89 314.311V301.542L337.198 301.079V298.981H342.814L343.028 301.311C343.601 300.463 344.339 299.808 345.242 299.345C346.145 298.883 347.191 298.652 348.381 298.652C349.569 298.652 350.589 298.927 351.436 299.477C352.295 300.027 352.939 300.854 353.369 301.955C353.93 300.942 354.673 300.138 355.598 299.543C356.524 298.949 357.603 298.652 358.837 298.652C360.664 298.652 362.107 299.279 363.164 300.535C364.222 301.779 364.75 303.656 364.75 306.166V314.311L367.443 314.772V316.855H358.787V314.772L361.479 314.311V306.134C361.479 304.372 361.176 303.128 360.571 302.401C359.965 301.663 359.068 301.294 357.878 301.294C356.744 301.294 355.831 301.697 355.136 302.5C354.454 303.292 354.057 304.296 353.947 305.506V314.311L356.64 314.772V316.855H348V314.772L350.693 314.311V306.134C350.693 304.46 350.38 303.238 349.752 302.467C349.134 301.685 348.237 301.294 347.059 301.294C346.067 301.294 345.252 301.498 344.614 301.905C343.976 302.313 343.486 302.885 343.145 303.623V314.311L345.836 314.772V316.855H337.198V314.772Z" fill="#391832"/>
<path d="M383.004 316.855C382.906 316.37 382.829 315.934 382.773 315.549C382.719 315.164 382.681 314.778 382.659 314.393C382.031 315.197 381.244 315.868 380.297 316.408C379.36 316.937 378.358 317.201 377.29 317.201C375.428 317.201 374.013 316.749 373.045 315.846C372.076 314.933 371.591 313.65 371.591 311.998C371.591 310.302 372.273 308.998 373.639 308.083C375.016 307.158 376.899 306.696 379.289 306.696H382.641V304.615C382.641 303.568 382.312 302.742 381.651 302.136C380.989 301.52 380.07 301.211 378.892 301.211C378.077 301.211 377.356 301.316 376.728 301.526C376.112 301.735 375.61 302.022 375.225 302.385L374.878 304.268H372.367V300.799C373.182 300.149 374.167 299.632 375.324 299.246C376.48 298.849 377.736 298.652 379.09 298.652C381.116 298.652 382.757 299.168 384.013 300.204C385.268 301.239 385.896 302.72 385.896 304.647V313.253C385.896 313.485 385.896 313.71 385.896 313.931C385.906 314.15 385.924 314.371 385.945 314.591L387.267 314.772V316.855H383.004ZM377.768 314.475C378.848 314.475 379.833 314.216 380.726 313.7C381.617 313.182 382.256 312.56 382.641 311.832V308.892H379.173C377.84 308.892 376.783 309.201 376.002 309.817C375.231 310.435 374.846 311.184 374.846 312.065C374.846 312.846 375.087 313.446 375.572 313.865C376.056 314.272 376.789 314.475 377.768 314.475Z" fill="#391832"/>
<path d="M391.019 314.772L393.712 314.311V301.542L391.019 301.079V298.981H396.618L396.849 301.641C397.445 300.693 398.188 299.963 399.081 299.445C399.982 298.915 401.007 298.652 402.152 298.652C404.08 298.652 405.571 299.218 406.629 300.352C407.687 301.476 408.215 303.216 408.215 305.572V314.311L410.908 314.772V316.855H402.268V314.772L404.961 314.311V305.638C404.961 304.063 404.646 302.945 404.018 302.285C403.402 301.625 402.455 301.294 401.178 301.294C400.241 301.294 399.41 301.52 398.684 301.972C397.967 302.423 397.395 303.039 396.966 303.822V314.311L399.659 314.772V316.855H391.019V314.772Z" fill="#391832"/>
<path d="M252.256 337.728C252.153 337.254 252.079 336.844 252.035 336.5C251.992 336.156 251.972 335.805 251.972 335.452C251.454 336.185 250.764 336.792 249.902 337.275C249.04 337.757 248.071 338 246.994 338C245.624 338 244.563 337.645 243.814 336.939C243.064 336.232 242.689 335.276 242.689 334.07C242.689 332.777 243.245 331.75 244.357 330.993C245.469 330.234 246.977 329.854 248.881 329.854H251.972V328.007C251.972 327.007 251.648 326.223 251.001 325.654C250.364 325.085 249.467 324.801 248.312 324.801C247.537 324.801 246.825 324.908 246.18 325.124C245.541 325.33 245.007 325.615 244.576 325.977L244.447 327.851H243.167L243.18 325.162C243.826 324.662 244.598 324.258 245.494 323.948C246.399 323.637 247.361 323.481 248.377 323.481C249.92 323.481 251.161 323.874 252.1 324.658C253.04 325.442 253.509 326.567 253.509 328.032V334.91C253.509 335.194 253.513 335.47 253.522 335.736C253.54 335.995 253.569 336.25 253.613 336.5L255.009 336.591V337.728H252.256ZM247.162 336.629C248.283 336.629 249.27 336.37 250.123 335.854C250.976 335.336 251.592 334.669 251.972 333.849V331.044H248.855C247.45 331.044 246.327 331.337 245.481 331.924C244.645 332.501 244.228 333.233 244.228 334.121C244.228 334.871 244.487 335.479 245.003 335.944C245.529 336.401 246.249 336.629 247.162 336.629Z" fill="#391832"/>
<path d="M264.636 336.694C265.661 336.694 266.566 336.401 267.35 335.814C268.135 335.229 268.527 334.414 268.527 333.371H269.897L269.922 333.449C269.967 334.742 269.449 335.823 268.372 336.694C267.303 337.565 266.057 338 264.636 338C262.74 338 261.271 337.348 260.228 336.047C259.185 334.738 258.663 333.056 258.663 331.006V330.462C258.663 328.429 259.185 326.757 260.228 325.446C261.271 324.137 262.736 323.481 264.623 323.481C265.7 323.481 266.687 323.684 267.584 324.089C268.48 324.495 269.208 325.046 269.768 325.743L269.833 328.795H268.513L268.268 326.313C267.854 325.848 267.338 325.482 266.717 325.214C266.106 324.939 265.407 324.801 264.623 324.801C263.123 324.801 262.011 325.339 261.287 326.417C260.572 327.485 260.215 328.834 260.215 330.462V331.006C260.215 332.661 260.572 334.021 261.287 335.091C262.003 336.16 263.118 336.694 264.636 336.694Z" fill="#391832"/>
<path d="M280.234 336.694C281.259 336.694 282.163 336.401 282.949 335.814C283.733 335.229 284.124 334.414 284.124 333.371H285.495L285.521 333.449C285.564 334.742 285.046 335.823 283.97 336.694C282.9 337.565 281.656 338 280.234 338C278.338 338 276.868 337.348 275.826 336.047C274.783 334.738 274.261 333.056 274.261 331.006V330.462C274.261 328.429 274.783 326.757 275.826 325.446C276.868 324.137 278.333 323.481 280.22 323.481C281.299 323.481 282.284 323.684 283.181 324.089C284.077 324.495 284.805 325.046 285.365 325.743L285.43 328.795H284.112L283.867 326.313C283.452 325.848 282.936 325.482 282.315 325.214C281.703 324.939 281.004 324.801 280.22 324.801C278.722 324.801 277.61 325.339 276.886 326.417C276.17 327.485 275.812 328.834 275.812 330.462V331.006C275.812 332.661 276.17 334.021 276.886 335.091C277.601 336.16 278.717 336.694 280.234 336.694Z" fill="#391832"/>
<path d="M296.027 338C294.269 338 292.811 337.357 291.657 336.073C290.502 334.78 289.926 333.139 289.926 331.147V330.437C289.926 328.438 290.498 326.779 291.644 325.46C292.8 324.142 294.191 323.481 295.819 323.481C297.534 323.481 298.883 324.025 299.866 325.111C300.848 326.196 301.339 327.644 301.339 329.454V330.772H291.463V331.147C291.463 332.717 291.882 334.035 292.717 335.104C293.562 336.163 294.665 336.694 296.027 336.694C296.983 336.694 297.802 336.56 298.483 336.292C299.164 336.026 299.745 335.642 300.227 335.142L300.888 336.203C300.361 336.754 299.698 337.194 298.896 337.52C298.095 337.84 297.139 338 296.027 338ZM295.819 324.801C294.682 324.801 293.722 325.24 292.937 326.118C292.161 326.989 291.708 328.084 291.58 329.403L291.605 329.468H299.801V329.079C299.801 327.864 299.444 326.847 298.729 326.029C298.014 325.209 297.043 324.801 295.819 324.801Z" fill="#391832"/>
<path d="M315.711 328.059H314.443L314.262 326.08C313.874 325.676 313.384 325.361 312.788 325.136C312.203 324.912 311.526 324.801 310.759 324.801C309.63 324.801 308.782 325.046 308.212 325.538C307.652 326.02 307.373 326.589 307.373 327.244C307.373 327.889 307.614 328.425 308.096 328.847C308.588 329.269 309.561 329.64 311.017 329.959C312.681 330.329 313.927 330.837 314.753 331.484C315.581 332.121 315.995 332.992 315.995 334.095C315.995 335.258 315.521 336.203 314.572 336.926C313.633 337.641 312.388 338 310.836 338C309.802 338 308.858 337.857 308.005 337.572C307.161 337.279 306.428 336.87 305.808 336.345V333.526H307.062L307.281 335.517C307.695 335.931 308.217 336.232 308.846 336.422C309.483 336.603 310.147 336.694 310.836 336.694C311.957 336.694 312.84 336.448 313.487 335.957C314.133 335.466 314.456 334.871 314.456 334.173C314.456 333.518 314.184 332.945 313.641 332.453C313.107 331.962 312.138 331.562 310.734 331.252C309.07 330.89 307.833 330.41 307.023 329.816C306.221 329.213 305.821 328.373 305.821 327.295C305.821 326.227 306.274 325.326 307.178 324.593C308.083 323.852 309.277 323.481 310.759 323.481C311.785 323.481 312.719 323.642 313.565 323.961C314.418 324.271 315.111 324.693 315.646 325.227L315.711 328.059Z" fill="#391832"/>
<path d="M330.429 328.059H329.163L328.982 326.08C328.594 325.676 328.102 325.361 327.508 325.136C326.921 324.912 326.245 324.801 325.478 324.801C324.349 324.801 323.5 325.046 322.931 325.538C322.372 326.02 322.091 326.589 322.091 327.244C322.091 327.889 322.332 328.425 322.815 328.847C323.306 329.269 324.28 329.64 325.737 329.959C327.401 330.329 328.645 330.837 329.473 331.484C330.3 332.121 330.713 332.992 330.713 334.095C330.713 335.258 330.24 336.203 329.292 336.926C328.352 337.641 327.107 338 325.556 338C324.522 338 323.578 337.857 322.725 337.572C321.881 337.279 321.148 336.87 320.528 336.345V333.526H321.781L322.001 335.517C322.415 335.931 322.935 336.232 323.565 336.422C324.203 336.603 324.867 336.694 325.556 336.694C326.676 336.694 327.56 336.448 328.205 335.957C328.853 335.466 329.176 334.871 329.176 334.173C329.176 333.518 328.904 332.945 328.361 332.453C327.827 331.962 326.857 331.562 325.452 331.252C323.788 330.89 322.553 330.41 321.742 329.816C320.941 329.213 320.539 328.373 320.539 327.295C320.539 326.227 320.992 325.326 321.897 324.593C322.803 323.852 323.996 323.481 325.478 323.481C326.504 323.481 327.439 323.642 328.283 323.961C329.136 324.271 329.831 324.693 330.365 325.227L330.429 328.059Z" fill="#391832"/>
<path d="M335 330.527C335 328.467 335.565 326.779 336.695 325.46C337.823 324.142 339.319 323.481 341.18 323.481C343.05 323.481 344.549 324.142 345.679 325.46C346.808 326.779 347.372 328.467 347.372 330.527V330.953C347.372 333.023 346.808 334.716 345.679 336.035C344.558 337.344 343.068 338 341.206 338C339.328 338 337.823 337.344 336.695 336.035C335.565 334.716 335 333.023 335 330.953V330.527ZM336.552 330.953C336.552 332.574 336.961 333.936 337.78 335.039C338.6 336.142 339.741 336.694 341.206 336.694C342.646 336.694 343.774 336.142 344.593 335.039C345.411 333.936 345.821 332.574 345.821 330.953V330.527C345.821 328.932 345.407 327.581 344.58 326.469C343.761 325.357 342.628 324.801 341.18 324.801C339.732 324.801 338.6 325.357 337.78 326.469C336.961 327.581 336.552 328.932 336.552 330.527V330.953Z" fill="#391832"/>
<path d="M354.698 323.74L354.891 326.067V326.235C355.288 325.374 355.826 324.701 356.507 324.218C357.197 323.727 358.012 323.481 358.95 323.481C359.149 323.481 359.338 323.499 359.519 323.534C359.709 323.559 359.864 323.59 359.984 323.624L359.778 325.071L358.628 324.995C357.653 324.995 356.853 325.27 356.223 325.821C355.602 326.364 355.158 327.114 354.891 328.072V336.422L356.998 336.591V337.728H351.246V336.591L353.354 336.422V325.059L351.246 324.89V323.74H353.354H354.698Z" fill="#391832"/>
<path d="M363.354 336.591L365.462 336.422V325.06L363.354 324.89V323.74H367.001V336.422L369.107 336.591V337.728H363.354V336.591ZM367.001 319.734H365.462V317.561H367.001V319.734Z" fill="#391832"/>
<path d="M379.328 338C377.57 338 376.114 337.357 374.959 336.073C373.803 334.78 373.227 333.139 373.227 331.147V330.437C373.227 328.438 373.799 326.779 374.946 325.46C376.101 324.142 377.492 323.481 379.122 323.481C380.837 323.481 382.185 324.025 383.168 325.111C384.151 326.196 384.642 327.644 384.642 329.454V330.772H374.765V331.147C374.765 332.717 375.183 334.035 376.018 335.104C376.864 336.163 377.967 336.694 379.328 336.694C380.285 336.694 381.103 336.56 381.784 336.292C382.465 336.026 383.047 335.642 383.53 335.142L384.189 336.203C383.664 336.754 382.999 337.194 382.197 337.52C381.397 337.84 380.44 338 379.328 338ZM379.122 324.801C377.983 324.801 377.023 325.24 376.239 326.118C375.462 326.989 375.011 328.084 374.881 329.403L374.906 329.468H383.103V329.079C383.103 327.864 382.746 326.847 382.03 326.029C381.315 325.209 380.345 324.801 379.122 324.801Z" fill="#391832"/>
<path d="M399.012 328.059H397.745L397.563 326.08C397.176 325.676 396.685 325.361 396.091 325.136C395.504 324.912 394.827 324.801 394.061 324.801C392.931 324.801 392.083 325.046 391.513 325.538C390.953 326.02 390.674 326.589 390.674 327.244C390.674 327.889 390.915 328.425 391.397 328.847C391.888 329.269 392.862 329.64 394.318 329.959C395.982 330.329 397.228 330.837 398.054 331.484C398.882 332.121 399.296 332.992 399.296 334.095C399.296 335.258 398.822 336.203 397.873 336.926C396.935 337.641 395.689 338 394.137 338C393.103 338 392.161 337.857 391.307 337.572C390.462 337.279 389.729 336.87 389.109 336.345V333.526H390.363L390.582 335.517C390.997 335.931 391.518 336.232 392.147 336.422C392.784 336.603 393.449 336.694 394.137 336.694C395.258 336.694 396.142 336.448 396.788 335.957C397.435 335.466 397.757 334.871 397.757 334.173C397.757 333.518 397.486 332.945 396.944 332.453C396.408 331.962 395.439 331.562 394.034 331.252C392.371 330.89 391.134 330.41 390.325 329.816C389.523 329.213 389.122 328.373 389.122 327.295C389.122 326.227 389.575 325.326 390.479 324.593C391.384 323.852 392.578 323.481 394.061 323.481C395.086 323.481 396.021 323.642 396.866 323.961C397.719 324.271 398.413 324.693 398.947 325.227L399.012 328.059Z" fill="#391832"/>
<path d="M233.407 236.753C232.011 236.368 232.074 234.369 233.491 234.072L240.502 232.601C243.101 232.057 244.963 229.764 244.963 227.107V148.513C244.963 143.91 241.233 140.18 236.631 140.18H236.088C234.707 140.18 233.586 139.06 233.586 137.678C233.586 136.296 234.707 135.177 236.088 135.177H267.589C268.97 135.177 270.091 136.296 270.091 137.678C270.091 139.06 268.97 140.18 267.589 140.18H267.046C262.444 140.18 258.714 143.91 258.714 148.513V180.127L300.387 143.11C301.541 142.085 300.815 140.18 299.274 140.18H292.555C291.173 140.18 290.053 139.06 290.053 137.678C290.053 136.296 291.173 135.177 292.555 135.177H319.798C321.179 135.177 322.3 136.296 322.3 137.678C322.3 139.06 321.179 140.18 319.798 140.18H319.208C313.812 140.18 308.601 142.15 304.553 145.721L274.381 172.343L320.462 231.181C320.709 231.499 321.035 231.746 321.407 231.902L325.505 233.61C326.899 234.191 326.857 236.179 325.439 236.7C325.255 236.768 325.061 236.803 324.867 236.803H292.032C291.877 236.803 291.724 236.772 291.581 236.715C290.492 236.271 290.636 234.682 291.789 234.442L300.783 232.568C302.783 232.151 303.654 229.784 302.401 228.171L265.09 180.127L258.714 185.922V227.016C258.714 229.73 260.604 232.079 263.257 232.657L270.172 234.164C271.509 234.457 271.593 236.334 270.285 236.743C270.156 236.782 270.022 236.803 269.888 236.803H233.773C233.649 236.803 233.526 236.785 233.407 236.753Z" fill="#391832"/>
<path d="M406.813 236.753C408.207 236.368 408.144 234.369 406.729 234.072L399.716 232.601C397.117 232.057 395.255 229.764 395.255 227.107V148.513C395.255 143.91 398.985 140.18 403.587 140.18H404.13C405.513 140.18 406.632 139.06 406.632 137.678C406.632 136.296 405.513 135.177 404.13 135.177H372.629C371.248 135.177 370.127 136.296 370.127 137.678C370.127 139.06 371.248 140.18 372.629 140.18H373.172C377.774 140.18 381.506 143.91 381.506 148.513V180.127L339.831 143.11C338.679 142.085 339.403 140.18 340.944 140.18H347.665C349.046 140.18 350.165 139.06 350.165 137.678C350.165 136.296 349.046 135.177 347.665 135.177H320.42C319.039 135.177 317.918 136.296 317.918 137.678C317.918 139.06 319.039 140.18 320.42 140.18H321.01C326.406 140.18 331.619 142.15 335.665 145.721L365.837 172.343L319.758 231.181C319.51 231.499 319.183 231.746 318.812 231.902L314.713 233.61C313.32 234.191 313.362 236.179 314.779 236.7C314.963 236.768 315.157 236.803 315.353 236.803H348.187C348.341 236.803 348.494 236.772 348.637 236.715C349.728 236.271 349.583 234.682 348.431 234.442L339.435 232.568C337.436 232.151 336.564 229.784 337.817 228.171L375.128 180.127L381.506 185.922V227.016C381.506 229.73 379.614 232.079 376.962 232.657L370.046 234.164C368.709 234.457 368.627 236.334 369.933 236.743C370.063 236.782 370.196 236.803 370.332 236.803H406.445C406.569 236.803 406.692 236.785 406.813 236.753Z" fill="#391832"/>
</svg>
