<svg width="80" height="50" viewBox="0 0 80 50" fill="none" xmlns="http://www.w3.org/2000/svg">
<path d="M27.1762 35.0261L27.2448 34.9471C27.4044 34.7632 27.6 34.614 27.8195 34.5087C27.9865 34.4285 28.165 34.3748 28.3486 34.3497L28.7538 34.2941H29.825C29.8253 34.2941 29.8254 34.2937 29.8251 34.2936C29.5047 34.109 29.1478 33.9967 28.7794 33.9646L28.6084 33.9496C28.3811 33.9298 28.1523 33.9335 27.9257 33.9607L27.8208 33.9733C27.5988 33.9999 27.3805 34.0516 27.1701 34.1274C26.8634 34.2378 26.5771 34.398 26.3226 34.6016L26.3035 34.6168C26.1828 34.7134 26.0694 34.8189 25.9643 34.9324L25.8857 35.0173C25.5285 35.403 25.2675 35.8677 25.1238 36.3734L25.1033 36.4456C25.0678 36.5706 25.0425 36.6982 25.0275 36.8273L24.9895 37.1554C24.9649 37.3681 24.9649 37.5829 24.9895 37.7956L25.018 38.0419C25.0384 38.2176 25.1317 38.3766 25.2752 38.4799C25.3823 38.5569 25.5109 38.596 25.6411 38.5754L25.6626 38.572C25.89 38.535 26.0777 38.3776 26.1663 38.1649L26.1875 38.1139C26.2089 38.0628 26.2248 38.0095 26.2351 37.955L26.4091 37.0365C26.4127 37.0173 26.4162 36.9983 26.4197 36.9791C26.4343 36.899 26.4775 36.6626 26.5222 36.4255C26.5782 36.1285 26.6803 35.8424 26.8199 35.5743L26.8748 35.469C26.9576 35.3101 27.0587 35.1615 27.1762 35.0261Z" fill="#8D387B"/>
<path d="M25.5771 41.8321L26.6949 40.7144C26.7082 40.701 26.7301 40.7164 26.7219 40.7335L25.9442 42.3668C25.8412 42.5831 25.76 42.8092 25.7019 43.0417L25.6373 43.2999C25.6087 43.4142 25.5943 43.5314 25.5943 43.6491V43.8909C25.5943 44.0613 25.6523 44.2267 25.7588 44.3598L25.7935 44.4032C25.914 44.5539 26.0965 44.6415 26.2894 44.6415C26.4084 44.6415 26.5251 44.6081 26.626 44.545L26.9801 44.3237C27.1599 44.2114 27.3215 44.0723 27.4595 43.9114L27.5322 43.8265C27.7334 43.5917 27.8947 43.3254 28.0096 43.0382L28.226 42.4972L28.6159 41.2301C28.8106 40.4514 29.0633 39.6884 29.372 38.9475L29.3957 38.8908C29.7562 38.2298 30.4489 37.8186 31.2018 37.8186H31.9299L31.6309 37.873C31.1407 37.9621 30.715 38.2633 30.4678 38.6958L30.3947 38.8605C30.1858 39.3303 30.078 39.8387 30.078 40.3528L30.2729 42.4972V42.8475C30.2729 43.3209 30.1522 43.7865 29.9223 44.2004C29.8314 44.3641 29.7241 44.5183 29.6022 44.6605L29.57 44.6981C29.3256 44.9832 29.0341 45.2241 28.7081 45.4104L28.5184 45.5188L27.5437 46.1036L27.0733 46.4329C26.7458 46.6621 26.5008 46.9906 26.3744 47.3698C26.3469 47.4522 26.2284 47.4461 26.2095 47.3613L26.1852 47.2517C26.1176 46.9475 25.9646 46.6688 25.7442 46.4485C25.6447 46.3489 25.5584 46.237 25.4875 46.1154L25.0681 45.3966C24.9643 45.2185 24.8766 45.0314 24.8061 44.8377L24.6724 44.47C24.5736 44.1984 24.5408 43.9072 24.5767 43.6204C24.605 43.3935 24.6758 43.1739 24.7853 42.9731L24.9521 42.6674C25.1194 42.3606 25.3299 42.0793 25.5771 41.8321Z" fill="#8D387B"/>
<path d="M17.4591 46.965L16.961 48.4592C16.9534 48.4822 16.9861 48.4958 16.997 48.4741L17.8615 46.7451C17.9829 46.5022 18.1232 46.2691 18.2811 46.0481L18.3158 45.9996C18.4592 45.7988 18.619 45.6102 18.7935 45.4357L18.9229 45.3063C18.9866 45.2425 19.0549 45.1834 19.127 45.1293L19.2094 45.0674C19.3411 44.9687 19.4896 44.8949 19.6478 44.8497L19.8059 44.8046C19.9906 44.7518 20.1876 44.7619 20.366 44.8332C20.5051 44.8889 20.6274 44.9796 20.721 45.0966L21.2397 45.745C21.2882 45.8056 21.385 45.7845 21.4039 45.7092L21.4693 45.4474C21.524 45.2286 21.6371 45.0288 21.7966 44.8694L21.8834 44.7825C21.986 44.6799 22.1146 44.6071 22.2554 44.5719C22.3705 44.5431 22.4904 44.5403 22.6067 44.5635L22.6265 44.5675C22.8154 44.6053 22.9869 44.7033 23.1154 44.8469L24.538 46.4369C24.5456 46.4453 24.5593 46.4371 24.5553 46.4264L24.2821 45.6979L23.8922 44.7232L23.508 43.8011C23.4399 43.6377 23.4048 43.4624 23.4048 43.2853C23.4048 43.0771 23.4533 42.8717 23.5464 42.6855L23.8543 42.0697C23.9444 41.8895 24.0216 41.7031 24.0853 41.512L24.1706 41.2562C24.309 40.841 24.3795 40.4063 24.3795 39.9687C24.3795 39.9628 24.3717 39.9607 24.3688 39.9659L23.9897 40.6294L23.2099 41.7016L22.2752 42.7141C22.1199 42.8824 21.9353 43.0212 21.7304 43.1236C21.5483 43.2147 21.3527 43.2758 21.1511 43.3046L21.1143 43.3098C20.8883 43.3421 20.669 43.4106 20.4649 43.5127L20.1834 43.6534C19.9275 43.7814 19.6858 43.9361 19.4623 44.1148L19.2527 44.2825C18.9675 44.5107 18.7071 44.7682 18.4759 45.0508C18.1252 45.4794 17.8452 45.9613 17.6464 46.4781L17.4591 46.965Z" fill="#8D387B"/>
<path d="M15.9852 48.4429L16.1621 49.9172C16.1757 50.0301 16.3408 50.0264 16.3492 49.9129L16.4725 48.2479L16.6675 46.5909L16.9599 45.2263L17.1091 44.8159C17.2672 44.3813 17.5286 43.9916 17.8708 43.6805C18.2322 43.352 18.6719 43.1218 19.1477 43.012L19.3555 42.964C19.5767 42.913 19.7892 42.8298 19.9863 42.7172C20.2407 42.5718 20.4654 42.3797 20.6484 42.1509L20.7612 42.0098L20.8987 41.8265C21.3887 41.1732 21.7701 40.4452 22.0284 39.6705L22.4618 38.1534C22.4909 38.0517 22.3558 37.9869 22.2947 38.0733L20.9562 39.9629L20.3805 40.7305C20.1822 40.9949 19.9251 41.2095 19.6294 41.3573L19.5781 41.383C19.5222 41.4109 19.4644 41.4349 19.4051 41.4547L19.3506 41.4728C19.252 41.5057 19.1487 41.5225 19.0448 41.5225H19.009C18.9429 41.5225 18.877 41.5132 18.8134 41.4951C18.476 41.3986 18.2591 41.0706 18.3027 40.7223L18.3245 40.5477C18.3889 40.1609 18.5215 39.7886 18.7161 39.4481L19.2017 38.5983L19.4823 38.1073C20.0724 37.0747 20.7975 36.1253 21.6385 35.2843L23.6854 33.5299L26.707 31.5804C26.1233 31.775 25.5587 32.0224 25.0201 32.3196L24.3313 32.6995C23.4473 33.1873 22.6041 33.7458 21.8102 34.3696L21.6385 34.5046L19.884 36.1616L19.6624 36.4127C18.8383 37.3467 18.1275 38.3748 17.5447 39.4756L17.0763 40.5828C16.675 41.5312 16.3812 42.5214 16.2002 43.5351C16.0571 44.3361 15.9852 45.1482 15.9852 45.9619V46.2985V48.4429Z" fill="#8D387B"/>
<path d="M24.9858 23.0482L24.5686 23.8038L24.492 23.9531C24.4854 23.966 24.4971 23.9807 24.5113 23.9773C24.7345 23.9229 24.9456 23.8277 25.1337 23.6967C25.297 23.5829 25.5687 23.3628 25.6978 23.2117L25.9708 22.8923L26.1961 22.5628C26.295 22.4181 26.3809 22.2651 26.4529 22.1055C26.5569 21.8748 26.6435 21.5962 26.6795 21.3459C26.719 21.071 26.7159 20.7917 26.6701 20.5178C26.6439 20.3607 26.5993 20.1731 26.5478 20.0223C26.4806 19.826 26.3862 19.6113 26.2828 19.4312L26.1695 19.2339C26.0187 19.0092 25.8305 18.8117 25.613 18.6497L25.4859 18.555C25.2527 18.4109 24.9843 18.3327 24.7097 18.329L24.6883 18.3287C24.6394 18.3287 24.3498 18.2937 24.0077 18.4259C23.698 18.5455 23.5931 18.6478 23.3562 18.8787L23.3533 18.8816C23.2598 18.9728 23.1868 19.0516 23.0933 19.2339C23.0694 19.2803 23.0407 19.3525 23.0181 19.4244C22.9806 19.5431 23.017 19.6659 23.0874 19.7688C23.1393 19.8449 23.2077 19.9085 23.2874 19.9551L23.6337 20.1578L24.1946 20.4312L24.5793 20.6813C24.696 20.7571 24.7988 20.852 24.8834 20.962C24.9841 21.0929 25.0571 21.2427 25.098 21.4024L25.1634 21.6575C25.203 21.8117 25.223 21.9701 25.223 22.1291C25.223 22.4504 25.1414 22.7665 24.9858 23.0482Z" fill="#8D387B"/>
<path d="M5.36088 7.70011L2.53423 6.92035L3.21653 7.31023L4.19123 7.79758L5.65329 8.47988L7.01788 9.0647L8.96729 10.2344C9.32469 10.4293 10.0785 10.8582 10.2344 11.0141L11.1083 11.888C11.1729 11.9527 11.2091 12.0402 11.2091 12.1316V12.3787C11.2091 12.4325 11.1655 12.4762 11.1116 12.4762H10.7218H9.942C9.54817 12.4762 9.17811 12.291 8.82443 12.1178L4.58112 10.0394C5.78325 10.9491 8.18753 12.7881 8.18753 12.8661C8.18753 12.9403 9.0114 13.7265 9.4831 14.1664C9.52889 14.2091 9.56646 14.2593 9.59446 14.3153C9.63072 14.3878 9.64959 14.4678 9.64959 14.5488V14.718V14.9129C9.64959 15.0206 9.56231 15.1079 9.45465 15.1079H9.16224H8.74802C8.5055 15.1079 8.26417 15.0741 8.03098 15.0075C7.8114 14.9447 7.60099 14.8534 7.40516 14.7359L6.08509 13.9439C5.86632 13.8126 5.616 13.7433 5.36088 13.7433C5.42544 13.8724 5.51039 13.9903 5.61247 14.0923L6.85917 15.3391C6.8999 15.3798 6.9365 15.4244 6.96845 15.4724L7.00722 15.5305C7.07773 15.6363 7.11535 15.7605 7.11535 15.8876V16.1801V16.4725C7.11535 16.5699 7.01788 16.6674 7.01788 16.7649C7.01788 16.8429 6.75796 16.9923 6.628 17.0573L6.14065 17.2522L6.01322 17.2886C5.6438 17.3942 5.26718 17.4727 4.88634 17.5234L4.82178 17.5321C4.27322 17.6052 3.7347 17.7402 3.21653 17.9345H4.19123H5.55582H6.04318C6.33559 17.9345 7.11535 17.9345 7.70018 17.6421L9.35718 16.8624L9.6607 16.7485C9.97676 16.63 10.3073 16.5545 10.6435 16.5239C11.0019 16.4913 11.3563 16.6196 11.6107 16.8741L11.6965 16.9598L12.0864 17.3497L12.2886 17.5925C12.4772 17.8187 12.7046 18.0094 12.9603 18.1555C13.1565 18.2676 13.3672 18.3522 13.5864 18.407L13.6681 18.4274C13.9123 18.4885 14.1631 18.5194 14.4148 18.5194H15.0105L16.2776 18.4219L15.4978 18.2269L14.7818 18.0479C14.481 17.9727 14.1931 17.8535 13.9273 17.694C13.549 17.467 13.2227 17.1629 12.9697 16.8015L12.897 16.6976C12.747 16.4833 12.6221 16.2523 12.5249 16.0093L12.4778 15.8914C12.348 15.567 12.2813 15.2208 12.2813 14.8713V14.8023C12.2813 14.5528 12.3215 14.3049 12.4004 14.0682L12.5135 13.7291C12.5531 13.6102 12.6198 13.5022 12.7084 13.4137C12.9245 13.1975 13.2442 13.1221 13.5342 13.2187L13.7196 13.2805C13.8639 13.3286 13.9969 13.4055 14.1106 13.5066L14.539 13.8873C14.7229 14.0509 14.8911 14.2314 15.0411 14.4265L15.7902 15.4003C15.7902 14.9536 15.6708 14.515 15.4443 14.1299L15.1455 13.6219C14.9266 13.2498 14.6571 12.9098 14.3448 12.6117L13.7544 12.0481C13.0359 11.3622 12.2239 10.7815 11.3425 10.3232L10.2344 9.747L7.50524 8.57735L5.36088 7.70011Z" fill="#8D387B"/>
<path d="M28.6058 8.72162L28.3198 8.63992L29.5869 9.32222L30.4642 9.80957L30.5707 9.87043C31.4069 10.3483 32.1883 10.9162 32.9009 11.564C33.6143 12.2774 34.262 13.0535 34.8362 13.8829L34.8504 13.9033L35.6301 15.073L36.7998 17.5098L37.2335 18.4346C37.2678 18.5287 37.3388 18.6049 37.4304 18.6456C37.5215 18.6861 37.6088 18.6557 37.6857 18.5951C37.94 18.3949 37.9354 18.0221 37.8719 17.7047L37.7745 17.4123C37.4821 16.73 37.3365 16.1303 37.0476 15.5203C36.7532 14.8988 36.3969 14.3084 35.9843 13.7582L35.8308 13.5536C35.373 12.9432 34.8615 12.3751 34.3024 11.8559L33.7782 11.3691L33.2004 10.9518C32.4178 10.3866 31.5818 9.89943 30.7042 9.49721C30.0253 9.18606 29.3238 8.92678 28.6058 8.72162Z" fill="#8D387B"/>
<path d="M4.76837e-06 6.06183L5.38163 6.12367C7.44317 6.14735 9.49854 6.35398 11.5236 6.74111L12.0469 6.84117C14.0821 7.23025 16.0711 7.83085 17.9814 8.63321C19.3131 9.19251 20.6023 9.84803 21.8387 10.5946L23.0356 11.3172C24.4377 12.1638 25.7254 13.1868 26.8671 14.3611C27.9905 15.5166 28.9635 16.8093 29.7631 18.2085L29.8924 18.4348C30.8185 20.0555 31.5177 21.7957 31.9704 23.6065L30.8982 23.6065L29.6375 21.6502C28.5962 20.0344 27.3951 18.5273 26.0524 17.1518C24.7375 15.8049 23.2933 14.5907 21.7406 13.5268L21.2626 13.1993C19.6318 12.0819 17.9082 11.1066 16.1106 10.284L15.9571 10.2137C14.0301 9.33187 12.0301 8.61946 9.9795 8.08453L6.33569 7.13397L4.76837e-06 6.06183Z" fill="#8D387B"/>
<path d="M17.7397 13.7433L17.0574 12.8661L17.1947 12.9053C17.5553 13.0084 17.8957 13.1725 18.2009 13.3905L18.2197 13.4039C18.3543 13.5001 18.4808 13.6072 18.5977 13.7242L18.658 13.7844C18.8884 14.0148 19.0727 14.2871 19.2011 14.5866C19.2663 14.7389 19.3167 14.897 19.3514 15.059L19.4565 15.5494C19.5464 15.9691 19.6012 16.3956 19.6202 16.8245L19.7615 20.0017C19.7781 20.3773 19.8291 20.7506 19.9136 21.1169L19.972 21.3698C20.043 21.6778 20.1504 21.9762 20.2917 22.259C20.4095 22.4945 20.5503 22.7179 20.712 22.9257L21.1511 23.4904C21.6048 24.0088 22.1112 24.4785 22.6623 24.8918L23.0031 25.1474L24.1727 25.8297L26.2196 26.8044L29.1836 27.9159C29.2053 27.924 29.1973 27.9564 29.1744 27.9535L27.7791 27.7791L25.9272 27.2917L23.7828 26.6094L22.0284 25.8297L21.4478 25.5171C20.9917 25.2715 20.5667 24.9723 20.1816 24.6257C19.9187 24.3891 19.6755 24.1313 19.4545 23.8551L19.0068 23.2954L18.5815 22.6576C18.4754 22.4984 18.3538 22.3501 18.2186 22.2148C17.9664 21.9627 17.67 21.7591 17.3442 21.6143L17.258 21.576C17.0602 21.4881 16.8512 21.428 16.637 21.3974L16.4963 21.3773C16.3514 21.3566 16.2041 21.3583 16.0596 21.3824C15.8191 21.4225 15.5928 21.5235 15.4024 21.6758L15.2375 21.8077C15.2246 21.818 15.2054 21.8088 15.2054 21.7923V21.7319C15.2054 21.6058 15.2295 21.4808 15.2763 21.3637C15.3568 21.1625 15.501 20.9933 15.6867 20.8818L15.7293 20.8563C15.8342 20.7933 15.9486 20.7477 16.0681 20.7211L16.765 20.5663L17.3559 20.3974C17.4167 20.3801 17.4757 20.3571 17.5323 20.3288L17.6089 20.2905C17.757 20.2164 17.8772 20.0963 17.9513 19.9481C18.0044 19.8418 18.0321 19.7246 18.0321 19.6058V19.3822C18.0321 19.1981 18.0024 19.0152 17.9442 18.8405L17.911 18.741C17.8619 18.5936 17.7983 18.4514 17.7212 18.3166L17.4472 17.8371L16.8279 16.8639C16.8161 16.8453 16.8394 16.8244 16.8566 16.8382L17.2523 17.1548L17.3867 17.2556C17.5525 17.38 17.7543 17.4472 17.9616 17.4472H18.0437C18.1636 17.4472 18.3268 17.3842 18.4222 17.3115C18.5759 17.1945 18.6169 17.0436 18.6169 16.8503V16.375V16.2153C18.6169 15.7414 18.5265 15.2718 18.3505 14.8318C18.2683 14.6264 18.168 14.4287 18.0508 14.2411L17.7397 13.7433Z" fill="#8D387B"/>
<path d="M6.7068 18.7296L5.86805 18.5199C5.85004 18.5154 5.84026 18.5402 5.85649 18.5492L7.50564 19.4654C8.14824 19.851 8.70245 20.3675 9.1322 20.9814L9.16264 21.0249L9.30841 21.254C9.66169 21.8091 9.88727 22.4358 9.96889 23.0887L10.0257 23.5435C10.0351 23.6186 10.0541 23.6922 10.0822 23.7626L10.1069 23.8242C10.188 24.027 10.3543 24.1838 10.5616 24.2529C10.7282 24.3085 10.9098 24.3029 11.0729 24.2376C11.2244 24.1771 11.3524 24.0683 11.4364 23.9284L11.4898 23.8393C11.5621 23.7187 11.6097 23.585 11.6295 23.4458L11.6429 23.352C11.6783 23.1041 11.6521 22.8512 11.5665 22.6158L11.4725 22.3574C11.3631 22.0564 11.1995 21.7781 10.9898 21.5362L10.5479 21.0263C10.2105 20.637 9.82646 20.2907 9.40444 19.9953L9.2589 19.8934C8.48649 19.3527 7.62149 18.9583 6.7068 18.7296Z" fill="#8D387B"/>
<path d="M3.67838 18.9657L2.33929 18.5194C2.40187 18.5194 2.36401 18.5194 3.70664 18.6705C4.53752 18.764 5.33776 19.0452 6.04317 19.4941C6.3031 19.689 6.84243 20.0984 6.92041 20.1764C6.99839 20.2544 7.53772 20.9237 7.79765 21.2486L8.57741 22.5157L9.64959 24.66L10.4661 25.9665C10.7218 26.317 11.0142 26.2196 11.0142 26.2196C11.0142 26.2196 11.1637 26.1779 11.2591 26.1016L11.3847 26.0011C11.525 25.8889 11.6323 25.7409 11.6954 25.5727C11.8862 25.0639 11.9476 24.5158 12.0045 23.9754L12.0706 23.3478C12.0795 23.2626 12.1514 23.198 12.237 23.198C12.3188 23.198 12.3886 23.2571 12.4021 23.3378L12.4891 23.8597C12.5453 24.197 12.644 24.5257 12.7828 24.8382L12.9636 25.2449L13.4509 26.2196L13.8559 26.8269C14.1051 27.2009 14.3908 27.5493 14.7086 27.8671C14.9744 28.1329 15.2617 28.3762 15.5676 28.5947L16.4725 29.2411L17.1411 29.6282C17.9272 30.0833 18.7652 30.4419 19.6371 30.6962C20.32 30.8954 21.0202 31.0296 21.7284 31.097L24.7575 31.3855L26.7069 31.5804H26.0247L23.5879 31.6292L20.3714 31.6779L18.5929 31.624C17.6367 31.595 16.3581 31.3949 15.4235 31.1907C14.6063 31.0121 14.1305 30.843 13.3669 30.5015C13.2119 30.4321 13.07 30.3665 12.9636 30.3133C11.8106 29.6728 10.8274 28.7661 10.0958 27.6687L8.57741 24.9524L7.37689 22.3113C7.20288 21.9285 6.99249 21.5584 6.75313 21.2127C6.41353 20.7222 6.00881 20.2722 5.55582 19.884C4.9736 19.4958 4.34222 19.187 3.67838 18.9657Z" fill="#8D387B"/>
<path d="M52.5382 35.0261L52.4696 34.9471C52.31 34.7632 52.1144 34.614 51.8949 34.5087C51.7279 34.4285 51.5494 34.3748 51.3658 34.3497L50.9605 34.2941H49.8894C49.8891 34.2941 49.889 34.2937 49.8893 34.2936C50.2097 34.109 50.5666 33.9967 50.935 33.9646L51.106 33.9496C51.3333 33.9298 51.5621 33.9335 51.7887 33.9607L51.8936 33.9733C52.1156 33.9999 52.3339 34.0516 52.5443 34.1274C52.8509 34.2378 53.1373 34.398 53.3918 34.6016L53.4108 34.6168C53.5316 34.7134 53.645 34.8189 53.7501 34.9324L53.8287 35.0173C54.1859 35.403 54.4469 35.8677 54.5906 36.3734L54.6111 36.4456C54.6466 36.5706 54.6719 36.6982 54.6869 36.8273L54.7249 37.1554C54.7495 37.3681 54.7495 37.5829 54.7249 37.7956L54.6963 38.0419C54.676 38.2176 54.5827 38.3766 54.4391 38.4799C54.3321 38.5569 54.2035 38.596 54.0732 38.5754L54.0518 38.572C53.8244 38.535 53.6367 38.3776 53.5481 38.1649L53.5269 38.1139C53.5055 38.0628 53.4896 38.0095 53.4793 37.955L53.3053 37.0365C53.3017 37.0173 53.2981 36.9983 53.2947 36.9791C53.2801 36.899 53.2369 36.6626 53.1922 36.4255C53.1362 36.1285 53.0341 35.8424 52.8945 35.5743L52.8396 35.469C52.7568 35.3101 52.6557 35.1615 52.5382 35.0261Z" fill="#8D387B"/>
<path d="M54.1373 41.8321L53.0195 40.7144C53.0062 40.701 52.9843 40.7164 52.9924 40.7335L53.7702 42.3668C53.8732 42.5831 53.9544 42.8092 54.0125 43.0417L54.0771 43.2999C54.1056 43.4142 54.1201 43.5314 54.1201 43.6491V43.8909C54.1201 44.0613 54.0621 44.2267 53.9556 44.3598L53.9209 44.4032C53.8003 44.5539 53.6179 44.6415 53.425 44.6415C53.3059 44.6415 53.1893 44.6081 53.0884 44.545L52.7343 44.3237C52.5545 44.2114 52.3929 44.0723 52.2549 43.9114L52.1822 43.8265C51.9809 43.5917 51.8196 43.3254 51.7048 43.0382L51.4884 42.4972L51.0985 41.2301C50.9038 40.4514 50.6511 39.6884 50.3424 38.9475L50.3187 38.8908C49.9582 38.2298 49.2655 37.8186 48.5126 37.8186H47.7845L48.0835 37.873C48.5737 37.9621 48.9994 38.2633 49.2465 38.6958L49.3197 38.8605C49.5285 39.3303 49.6364 39.8387 49.6364 40.3528L49.4415 42.4972V42.8475C49.4415 43.3209 49.5621 43.7865 49.7921 44.2004C49.883 44.3641 49.9902 44.5183 50.1121 44.6605L50.1444 44.6981C50.3888 44.9832 50.6803 45.2241 51.0063 45.4104L51.196 45.5188L52.1707 46.1036L52.6411 46.4329C52.9686 46.6621 53.2136 46.9906 53.34 47.3698C53.3675 47.4522 53.486 47.4461 53.5049 47.3613L53.5292 47.2517C53.5968 46.9475 53.7498 46.6688 53.9702 46.4485C54.0697 46.3489 54.156 46.237 54.2269 46.1154L54.6462 45.3966C54.7501 45.2185 54.8378 45.0314 54.9083 44.8377L55.042 44.47C55.1407 44.1984 55.1736 43.9072 55.1377 43.6204C55.1093 43.3935 55.0386 43.1739 54.9291 42.9731L54.7623 42.6674C54.5949 42.3606 54.3845 42.0793 54.1373 41.8321Z" fill="#8D387B"/>
<path d="M62.2553 46.965L62.7534 48.4592C62.761 48.4822 62.7283 48.4958 62.7174 48.4741L61.853 46.7451C61.7315 46.5022 61.5912 46.2691 61.4333 46.0481L61.3986 45.9996C61.2552 45.7988 61.0954 45.6102 60.9209 45.4357L60.7915 45.3063C60.7278 45.2425 60.6595 45.1834 60.5874 45.1293L60.505 45.0674C60.3734 44.9687 60.2248 44.8949 60.0666 44.8497L59.9085 44.8046C59.7238 44.7518 59.5268 44.7619 59.3484 44.8332C59.2093 44.8889 59.087 44.9796 58.9935 45.0966L58.4747 45.745C58.4262 45.8056 58.3294 45.7845 58.3106 45.7092L58.2451 45.4474C58.1904 45.2286 58.0773 45.0288 57.9178 44.8694L57.831 44.7825C57.7284 44.6799 57.5998 44.6071 57.459 44.5719C57.344 44.5431 57.224 44.5403 57.1077 44.5635L57.088 44.5675C56.899 44.6053 56.7275 44.7033 56.599 44.8469L55.1764 46.4369C55.1688 46.4453 55.1551 46.4371 55.1591 46.4264L55.4323 45.6979L55.8222 44.7232L56.2064 43.8011C56.2745 43.6377 56.3096 43.4624 56.3096 43.2853C56.3096 43.0771 56.2611 42.8717 56.168 42.6855L55.8601 42.0697C55.77 41.8895 55.6928 41.7031 55.6291 41.512L55.5438 41.2562C55.4054 40.841 55.3349 40.4063 55.3349 39.9687C55.3349 39.9628 55.3427 39.9607 55.3456 39.9659L55.7248 40.6294L56.5045 41.7016L57.4392 42.7141C57.5946 42.8824 57.7792 43.0212 57.984 43.1236C58.1661 43.2147 58.3618 43.2758 58.5633 43.3046L58.6001 43.3098C58.8261 43.3421 59.0454 43.4106 59.2495 43.5127L59.531 43.6534C59.7869 43.7814 60.0287 43.9361 60.2521 44.1148L60.4618 44.2825C60.7469 44.5107 61.0073 44.7682 61.2385 45.0508C61.5892 45.4794 61.8692 45.9613 62.068 46.4781L62.2553 46.965Z" fill="#8D387B"/>
<path d="M63.7292 48.4429L63.5523 49.9172C63.5387 50.0301 63.3736 50.0264 63.3652 49.9129L63.2419 48.2479L63.0469 46.5909L62.7545 45.2263L62.6053 44.8159C62.4472 44.3813 62.1858 43.9916 61.8436 43.6805C61.4822 43.352 61.0425 43.1218 60.5667 43.012L60.3589 42.964C60.1377 42.913 59.9252 42.8298 59.7281 42.7172C59.4737 42.5718 59.249 42.3797 59.066 42.1509L58.9532 42.0098L58.8157 41.8265C58.3257 41.1732 57.9443 40.4452 57.686 39.6705L57.2526 38.1534C57.2235 38.0517 57.3586 37.9869 57.4197 38.0733L58.7582 39.9629L59.3339 40.7305C59.5322 40.9949 59.7893 41.2095 60.085 41.3573L60.1363 41.383C60.1922 41.4109 60.25 41.4349 60.3093 41.4547L60.3638 41.4728C60.4624 41.5057 60.5657 41.5225 60.6696 41.5225H60.7054C60.7715 41.5225 60.8374 41.5132 60.901 41.4951C61.2384 41.3986 61.4553 41.0706 61.4117 40.7223L61.3899 40.5477C61.3255 40.1609 61.1929 39.7886 60.9983 39.4481L60.5127 38.5983L60.2321 38.1073C59.642 37.0747 58.9169 36.1253 58.0759 35.2843L56.029 33.5299L53.0074 31.5804C53.5911 31.775 54.1557 32.0224 54.6943 32.3196L55.3831 32.6995C56.2671 33.1873 57.1103 33.7458 57.9042 34.3696L58.0759 34.5046L59.8304 36.1616L60.052 36.4127C60.8761 37.3467 61.5869 38.3748 62.1697 39.4756L62.6382 40.5828C63.0394 41.5312 63.3332 42.5214 63.5142 43.5351C63.6573 44.3361 63.7292 45.1482 63.7292 45.9619V46.2985V48.4429Z" fill="#8D387B"/>
<path d="M54.7286 23.0482L55.1458 23.8038L55.2224 23.9531C55.229 23.966 55.2173 23.9807 55.2031 23.9773C54.9799 23.9229 54.7688 23.8277 54.5807 23.6967C54.4174 23.5829 54.1457 23.3628 54.0166 23.2117L53.7436 22.8923L53.5183 22.5628C53.4194 22.4181 53.3335 22.2651 53.2615 22.1055C53.1575 21.8748 53.0709 21.5962 53.0349 21.3459C52.9954 21.071 52.9985 20.7917 53.0443 20.5178C53.0705 20.3607 53.1151 20.1731 53.1666 20.0223C53.2338 19.826 53.3282 19.6113 53.4316 19.4312L53.5449 19.2339C53.6957 19.0092 53.8839 18.8117 54.1014 18.6497L54.2285 18.555C54.4617 18.4109 54.7301 18.3327 55.0047 18.329L55.0261 18.3287C55.075 18.3287 55.3646 18.2937 55.7067 18.4259C56.0164 18.5455 56.1213 18.6478 56.3582 18.8787L56.3611 18.8816C56.4546 18.9728 56.5277 19.0516 56.6211 19.2339C56.645 19.2803 56.6737 19.3525 56.6963 19.4244C56.7338 19.5431 56.6974 19.6659 56.627 19.7688C56.5751 19.8449 56.5067 19.9085 56.427 19.9551L56.0807 20.1578L55.5198 20.4312L55.1351 20.6813C55.0184 20.7571 54.9156 20.852 54.831 20.962C54.7303 21.0929 54.6573 21.2427 54.6164 21.4024L54.551 21.6575C54.5114 21.8117 54.4914 21.9701 54.4914 22.1291C54.4914 22.4504 54.573 22.7665 54.7286 23.0482Z" fill="#8D387B"/>
<path d="M74.3535 7.70011L77.1802 6.92035L76.4979 7.31023L75.5232 7.79758L74.0611 8.47988L72.6965 9.0647L70.7471 10.2344C70.3897 10.4293 69.6359 10.8582 69.48 11.0141L68.6061 11.888C68.5414 11.9527 68.5053 12.0402 68.5053 12.1316V12.3787C68.5053 12.4325 68.5489 12.4762 68.6027 12.4762H68.9926H69.7724C70.1662 12.4762 70.5363 12.291 70.89 12.1178L75.1333 10.0394C73.9311 10.9491 71.5269 12.7881 71.5269 12.8661C71.5269 12.9403 70.703 13.7265 70.2313 14.1664C70.1855 14.2091 70.1479 14.2593 70.1199 14.3153C70.0837 14.3878 70.0648 14.4678 70.0648 14.5488V14.718V14.9129C70.0648 15.0206 70.1521 15.1079 70.2597 15.1079H70.5522H70.9664C71.2089 15.1079 71.4502 15.0741 71.6834 15.0075C71.903 14.9447 72.1134 14.8534 72.3092 14.7359L73.6293 13.9439C73.8481 13.8126 74.0984 13.7433 74.3535 13.7433C74.289 13.8724 74.204 13.9903 74.1019 14.0923L72.8552 15.3391C72.8145 15.3798 72.7779 15.4244 72.7459 15.4724L72.7072 15.5305C72.6367 15.6363 72.599 15.7605 72.599 15.8876V16.1801V16.4725C72.599 16.5699 72.6965 16.6674 72.6965 16.7649C72.6965 16.8429 72.9564 16.9923 73.0864 17.0573L73.5737 17.2522L73.7012 17.2886C74.0706 17.3942 74.4472 17.4727 74.828 17.5234L74.8926 17.5321C75.4412 17.6052 75.9797 17.7402 76.4979 17.9345H75.5232H74.1586H73.6712C73.3788 17.9345 72.599 17.9345 72.0142 17.6421L70.3572 16.8624L70.0537 16.7485C69.7376 16.63 69.4071 16.5545 69.0709 16.5239C68.7125 16.4913 68.3581 16.6196 68.1037 16.8741L68.0179 16.9598L67.628 17.3497L67.4257 17.5925C67.2372 17.8187 67.0098 18.0094 66.7541 18.1555C66.5579 18.2676 66.3472 18.3522 66.128 18.407L66.0463 18.4274C65.8021 18.4885 65.5513 18.5194 65.2996 18.5194H64.7039L63.4368 18.4219L64.2166 18.2269L64.9326 18.0479C65.2334 17.9727 65.5213 17.8535 65.7871 17.694C66.1654 17.467 66.4917 17.1629 66.7446 16.8015L66.8174 16.6976C66.9674 16.4833 67.0923 16.2523 67.1895 16.0093L67.2366 15.8914C67.3664 15.567 67.4331 15.2208 67.4331 14.8713V14.8023C67.4331 14.5528 67.3929 14.3049 67.314 14.0682L67.2009 13.7291C67.1613 13.6102 67.0946 13.5022 67.006 13.4137C66.7899 13.1975 66.4702 13.1221 66.1802 13.2187L65.9948 13.2805C65.8505 13.3286 65.7175 13.4055 65.6038 13.5066L65.1754 13.8873C64.9915 14.0509 64.8233 14.2314 64.6732 14.4265L63.9242 15.4003C63.9242 14.9536 64.0436 14.515 64.2701 14.1299L64.5689 13.6219C64.7878 13.2498 65.0573 12.9098 65.3696 12.6117L65.96 12.0481C66.6785 11.3622 67.4905 10.7815 68.3718 10.3232L69.48 9.747L72.2092 8.57735L74.3535 7.70011Z" fill="#8D387B"/>
<path d="M51.5424 8.72162L51.8283 8.63992L50.5612 9.32222L49.684 9.80957L49.5775 9.87043C48.7412 10.3483 47.9598 10.9162 47.2472 11.564C46.5339 12.2774 45.8862 13.0535 45.3119 13.8829L45.2978 13.9033L44.518 15.073L43.3484 17.5098L42.9146 18.4346C42.8804 18.5287 42.8093 18.6049 42.7177 18.6456C42.6267 18.6861 42.5393 18.6557 42.4624 18.5951C42.2082 18.3949 42.2127 18.0221 42.2762 17.7047L42.3737 17.4123C42.6661 16.73 42.8116 16.1303 43.1006 15.5203C43.395 14.8988 43.7512 14.3084 44.1639 13.7582L44.3173 13.5536C44.7751 12.9432 45.2866 12.3751 45.8457 11.8559L46.37 11.3691L46.9477 10.9518C47.7303 10.3866 48.5664 9.89943 49.4439 9.49721C50.1228 9.18606 50.8243 8.92678 51.5424 8.72162Z" fill="#8D387B"/>
<path d="M79.7144 6.06183L74.3328 6.12367C72.2712 6.14735 70.2158 6.35398 68.1908 6.74111L67.6674 6.84117C65.6323 7.23025 63.6433 7.83085 61.733 8.63321C60.4013 9.19251 59.1121 9.84803 57.8757 10.5946L56.6788 11.3172C55.2767 12.1638 53.989 13.1868 52.8473 14.3611C51.7239 15.5166 50.7508 16.8093 49.9513 18.2085L49.822 18.4348C48.8959 20.0555 48.1967 21.7957 47.744 23.6065L48.8162 23.6065L50.0769 21.6502C51.1182 20.0344 52.3192 18.5273 53.662 17.1518C54.9768 15.8049 56.4211 14.5907 57.9738 13.5268L58.4518 13.1993C60.0826 12.0819 61.8062 11.1066 63.6037 10.284L63.7573 10.2137C65.6842 9.33187 67.6843 8.61946 69.7349 8.08453L73.3787 7.13397L79.7144 6.06183Z" fill="#8D387B"/>
<path d="M61.9747 13.7433L62.657 12.8661L62.5197 12.9053C62.1591 13.0084 61.8187 13.1725 61.5135 13.3905L61.4947 13.4039C61.3601 13.5001 61.2337 13.6072 61.1167 13.7242L61.0565 13.7844C60.826 14.0148 60.6417 14.2871 60.5133 14.5866C60.4481 14.7389 60.3977 14.897 60.363 15.059L60.2579 15.5494C60.168 15.9691 60.1132 16.3956 60.0942 16.8245L59.953 20.0017C59.9363 20.3773 59.8853 20.7506 59.8008 21.1169L59.7424 21.3698C59.6714 21.6778 59.564 21.9762 59.4227 22.259C59.3049 22.4945 59.1641 22.7179 59.0025 22.9257L58.5633 23.4904C58.1096 24.0088 57.6032 24.4785 57.0521 24.8918L56.7113 25.1474L55.5417 25.8297L53.4948 26.8044L50.5308 27.9159C50.5091 27.924 50.5171 27.9564 50.54 27.9535L51.9353 27.7791L53.7872 27.2917L55.9316 26.6094L57.686 25.8297L58.2666 25.5171C58.7227 25.2715 59.1477 24.9723 59.5328 24.6257C59.7957 24.3891 60.0389 24.1313 60.2599 23.8551L60.7076 23.2954L61.1329 22.6576C61.239 22.4984 61.3606 22.3501 61.4959 22.2148C61.748 21.9627 62.0444 21.7591 62.3702 21.6143L62.4564 21.576C62.6542 21.4881 62.8632 21.428 63.0774 21.3974L63.2181 21.3773C63.363 21.3566 63.5103 21.3583 63.6548 21.3824C63.8953 21.4225 64.1216 21.5235 64.3121 21.6758L64.4769 21.8077C64.4898 21.818 64.509 21.8088 64.509 21.7923V21.7319C64.509 21.6058 64.4849 21.4808 64.4381 21.3637C64.3576 21.1625 64.2134 20.9933 64.0277 20.8818L63.9851 20.8563C63.8802 20.7933 63.7658 20.7477 63.6463 20.7211L62.9494 20.5663L62.3585 20.3974C62.2977 20.3801 62.2387 20.3571 62.1821 20.3288L62.1055 20.2905C61.9574 20.2164 61.8372 20.0963 61.7632 19.9481C61.71 19.8418 61.6823 19.7246 61.6823 19.6058V19.3822C61.6823 19.1981 61.712 19.0152 61.7702 18.8405L61.8034 18.741C61.8525 18.5936 61.9161 18.4514 61.9932 18.3166L62.2672 17.8371L62.8865 16.8639C62.8983 16.8453 62.875 16.8244 62.8578 16.8382L62.4621 17.1548L62.3277 17.2556C62.1619 17.38 61.9601 17.4472 61.7528 17.4472H61.6707C61.5508 17.4472 61.3876 17.3842 61.2922 17.3115C61.1385 17.1945 61.0975 17.0436 61.0975 16.8503V16.375V16.2153C61.0975 15.7414 61.1879 15.2718 61.3639 14.8318C61.4461 14.6264 61.5464 14.4287 61.6636 14.2411L61.9747 13.7433Z" fill="#8D387B"/>
<path d="M73.0076 18.7296L73.8463 18.5199C73.8644 18.5154 73.8741 18.5402 73.8579 18.5492L72.2088 19.4654C71.5662 19.851 71.0119 20.3675 70.5822 20.9814L70.5518 21.0249L70.406 21.254C70.0527 21.8091 69.8271 22.4358 69.7455 23.0887L69.6887 23.5435C69.6793 23.6186 69.6603 23.6922 69.6322 23.7626L69.6075 23.8242C69.5264 24.027 69.3601 24.1838 69.1528 24.2529C68.9862 24.3085 68.8046 24.3029 68.6415 24.2376C68.49 24.1771 68.362 24.0683 68.278 23.9284L68.2246 23.8393C68.1522 23.7187 68.1047 23.585 68.0849 23.4458L68.0715 23.352C68.036 23.1041 68.0623 22.8512 68.1479 22.6158L68.2419 22.3574C68.3513 22.0564 68.5149 21.7781 68.7246 21.5362L69.1665 21.0263C69.5039 20.637 69.8879 20.2907 70.31 19.9953L70.4555 19.8934C71.2279 19.3527 72.0929 18.9583 73.0076 18.7296Z" fill="#8D387B"/>
<path d="M76.036 18.9657L77.3751 18.5194C77.3125 18.5194 77.3504 18.5194 76.0077 18.6705C75.1769 18.764 74.3766 19.0452 73.6712 19.4941C73.4113 19.689 72.8719 20.0984 72.794 20.1764C72.716 20.2544 72.1767 20.9237 71.9167 21.2486L71.137 22.5157L70.0648 24.66L69.2483 25.9665C68.9926 26.317 68.7002 26.2196 68.7002 26.2196C68.7002 26.2196 68.5507 26.1779 68.4552 26.1016L68.3297 26.0011C68.1894 25.8889 68.0821 25.7409 68.019 25.5727C67.8282 25.0639 67.7668 24.5158 67.7099 23.9754L67.6438 23.3478C67.6348 23.2626 67.563 23.198 67.4774 23.198C67.3956 23.198 67.3258 23.2571 67.3123 23.3378L67.2253 23.8597C67.1691 24.197 67.0704 24.5257 66.9315 24.8382L66.7508 25.2449L66.2634 26.2196L65.8585 26.8269C65.6092 27.2009 65.3236 27.5493 65.0058 27.8671C64.74 28.1329 64.4527 28.3762 64.1468 28.5947L63.2418 29.2411L62.5733 29.6282C61.7872 30.0833 60.9492 30.4419 60.0772 30.6962C59.3944 30.8954 58.6942 31.0296 57.986 31.097L54.9568 31.3855L53.0074 31.5804H53.6897L56.1265 31.6292L59.343 31.6779L61.1215 31.624C62.0777 31.595 63.3563 31.3949 64.2909 31.1907C65.1081 31.0121 65.5839 30.843 66.3475 30.5015C66.5025 30.4321 66.6444 30.3665 66.7508 30.3133C67.9037 29.6728 68.887 28.7661 69.6186 27.6687L71.137 24.9524L72.3375 22.3113C72.5115 21.9285 72.7219 21.5584 72.9613 21.2127C73.3009 20.7222 73.7056 20.2722 74.1586 19.884C74.7408 19.4958 75.3722 19.187 76.036 18.9657Z" fill="#8D387B"/>
<path d="M44.4636 30.4798C40.4554 44.9877 44.1391 31.6543 40.7536 43.9083C40.6238 44.3779 39.9512 44.3871 39.8215 43.9175C36.1089 30.4798 36.1089 30.4798 36.1089 30.4798C34.0203 21.3599 37.9792 18.7199 40.2863 18.7199C42.5934 18.7199 46.7263 20.6399 44.4636 30.4798Z" fill="white"/>
<path fill-rule="evenodd" clip-rule="evenodd" d="M36.1089 30.4798L39.8215 43.9175C39.9512 44.3871 40.6238 44.3779 40.7536 43.9083L44.4636 30.4798C46.7263 20.6399 42.5934 18.7199 40.2863 18.7199C38.018 18.7199 34.1529 21.2719 36.0087 30.0254C36.0404 30.175 36.0738 30.3265 36.1089 30.4798ZM43.5327 30.2444L40.2863 41.9948L37.04 30.2449C36.0318 25.8276 36.5303 23.1648 37.385 21.6521C38.2343 20.149 39.4841 19.6799 40.2863 19.6799C41.1878 19.6799 42.4428 20.0496 43.2682 21.4083C44.1171 22.8057 44.6338 25.4422 43.5327 30.2444Z" fill="#8D387B"/>
<path d="M42.8061 29.0098C40.479 37.2823 42.4731 30.1934 40.7643 36.2681C40.633 36.7347 39.9682 36.7416 39.837 36.2749C37.7933 29.0098 37.7933 29.0098 37.7933 29.0098C36.5401 23.6355 38.9154 22.0798 40.2997 22.0798C41.6839 22.0798 44.1637 23.2113 42.8061 29.0098Z" fill="white"/>
<path fill-rule="evenodd" clip-rule="evenodd" d="M37.7933 29.0098L39.837 36.2749C39.9682 36.7416 40.633 36.7347 40.7643 36.2681L42.8061 29.0098C44.1637 23.2113 41.6839 22.0798 40.2997 22.0798C38.9353 22.0798 36.6081 23.5911 37.7415 28.7804C37.758 28.8561 37.7752 28.9325 37.7933 29.0098ZM42.3411 28.8901L40.3022 36.1381C40.3019 36.1392 40.3016 36.1402 40.3013 36.1411C40.3003 36.1412 40.2992 36.1414 40.2981 36.1415L38.2583 28.8903C37.6504 26.276 37.9468 24.6843 38.4735 23.7688C38.9979 22.8573 39.779 22.5598 40.2997 22.5598C40.8696 22.5598 41.658 22.7904 42.1728 23.6229C42.6985 24.4727 43.0042 26.0509 42.3411 28.8901Z" fill="#8D387B"/>
</svg>
