<svg width="60" height="60" viewBox="0 0 60 60" fill="none" xmlns="http://www.w3.org/2000/svg">
<path fill-rule="evenodd" clip-rule="evenodd" d="M11.8125 12.8021C22.3854 4.88309 37.3198 4.69148 48.0354 12.4603C54.7837 17.3528 58.7961 24.5696 59.5919 32.1792C60.6754 42.5398 53.3572 51.5386 46.6675 59.7577L53.715 45.9877C59.221 35.2297 55.9917 22.2527 46.0075 15.0142C36.5199 8.13567 23.2686 8.29479 13.8822 15.3251C4.01492 22.7156 0.812875 35.7595 6.31327 46.5055L13.0964 59.7577C6.58386 51.8845 -0.433275 43.2648 0.370015 33.2587C0.999557 25.4168 4.99453 17.9086 11.8125 12.8021Z" fill="url(#paint0_linear)"/>
<path fill-rule="evenodd" clip-rule="evenodd" d="M11.6646 12.622C22.3223 4.63953 37.3769 4.44559 48.1802 12.278C54.9833 17.2102 59.0281 24.4856 59.8304 32.1565C60.3784 37.3969 58.8 42.2828 56.2565 46.8787C53.7147 51.4717 50.199 55.7919 46.8567 59.8984L46.6675 59.7578L46.4522 59.6573L53.4997 45.8873C58.9554 35.2276 55.7557 22.3691 45.8627 15.1967C36.4628 8.38181 23.3317 8.53862 14.03 15.5055C4.25078 22.83 1.07842 35.7572 6.52856 46.405L13.3117 59.6572L13.0965 59.7578L12.9085 59.8998C9.65413 55.9656 6.25823 51.827 3.77869 47.4165C1.29764 43.0034 -0.275219 38.3025 0.131097 33.2413C0.765622 25.3374 4.7922 17.7694 11.6646 12.622ZM11.8929 57.9276L6.09802 46.6062C0.547371 35.762 3.77909 22.6014 13.7343 15.145C23.2055 8.05122 36.5771 7.8898 46.1524 14.8319C56.2279 22.1366 59.4866 35.2322 53.9303 46.0885L47.9064 57.8585C50.7947 54.2842 53.6709 50.5711 55.8328 46.6646C58.35 42.1161 59.8889 37.3223 59.3535 32.2021C58.564 24.6538 54.5841 17.4957 47.8905 12.6428C37.2627 4.93763 22.4485 5.1269 11.9603 12.9824C5.19689 18.0481 1.23353 25.4965 0.608971 33.2763C0.211996 38.2212 1.74606 42.8333 4.2009 47.1998C6.3085 50.9487 9.08797 54.5051 11.8929 57.9276Z" fill="#8D387B"/>
<path d="M31.1851 8.51387C31.1851 10.3947 30.5868 11.9194 29.8486 11.9194C29.1105 11.9194 28.5121 10.3947 28.5121 8.51387C28.5121 6.63305 29.1105 5.10834 29.8486 5.10834C30.5868 5.10834 31.1851 6.63305 31.1851 8.51387Z" fill="white"/>
<path d="M26.7301 6.38533C26.7301 7.56084 25.7328 8.51379 24.5026 8.51379C23.2724 8.51379 22.2751 7.56084 22.2751 6.38533C22.2751 5.20981 23.2724 4.25687 24.5026 4.25687C25.7328 4.25687 26.7301 5.20981 26.7301 6.38533Z" fill="white"/>
<path d="M38.3131 6.38533C38.3131 7.56084 37.3158 8.51379 36.0856 8.51379C34.8554 8.51379 33.8581 7.56084 33.8581 6.38533C33.8581 5.20981 34.8554 4.25687 36.0856 4.25687C37.3158 4.25687 38.3131 5.20981 38.3131 6.38533Z" fill="white"/>
<path d="M38.5863 2.79347C39.2128 2.13238 39.2542 1.43733 39.1735 0.961127C39.0711 0.355348 38.4819 -0.0643101 37.838 0.00812258C35.8396 0.228169 33.9881 1.36877 32.4842 3.30663C31.6741 4.3501 31.173 5.34789 30.9475 5.84635C30.8174 5.52379 30.6605 5.25801 30.4762 5.07225C30.6904 3.93316 31.4123 1.71691 32.3214 1.77043C32.4973 1.78427 32.6418 1.6553 32.6527 1.48965C32.6636 1.32399 32.5332 1.18121 32.3613 1.17039C30.8096 1.08052 30.09 3.87725 29.8984 4.78364C29.8806 4.78244 29.8638 4.77734 29.8457 4.77734C29.8276 4.77734 29.8111 4.78244 29.7933 4.78364C29.602 3.87605 28.8845 1.07358 27.3301 1.17039C27.1582 1.18121 27.0278 1.32403 27.0387 1.48965C27.0499 1.6553 27.1975 1.78427 27.37 1.77043C28.256 1.71603 28.9666 3.74196 29.2152 5.07225C29.0324 5.25685 28.8761 5.52019 28.7463 5.83977C28.5195 5.3389 28.0195 4.34535 27.2131 3.30666C25.7088 1.36881 23.8577 0.228204 21.8593 0.00815779C21.2117 -0.0643101 20.6261 0.355384 20.5238 0.961162C20.443 1.43705 20.4845 2.13242 21.1109 2.7935L21.1119 6.8589C21.109 6.89529 21.0476 7.76078 21.6465 8.38368C22.0309 8.78351 22.5855 8.98615 23.2946 8.98615H25.6564L24.1406 9.29941C24.1032 9.31023 23.2241 9.57329 23.0185 10.3408C22.8601 10.9318 23.152 11.6173 23.8861 12.3806L23.3027 14.6298C23.2147 14.9942 23.2743 15.765 24.1297 16.075C24.3178 16.1432 24.5171 16.1763 24.7187 16.1763C25.1358 16.1763 25.5613 16.0332 25.9125 15.7614C26.4469 15.3481 27.1909 14.638 27.7004 13.6035C27.8544 13.2903 28.3876 12.061 28.6843 11.3737C28.946 12.1046 29.335 12.5937 29.8457 12.5937C30.3579 12.5937 30.7482 12.1016 31.0099 11.3668C31.3059 12.0522 31.8422 13.289 31.9969 13.6035C32.5064 14.6379 33.2504 15.348 33.7848 15.7614C34.136 16.0332 34.5615 16.1763 34.9786 16.1763C35.1798 16.1763 35.3792 16.1432 35.5676 16.0749C36.423 15.765 36.4825 14.9942 36.3933 14.625L35.8109 12.3805C36.5452 11.6172 36.8373 10.9318 36.6788 10.3407C36.4729 9.57322 35.5938 9.31019 35.5321 9.29335L34.0444 8.98611H36.4027C37.1118 8.98611 37.6662 8.78351 38.0508 8.38365C38.6494 7.76075 38.5883 6.89522 38.5865 6.88169V2.79347H38.5863ZM24.5424 7.78361C23.3383 7.78361 22.3588 6.83963 22.3588 5.67922C22.3588 5.51329 22.4985 5.37861 22.6707 5.37861C22.8429 5.37861 22.9826 5.51329 22.9826 5.67922C22.9826 6.50804 23.6823 7.18238 24.5424 7.18238C24.7146 7.18238 24.8544 7.31706 24.8544 7.48299C24.8544 7.64893 24.7146 7.78361 24.5424 7.78361ZM29.8456 11.9924C29.5281 11.9924 28.9098 10.8251 28.9098 8.6855C28.9098 6.54591 29.5281 5.37857 29.8456 5.37857C30.1632 5.37857 30.7815 6.54591 30.7815 8.6855C30.7815 10.8251 30.1632 11.9924 29.8456 11.9924ZM35.1489 7.78361C34.9767 7.78361 34.837 7.64893 34.837 7.48299C34.837 7.31706 34.9767 7.18238 35.1489 7.18238C36.0089 7.18238 36.7087 6.50808 36.7087 5.67922C36.7087 5.51329 36.8484 5.37861 37.0206 5.37861C37.1928 5.37861 37.3326 5.51329 37.3326 5.67922C37.3326 6.83963 36.3531 7.78361 35.1489 7.78361Z" fill="#8D387B"/>
<defs>
<linearGradient id="paint0_linear" x1="29.9426" y1="6.74704" x2="30.061" y2="61.2087" gradientUnits="userSpaceOnUse">
<stop stop-color="white"/>
<stop offset="1" stop-color="white" stop-opacity="0"/>
</linearGradient>
</defs>
</svg>
