<svg width="61" height="60" viewBox="0 0 61 60" fill="none" xmlns="http://www.w3.org/2000/svg">
<mask id="path-1-inside-1" fill="white">
<path d="M55.5831 36.6631C56.2064 34.3365 57.5355 32.3878 59.2773 30.9833C59.8787 30.4984 59.8788 29.5016 59.2774 29.0166C57.5352 27.6116 56.2068 25.6631 55.5831 23.3359C54.9602 21.0103 55.1363 18.6583 55.9421 16.5703C56.2203 15.8496 55.7217 14.9866 54.9585 14.8674C52.7479 14.5221 50.6235 13.4991 48.9205 11.7953C47.2177 10.0917 46.1936 7.9681 45.8475 5.75798C45.728 4.9946 44.8645 4.49614 44.1436 4.77433C42.057 5.57955 39.7053 5.75449 37.3794 5.13173C35.0529 4.50812 33.1043 3.1805 31.699 1.43914C31.2137 0.837798 30.2166 0.838222 29.7317 1.43981C28.3278 3.18129 26.379 4.50955 24.0527 5.1327C21.7266 5.75517 19.3751 5.5797 17.2878 4.77381C16.567 4.49553 15.7037 4.99393 15.5842 5.75728C15.2384 7.96763 14.2147 10.0928 12.5111 11.7953C10.8089 13.4979 8.68425 14.5214 6.4743 14.8671C5.7108 14.9865 5.21221 15.8502 5.4906 16.5711C6.29665 18.6583 6.47275 21.011 5.84804 23.3369C5.22522 25.663 3.89626 27.6115 2.15483 29.016C1.55343 29.501 1.55351 30.4979 2.15499 30.9828C3.89715 32.3873 5.22575 34.3355 5.84901 36.6626C6.4718 38.9878 6.2959 41.3403 5.49022 43.4276C5.21196 44.1485 5.71056 45.012 6.474 45.1314C8.68443 45.477 10.8087 46.5005 12.5111 48.2037C14.2147 49.9073 15.2381 52.0315 15.5835 54.2417C15.7029 55.005 16.5662 55.5036 17.287 55.2254C19.3747 54.4195 21.727 54.2436 24.0532 54.8668C26.3795 55.4904 28.3278 56.8188 29.7327 58.5608C30.2177 59.1622 31.2147 59.1621 31.6997 58.5606C33.1043 56.8184 35.0534 55.4897 37.3804 54.8668C39.7054 54.2444 42.057 54.4191 44.1438 55.2247C44.8647 55.503 45.7285 55.0046 45.848 54.2411C46.194 52.0308 47.2177 49.9061 48.92 48.2037C50.6236 46.5013 52.7478 45.4773 54.9582 45.1315C55.7216 45.012 56.2202 44.1485 55.9419 43.4277C55.1359 41.3403 54.9603 38.9888 55.5831 36.6631Z"/>
</mask>
<path d="M55.5831 36.6631C56.2064 34.3365 57.5355 32.3878 59.2773 30.9833C59.8787 30.4984 59.8788 29.5016 59.2774 29.0166C57.5352 27.6116 56.2068 25.6631 55.5831 23.3359C54.9602 21.0103 55.1363 18.6583 55.9421 16.5703C56.2203 15.8496 55.7217 14.9866 54.9585 14.8674C52.7479 14.5221 50.6235 13.4991 48.9205 11.7953C47.2177 10.0917 46.1936 7.9681 45.8475 5.75798C45.728 4.9946 44.8645 4.49614 44.1436 4.77433C42.057 5.57955 39.7053 5.75449 37.3794 5.13173C35.0529 4.50812 33.1043 3.1805 31.699 1.43914C31.2137 0.837798 30.2166 0.838222 29.7317 1.43981C28.3278 3.18129 26.379 4.50955 24.0527 5.1327C21.7266 5.75517 19.3751 5.5797 17.2878 4.77381C16.567 4.49553 15.7037 4.99393 15.5842 5.75728C15.2384 7.96763 14.2147 10.0928 12.5111 11.7953C10.8089 13.4979 8.68425 14.5214 6.4743 14.8671C5.7108 14.9865 5.21221 15.8502 5.4906 16.5711C6.29665 18.6583 6.47275 21.011 5.84804 23.3369C5.22522 25.663 3.89626 27.6115 2.15483 29.016C1.55343 29.501 1.55351 30.4979 2.15499 30.9828C3.89715 32.3873 5.22575 34.3355 5.84901 36.6626C6.4718 38.9878 6.2959 41.3403 5.49022 43.4276C5.21196 44.1485 5.71056 45.012 6.474 45.1314C8.68443 45.477 10.8087 46.5005 12.5111 48.2037C14.2147 49.9073 15.2381 52.0315 15.5835 54.2417C15.7029 55.005 16.5662 55.5036 17.287 55.2254C19.3747 54.4195 21.727 54.2436 24.0532 54.8668C26.3795 55.4904 28.3278 56.8188 29.7327 58.5608C30.2177 59.1622 31.2147 59.1621 31.6997 58.5606C33.1043 56.8184 35.0534 55.4897 37.3804 54.8668C39.7054 54.2444 42.057 54.4191 44.1438 55.2247C44.8647 55.503 45.7285 55.0046 45.848 54.2411C46.194 52.0308 47.2177 49.9061 48.92 48.2037C50.6236 46.5013 52.7478 45.4773 54.9582 45.1315C55.7216 45.012 56.2202 44.1485 55.9419 43.4277C55.1359 41.3403 54.9603 38.9888 55.5831 36.6631Z" fill="white" stroke="#8D387B" stroke-width="2" mask="url(#path-1-inside-1)"/>
<circle cx="30.2158" cy="30.5" r="14" fill="white" stroke="#8D387B"/>
</svg>
