<svg width="61" height="60" viewBox="0 0 61 60" fill="none" xmlns="http://www.w3.org/2000/svg">
<path d="M59.5391 28.8234H54.5677L55.7788 27.6123C56.2382 27.1529 56.2382 26.408 55.7788 25.9485C55.3194 25.4892 54.5746 25.4892 54.115 25.9485L51.2402 28.8236H46.0969L49.6483 25.2721C50.1077 24.8127 50.1077 24.0678 49.6483 23.6083C49.1888 23.149 48.4441 23.149 47.9845 23.6083L42.7693 28.8237H33.5561L40.0709 22.3089H47.4463C48.0959 22.3089 48.6227 21.782 48.6227 21.1325C48.6227 20.4828 48.0958 19.956 47.4463 19.956H42.4239L46.0608 16.3191H53.436C54.0857 16.3191 54.6125 15.7922 54.6125 15.1427C54.6125 14.493 54.0856 13.9662 53.436 13.9662H48.4138L51.929 10.451C52.3884 9.9916 52.3884 9.24664 51.929 8.78715C51.4695 8.3279 50.7248 8.3279 50.2652 8.78715L46.7499 12.3024V7.27966C46.7499 6.62997 46.2231 6.10322 45.5735 6.10322C44.9239 6.10322 44.3971 6.63009 44.3971 7.27966V14.6549L40.7602 18.2918V13.2694C40.7602 12.6198 40.2333 12.093 39.5837 12.093C38.9341 12.093 38.4073 12.6199 38.4073 13.2694V20.6448L31.8925 27.1596V17.9464L37.1078 12.7312C37.5672 12.2718 37.5672 11.5269 37.1078 11.0674C36.6485 10.6084 35.9038 10.6081 35.444 11.0674L31.8926 14.6188V9.47551L37.1079 4.26033C37.5673 3.80096 37.5673 3.056 37.1079 2.59651C36.6486 2.13749 35.9039 2.13726 35.4441 2.59651L31.8927 6.14798V1.17644C31.8921 0.526873 31.3654 0 30.7157 0C30.066 0 29.5393 0.526873 29.5393 1.17644V6.14787L25.9878 2.5964C25.5283 2.13714 24.7836 2.13714 24.324 2.5964C23.8646 3.05577 23.8646 3.80073 24.324 4.26022L29.5394 9.47539V14.6187L25.9879 11.0673C25.5284 10.608 24.7837 10.608 24.3241 11.0673C23.8647 11.5266 23.8647 12.2716 24.3241 12.7311L29.5395 17.9463V27.1595L23.0247 20.6447V13.2693C23.0247 12.6196 22.4978 12.0929 21.8483 12.0929C21.1986 12.0929 20.6718 12.6198 20.6718 13.2693V18.2917L17.0349 14.6548V7.27966C17.0349 6.62997 16.5081 6.10322 15.8585 6.10322C15.2088 6.10322 14.6821 6.63009 14.6821 7.27966V12.3019L11.1663 8.78668C10.7068 8.32743 9.96211 8.32743 9.5025 8.78668C9.04313 9.24606 9.04313 9.99102 9.5025 10.4505L13.0178 13.9658H7.99548C7.34579 13.9658 6.81904 14.4926 6.81904 15.1422C6.81904 15.7919 7.34591 16.3186 7.99548 16.3186H15.3708L19.0077 19.9555H13.9853C13.3356 19.9555 12.8088 20.4824 12.8088 21.132C12.8088 21.7817 13.3357 22.3084 13.9853 22.3084H21.3607L27.8754 28.8232H18.6622L13.447 23.6079C12.9878 23.1488 12.243 23.1487 11.7832 23.6079C11.3238 24.0673 11.3238 24.8122 11.7832 25.2717L15.3347 28.8231H10.1913L4.97615 23.6078C4.51678 23.1487 3.77206 23.1485 3.31233 23.6078C2.85296 24.0672 2.85296 24.8121 3.31233 25.2716L6.8638 28.823H1.89226C1.24269 28.8234 0.71582 29.3502 0.71582 29.9999C0.71582 30.6496 1.24269 31.1763 1.89226 31.1763H6.86369L3.31222 34.7278C2.85284 35.1872 2.85284 35.9321 3.31222 36.3916C3.54202 36.6213 3.84307 36.7361 4.14413 36.7361C4.44518 36.7361 4.74623 36.6212 4.97604 36.3916L10.1913 31.1762H15.3347L11.7832 34.7277C11.3238 35.187 11.3238 35.932 11.7832 36.3915C12.013 36.6212 12.3141 36.736 12.6151 36.736C12.9162 36.736 13.2172 36.6211 13.447 36.3915L18.6623 31.1761H27.8756L21.3608 37.6909H13.9854C13.3357 37.6909 12.8089 38.2177 12.8089 38.8673C12.8089 39.5169 13.3358 40.0438 13.9854 40.0438H19.0078L15.3709 43.6806H7.99548C7.34579 43.6806 6.81904 44.2075 6.81904 44.8571C6.81904 45.5067 7.34591 46.0335 7.99548 46.0335H13.0178L9.5025 49.5493C9.04313 50.0086 9.04313 50.7536 9.5025 51.2131C9.73231 51.4428 10.0334 51.5576 10.3344 51.5576C10.6355 51.5576 10.9365 51.4426 11.1663 51.2131L14.6816 47.6978V52.7201C14.6816 53.3698 15.2085 53.8965 15.858 53.8965C16.5076 53.8965 17.0345 53.3697 17.0345 52.7201V45.3448L20.6714 41.7079V46.7303C20.6714 47.38 21.1982 47.9068 21.8478 47.9068C22.4975 47.9068 23.0242 47.3799 23.0242 46.7303V39.3549L29.5391 32.8401V42.0534L24.3239 47.2686C23.8645 47.7279 23.8645 48.4729 24.3239 48.9324C24.7833 49.3915 25.5281 49.3918 25.9877 48.9324L29.539 45.3809V50.5243L24.3237 55.7394C23.8644 56.1988 23.8644 56.9438 24.3237 57.4032C24.7832 57.8625 25.5279 57.8626 25.9876 57.4032L29.5389 53.8518V58.8232C29.5389 59.4729 30.0658 59.9996 30.7153 59.9996C31.365 59.9996 31.8918 59.4728 31.8918 58.8232V53.8518L35.4433 57.4032C35.6731 57.6329 35.9741 57.7478 36.2752 57.7478C36.5762 57.7478 36.8773 57.6328 37.1071 57.4032C37.5665 56.9439 37.5665 56.1989 37.1071 55.7394L31.8918 50.5243V45.3809L35.4433 48.9324C35.6731 49.1621 35.9741 49.2769 36.2752 49.2769C36.5762 49.2769 36.8773 49.162 37.1071 48.9324C37.5665 48.473 37.5665 47.7281 37.1071 47.2686L31.8918 42.0534V32.8401L38.4066 39.3549V46.7303C38.4066 47.38 38.9334 47.9068 39.583 47.9068C40.2326 47.9068 40.7595 47.3799 40.7595 46.7303V41.7079L44.3964 45.3448V52.7201C44.3964 53.3698 44.9232 53.8965 45.5728 53.8965C46.2224 53.8965 46.7492 53.3697 46.7492 52.7201V47.6978L50.2645 51.2131C50.4943 51.4428 50.7953 51.5576 51.0964 51.5576C51.3975 51.5576 51.6985 51.4426 51.9283 51.2131C52.3877 50.7537 52.3877 50.0087 51.9283 49.5493L48.4131 46.034H53.4353C54.085 46.034 54.6118 45.5071 54.6118 44.8576C54.6118 44.208 54.0849 43.6811 53.4353 43.6811H46.0601L42.4232 40.0442H47.4456C48.0952 40.0442 48.622 39.5173 48.622 38.8678C48.622 38.2182 48.0951 37.6913 47.4456 37.6913H40.0707L33.5561 31.1766H42.7693L47.9845 36.3918C48.2143 36.6215 48.5154 36.7364 48.8164 36.7364C49.1175 36.7364 49.4185 36.6214 49.6483 36.3918C50.1077 35.9325 50.1077 35.1875 49.6483 34.728L46.097 31.1767H51.2403L56.4555 36.392C56.6853 36.6217 56.9863 36.7365 57.2874 36.7365C57.5884 36.7365 57.8895 36.6215 58.1193 36.392C58.5787 35.9326 58.5787 35.1876 58.1193 34.7281L54.568 31.1768H59.5394C60.1891 31.1768 60.7158 30.6499 60.7158 30.0004C60.7156 29.3502 60.1887 28.8234 59.5391 28.8234Z" fill="#8D387B"/>
<path d="M57.2874 28.8235C55.7733 28.8235 55.7708 31.1763 57.2874 31.1763C58.8013 31.1763 58.8038 28.8235 57.2874 28.8235Z" fill="#8D387B"/>
</svg>
