<svg width="95" height="95" viewBox="0 0 95 95" fill="none" xmlns="http://www.w3.org/2000/svg">
<path d="M47.5 0C21.2664 0 0 21.2664 0 47.5C0 73.7336 21.2664 95 47.5 95C73.7336 95 95 73.7336 95 47.5C95 21.2664 73.7336 0 47.5 0ZM64.6496 26.1335L58.0797 26.1364C52.9279 26.1364 51.9317 28.5846 51.9317 32.1766V40.0973H64.2171L64.2113 52.5032H51.9327V84.3396H39.1186V52.5032H28.4067V40.0973H39.1186V30.9481C39.1186 20.3305 45.6058 14.5479 55.0767 14.5479L64.6505 14.5625L64.6496 26.1335Z" fill="#763668"/>
</svg>
