<svg width="95" height="95" viewBox="0 0 95 95" fill="none" xmlns="http://www.w3.org/2000/svg">
<path d="M56.5918 47.5C56.5918 52.5214 52.5214 56.5918 47.5 56.5918C42.4786 56.5918 38.4082 52.5214 38.4082 47.5C38.4082 42.4786 42.4786 38.4082 47.5 38.4082C52.5214 38.4082 56.5918 42.4786 56.5918 47.5Z" fill="#763668"/>
<path d="M68.7625 31.4139C68.3255 30.2296 67.6282 29.1577 66.7222 28.2778C65.8423 27.3718 64.7711 26.6745 63.586 26.2375C62.625 25.8642 61.1812 25.4199 58.5219 25.2989C55.6452 25.1677 54.7827 25.1394 47.5 25.1394C40.2166 25.1394 39.3541 25.1669 36.4781 25.2981C33.8188 25.4199 32.3743 25.8642 31.414 26.2375C30.2289 26.6745 29.157 27.3718 28.2778 28.2778C27.3718 29.1577 26.6745 30.2289 26.2368 31.4139C25.8635 32.375 25.4192 33.8195 25.2982 36.4788C25.167 39.3548 25.1387 40.2173 25.1387 47.5007C25.1387 54.7834 25.167 55.6459 25.2982 58.5226C25.4192 61.1819 25.8635 62.6257 26.2368 63.5867C26.6745 64.7718 27.3711 65.843 28.2771 66.7229C29.157 67.6289 30.2282 68.3262 31.4132 68.7632C32.3743 69.1372 33.8188 69.5815 36.4781 69.7025C39.3541 69.8337 40.2158 69.8613 47.4993 69.8613C54.7834 69.8613 55.6459 69.8337 58.5212 69.7025C61.1805 69.5815 62.625 69.1372 63.586 68.7632C65.9648 67.8456 67.8449 65.9655 68.7625 63.5867C69.1358 62.6257 69.5801 61.1819 69.7018 58.5226C69.833 55.6459 69.8606 54.7834 69.8606 47.5007C69.8606 40.2173 69.833 39.3548 69.7018 36.4788C69.5808 33.8195 69.1365 32.375 68.7625 31.4139ZM47.5 61.5059C39.7643 61.5059 33.4934 55.2357 33.4934 47.5C33.4934 39.7643 39.7643 33.4941 47.5 33.4941C55.235 33.4941 61.5059 39.7643 61.5059 47.5C61.5059 55.2357 55.235 61.5059 47.5 61.5059ZM62.0596 36.2135C60.252 36.2135 58.7865 34.748 58.7865 32.9403C58.7865 31.1327 60.252 29.6672 62.0596 29.6672C63.8673 29.6672 65.3328 31.1327 65.3328 32.9403C65.3321 34.748 63.8673 36.2135 62.0596 36.2135Z" fill="#763668"/>
<path d="M47.5 0C21.2705 0 0 21.2705 0 47.5C0 73.7295 21.2705 95 47.5 95C73.7295 95 95 73.7295 95 47.5C95 21.2705 73.7295 0 47.5 0ZM74.6109 58.7452C74.479 61.6487 74.0173 63.631 73.3432 65.3661C71.9262 69.03 69.03 71.9262 65.3661 73.3432C63.6317 74.0173 61.6487 74.4782 58.7459 74.6109C55.8373 74.7435 54.9081 74.7754 47.5007 74.7754C40.0926 74.7754 39.1642 74.7435 36.2548 74.6109C33.3521 74.4782 31.369 74.0173 29.6346 73.3432C27.8139 72.6583 26.1657 71.5849 24.8031 70.1969C23.4159 68.835 22.3425 67.1861 21.6575 65.3661C20.9835 63.6317 20.5218 61.6487 20.3899 58.7459C20.2558 55.8366 20.2246 54.9074 20.2246 47.5C20.2246 40.0926 20.2558 39.1634 20.3891 36.2548C20.521 33.3513 20.982 31.369 21.6561 29.6339C22.341 27.8139 23.4151 26.165 24.8031 24.8031C26.165 23.4151 27.8139 22.3417 29.6339 21.6568C31.369 20.9827 33.3513 20.5218 36.2548 20.3891C39.1634 20.2565 40.0926 20.2246 47.5 20.2246C54.9074 20.2246 55.8366 20.2565 58.7452 20.3899C61.6487 20.5218 63.631 20.9827 65.3661 21.6561C67.1861 22.341 68.835 23.4151 70.1976 24.8031C71.5849 26.1657 72.659 27.8139 73.3432 29.6339C74.018 31.369 74.479 33.3513 74.6116 36.2548C74.7442 39.1634 74.7754 40.0926 74.7754 47.5C74.7754 54.9074 74.7442 55.8366 74.6109 58.7452Z" fill="#763668"/>
</svg>
